<svg preserveAspectRatio="none" width="129" height="23" viewBox="0 0 129 23" fill="none" xmlns="http://www.w3.org/2000/svg">
<circle cx="11.5" cy="11.5" r="11.5" fill="#C266ED" fill-opacity="0.19"/>
<g clip-path="url(#clip0_35_3747)">
<path d="M17.4965 11.3358C17.4965 7.93512 14.7365 5.17512 11.3358 5.17512C7.93511 5.17512 5.17511 7.93512 5.17511 11.3358C5.17511 14.3176 7.2944 16.8004 10.1037 17.3733V13.1841H8.87154V11.3358H10.1037V9.79566C10.1037 8.60664 11.0709 7.63941 12.2599 7.63941H13.8001V9.48762H12.568C12.2291 9.48762 11.9519 9.76486 11.9519 10.1037V11.3358H13.8001V13.1841H11.9519V17.4657C15.0631 17.1577 17.4965 14.5332 17.4965 11.3358Z" fill="#AE7EF4" fill-opacity="0.68"/>
</g>
<circle cx="64.5" cy="11.5" r="11.5" fill="#C266ED" fill-opacity="0.19"/>
<path d="M61.8716 5.7912C60.1706 5.7912 58.7912 7.17058 58.7912 8.87155V13.8001C58.7912 15.5011 60.1706 16.8805 61.8716 16.8805H66.8001C68.5011 16.8805 69.8805 15.5011 69.8805 13.8001V8.87155C69.8805 7.17058 68.5011 5.7912 66.8001 5.7912H61.8716ZM68.0323 7.02334C68.3723 7.02334 68.6483 7.29934 68.6483 7.63941C68.6483 7.97948 68.3723 8.25548 68.0323 8.25548C67.6922 8.25548 67.4162 7.97948 67.4162 7.63941C67.4162 7.29934 67.6922 7.02334 68.0323 7.02334ZM64.3358 8.25548C66.0368 8.25548 67.4162 9.63486 67.4162 11.3358C67.4162 13.0368 66.0368 14.4162 64.3358 14.4162C62.6349 14.4162 61.2555 13.0368 61.2555 11.3358C61.2555 9.63486 62.6349 8.25548 64.3358 8.25548ZM64.3358 9.48762C63.8457 9.48762 63.3756 9.68235 63.029 10.029C62.6823 10.3756 62.4876 10.8457 62.4876 11.3358C62.4876 11.826 62.6823 12.2961 63.029 12.6427C63.3756 12.9893 63.8457 13.1841 64.3358 13.1841C64.826 13.1841 65.2961 12.9893 65.6427 12.6427C65.9893 12.2961 66.1841 11.826 66.1841 11.3358C66.1841 10.8457 65.9893 10.3756 65.6427 10.029C65.2961 9.68235 64.826 9.48762 64.3358 9.48762Z" fill="#AE7EF4" fill-opacity="0.68"/>
<circle cx="117.5" cy="11.5" r="11.5" fill="#C266ED" fill-opacity="0.19"/>
<path d="M123.497 6.40665C123.016 6.69189 122.052 7.08063 121.485 7.19276C121.468 7.19707 121.455 7.20262 121.439 7.20693C120.938 6.71284 120.252 6.40665 119.492 6.40665C117.961 6.40665 116.72 7.64803 116.72 9.17897C116.72 9.25968 116.713 9.40815 116.72 9.48701C114.654 9.48701 113.082 8.40519 111.954 7.02272C111.832 7.33076 111.778 7.81745 111.778 8.27458C111.778 9.1377 112.453 9.98541 113.503 10.5109C113.31 10.5608 113.097 10.5966 112.875 10.5966C112.517 10.5966 112.138 10.5023 111.791 10.2164C111.791 10.2269 111.791 10.2368 111.791 10.2479C111.791 11.4541 113.071 12.2753 114.21 12.5039C113.979 12.6401 113.513 12.6536 113.286 12.6536C113.126 12.6536 112.559 12.5803 112.407 12.552C112.724 13.5408 113.866 14.0965 114.955 14.1162C114.103 14.784 113.512 15.0317 111.769 15.0317H111.175C112.277 15.7377 113.679 16.2644 115.085 16.2644C119.663 16.2644 122.264 12.7756 122.264 9.48701C122.264 9.43403 122.263 9.32313 122.261 9.21162C122.261 9.20053 122.264 9.19006 122.264 9.17897C122.264 9.16234 122.259 9.14632 122.259 9.12969C122.258 9.0459 122.256 8.96766 122.254 8.927C122.741 8.57584 123.163 8.13781 123.497 7.63879C123.05 7.83717 122.571 7.97024 122.067 8.03062C122.581 7.72258 123.311 6.98822 123.497 6.40665Z" fill="#AE7EF4" fill-opacity="0.68"/>
<defs>
<clipPath id="clip0_35_3747">
<rect width="14.7857" height="14.7857" fill="white" transform="translate(3.94299 3.94298)"/>
</clipPath>
</defs>
</svg>
