<svg preserveAspectRatio="none" width="706" height="1306" viewBox="0 0 706 1306" fill="none" xmlns="http://www.w3.org/2000/svg">
<path d="M106.35 0C24.5589 15.2378 -78.8835 171.626 93.5205 258.241C116.24 267.062 173.869 273.478 222.623 228.567C283.566 172.428 206.585 58.5452 121.586 107.467C36.5871 156.388 75.0773 280.696 179.322 306.36C283.566 332.024 327.669 336.835 358.942 371.321C390.216 405.807 428.706 463.55 403.046 546.155C378.87 623.981 254.334 668.348 266.158 548.472C267.732 532.52 273.904 517.277 282.62 503.824C359.709 384.842 444.892 369.717 471.205 369.717C494.546 369.717 642.141 375.594 586.591 553.965C581.401 570.631 572.011 585.699 560.773 599.056C491.122 681.839 377.661 829.448 358.942 887C344.241 933.833 329.5 1028.5 358.942 1089.5C392.015 1158.02 465.5 1259 705.5 1306" stroke="#7D00DE" stroke-width="0.5" stroke-linecap="round"/>
</svg>
