<svg preserveAspectRatio="none" width="426" height="431" viewBox="0 0 426 431" fill="none" xmlns="http://www.w3.org/2000/svg">
<path fill-rule="evenodd" clip-rule="evenodd" d="M122.445 197.668C123.523 196.702 122.471 198.916 123.594 197.74C123.378 196.299 124.529 194.01 123.639 192.99C123.455 194.334 122.93 194.26 122.201 195.461C123.454 193.883 123.65 196.673 122.445 197.668V197.668ZM149.913 206.762C150.377 206.903 150.34 205.916 150.777 205.962C153.827 207.854 156.215 211.756 160.753 211.801C162.2 215.093 165.723 215.807 168.224 217.37C170.034 218.501 171.22 221.22 174.549 219.458C171.257 216.805 167.091 215.178 164.819 212.413C160.63 211.224 156.634 207.566 151.559 204.425C151.477 203.951 152.794 202.605 152.463 202.286C151.659 203.179 150.948 203.622 150.329 203.618C143.788 198.48 137.997 194.721 133.745 191.407C133.674 190.903 135.122 188.134 133.705 189.335C133.791 189.59 133.713 191.188 133.128 191.004C131.136 188.261 122.208 184.924 120.692 180.141C120.853 180.391 120.647 180.87 120.445 181.346C117.145 178.678 112.826 178.239 111.332 174.704C113.262 178.77 115.227 183.684 120.073 183.15C119.745 183.618 119.416 184.086 119.087 184.551C121.615 182.947 121.096 187.812 122.122 187.905C127.22 185.085 125.684 190.927 128.897 192.332C131.216 190.076 132.812 193.033 133.125 194.416C138.343 197.457 144.825 201.415 149.913 206.762V206.762ZM108.537 176.972C108.124 175.903 109.341 175.711 110.057 175.236C110.311 173.869 109.062 173.485 107.799 173.759C109.499 173.672 106.948 176.799 107.84 175.832C108.184 176.046 108.868 174.611 109.237 174.697C108.68 175.523 108.169 176.12 107.715 176.434C108.636 176.097 107.64 178.143 108.537 176.972V176.972ZM106.032 176.697C108.03 171.719 102.875 172.424 102.301 168.795C101.51 169.626 100.876 169.685 100.289 169.526C99.5475 168.679 98.1593 166.029 96.2645 167.579C97.0313 167.975 96.3366 169.282 96.715 169.918C97.9062 168.697 99.8738 169.592 99.8336 170.597C98.4701 172.401 99.4437 169.835 98.3568 170.993C99.9713 171.767 104.737 172.26 106.032 176.697V176.697ZM96.1827 166.841C94.825 166.593 94.8858 163.424 92.7751 165.296C94.1044 165.158 94.8126 168.095 96.1827 166.841ZM115.232 177.254C115.808 177.581 116.971 176.829 117.164 175.787C116.722 175.292 116.034 175.992 115.232 177.254ZM110.144 172.558C110.669 171.885 111.285 170.785 111.665 170.823C112.263 171.76 114.091 173.249 115.276 172.506C109.326 166.611 102.001 162.03 98.4485 158.086C98.68 158.088 98.8626 158.339 99.1883 157.886C98.7713 156.894 97.8321 158.439 97.1746 158.619C95.8706 155.621 92.069 154.636 90.8189 152.298C91.0196 151.841 90.7059 151.708 90.4859 151.515C90.5532 151.8 90.6864 152.048 90.8189 152.298C90.7545 152.442 90.6383 152.623 90.4424 152.851C88.6287 150.957 87.1748 152.33 87.4059 149.499C86.1922 151.261 85.8697 148.67 84.656 150.428C91.0253 156.818 102.711 163.144 109.406 169.347C108.887 170.845 107.865 169.66 108.213 170.617C109.266 169.625 108.317 172.079 109.569 170.82C109.822 167.905 110.473 170.804 110.144 172.558V172.558ZM59.652 136.127C58.6768 137.776 60.0204 137.495 60.8845 136.933C60.3118 136.327 60.9269 134.984 59.6956 134.788C59.0486 135.541 59.1574 136.187 58.7093 136.191C57.76 136.083 59.7841 134.122 58.6689 134.118C58.1051 134.974 57.6951 135.079 57.3937 134.653C55.6895 137.314 57.7904 138.202 59.652 136.127V136.127ZM52.6732 131.563C52.6793 133.175 54.5504 134.66 55.9155 135.048C57.0308 130.156 52.0467 133.054 52.7583 128.889C52.2607 129.42 51.8207 129.671 51.485 129.419C49.6665 132.077 51.4777 132.029 52.6732 131.563V131.563ZM62.5722 133.256C61.5469 133.372 62.5892 132.196 62.4066 131.787C61.7513 132.712 61.43 132.014 60.6819 133.388C61.2833 134.135 61.2011 134.588 62.5722 133.256V133.256ZM80.5901 146.407C75.9358 143.254 72.8475 138.655 67.2492 137.685C71.1401 140.602 74.7278 144.22 80.5901 146.407ZM84.8579 153.976C84.7513 153.867 84.6635 153.746 84.9811 153.373C85.3148 153.632 85.7593 153.358 86.2542 152.843C85.7464 151.917 84.8158 153.044 84.037 153.438C84.7331 153.242 83.7377 155.286 84.8579 153.976ZM82.8906 146.548C81.8439 147.863 81.4248 146.132 80.4676 147.011C80.7885 147.422 80.3549 148.304 80.3007 148.95C83.1246 147.585 81.8601 151.038 84.7771 149.83C84.9887 147.753 80.7232 148.558 82.8906 146.548V146.548ZM108.345 159.783C108.129 159.362 108.811 159.209 109.332 158.38C107.694 159.086 109.943 156.516 108.429 157.108C108.673 157.648 108.351 158.121 107.646 158.645C107.841 158.91 107.698 160.658 108.345 159.783ZM71.5293 128.195C72.1721 127.709 72.9461 126.585 73.459 126.729C71.9171 129.073 74.5994 129.308 75.2269 127.2C73.8444 128.478 72.9966 123.915 69.8899 123.711C68.7556 127.186 70.6324 126.672 71.5293 128.195ZM61.2693 118.071C60.4665 117.898 60.415 114.968 59.2174 116.73C59.1985 117.416 59.7178 120.054 61.2693 118.071ZM56.4657 114.249C56.6963 113.234 55.7082 113.13 54.9064 113.909C55.1871 114.573 55.426 114.922 56.4657 114.249ZM55.0282 113.311C55.2798 112.01 53.8754 110.37 52.485 110.962C53.4417 112.03 53.5386 113.848 55.0282 113.311ZM177.076 189.034C176.217 187.376 175.37 186.258 173.792 186.886C173.87 188.07 175.906 189.403 177.076 189.034ZM173.176 186.484C172.865 186.129 172.666 184.388 171.535 185.41C171.402 186.04 172.32 187.336 173.176 186.484ZM190.953 197.425C191.75 198.909 193.831 199.045 195.182 199.51C194.223 198.432 193.332 197.385 190.953 197.425ZM183.563 192.593C181.566 191.449 179.626 189.185 177.159 189.769C180.141 190.977 180.678 193.138 183.563 192.593ZM91.0312 137.536C91.3317 137.897 91.8186 140.266 93.2057 138.28C91.956 138.083 92.497 136.212 91.0312 137.536ZM75.9653 127.002C74.8667 128.398 75.6154 129.551 76.6629 128.14C76.9575 126.836 75.7106 128.117 75.9653 127.002ZM60.8157 119.144C63.7445 119.151 64.2126 123.433 67.8366 122.368C65.2975 121.228 64.7944 117.694 60.8157 119.144ZM81.9992 131.632C79.8854 130.893 79.2295 127.065 76.2086 129.211C78.5055 129.56 78.8428 134.311 81.9992 131.632ZM132.95 156.762C132.73 155.412 131.178 154.893 131.598 153.147C132.816 154.689 135.614 157.51 137.468 156.303C134.119 153.105 130.029 151.993 127.577 147.787C127.785 147.395 128.219 146.862 128.028 146.719C127.591 147.341 127.151 147.966 126.712 148.589C126.59 147.474 124.853 145.974 123.512 147.176C124.027 150.373 126.793 152.275 128.763 153.342C128.854 153.047 128.252 151.998 129.01 152.137C129.749 153.866 131.272 156.492 132.95 156.762V156.762ZM118.952 145.56C120.097 144.999 119.294 146.826 120.513 145.9C120.297 145.567 121.064 143.325 120.144 144.295C120.234 144.5 120.109 144.841 119.693 145.361C119.429 145.137 118.835 144.952 118.952 145.56V145.56ZM118.542 145.293C118.981 144.669 119.419 144.046 119.858 143.423C116.785 139.57 113.906 138.97 110.05 135.64C110.918 142.054 116.652 139.867 118.542 145.293ZM109.228 135.105C108.926 133.733 104.445 133.563 106.395 131.89C106.597 131.261 103.649 132.242 103.765 132.217C105.09 133.48 107.393 136.536 109.228 135.105ZM102.535 131.41C102.979 130.764 103.354 130.449 103.727 130.142C103.537 129.564 103.984 127.957 102.701 129.472C103.022 129.884 102.589 130.766 102.535 131.41V131.41ZM139.361 152.764C138.801 151.101 136.409 150.583 137.309 148.011C137.645 148.269 138.09 147.993 138.582 147.48C136.648 148.577 139.495 145.182 137.886 146.342C136.829 147.705 134.559 144.343 133.411 145.46C133.774 149.143 135.877 152.787 139.361 152.764ZM147.78 154.856C147.706 150.511 145.723 155.004 143.592 151.436C143 153.836 146.83 154.399 143.626 156.922C146.405 154.959 147.426 161.506 150.113 160.481C150.334 159.296 149.219 158.943 150.323 157.205C150.16 157.888 151.149 157.993 151.884 157.54C150.199 156.932 149.839 153.828 147.78 154.856ZM151.76 158.143C152.38 158.144 152.701 159.603 153.526 158.615C152.953 157.907 153.037 156.971 151.76 158.143V158.143ZM236.991 202.279C240.244 203.461 239.755 204.994 242.985 204.836C242.154 203.351 239.723 200.051 236.991 202.279ZM253.495 210.345C252.888 209.761 251.577 209.62 251.771 208.535C251.071 210.546 252.044 211.392 253.495 210.345ZM159.734 147.662C157.514 146.718 157.726 143.604 155.507 145.578C156.83 144.99 157.851 149.454 159.734 147.662ZM141.47 132.305C141.799 131.837 142.13 131.368 142.457 130.902C142.438 130.116 140.681 130.03 141.393 128.156C139.139 130.939 138.933 126.396 136.834 126.543C136.409 130.151 140.226 129.733 141.47 132.305V132.305ZM135.356 126.938C135.915 122.781 131.296 124.43 132.117 120.042C135.724 121.942 137.582 125.957 142.461 127.49C142.402 126.827 141.549 126.659 141.887 125.75C144.301 125.764 144.106 127.73 144.06 129.902C144.804 128.552 145.12 129.275 145.662 128.902C145.483 130.355 145.368 132.598 147.263 131.315C143.128 121.666 129.282 112.93 122.719 109.12C126.001 113.394 129.979 113.551 131.871 117.836C129.039 119.125 129.926 113.323 126.082 115.415C127.583 115.674 128.343 118.329 129.528 119.036C130.334 117.604 131.472 120.699 129.115 122.176C131.079 123.472 134.042 125.228 135.356 126.938V126.938ZM124.358 113.604C122.833 110.923 121.135 110.86 119.023 110.113C120.772 112.38 121.71 114.905 124.358 113.604ZM106.748 100.721C106.159 100.566 105.527 100.623 104.736 101.452C105.323 101.974 105.793 103.924 107.199 103.064C107.324 101.885 105.854 101.701 106.214 101.057C106.356 101.111 106.506 101.145 106.748 100.721ZM103.174 101.116C104.973 98.7396 104.22 101.402 104.859 100.852C104.625 100.52 105.438 99.7341 105.846 99.4493C103.544 99.6147 104.377 97.2297 101.246 99.1719C101.204 97.8856 99.2368 97.802 100.304 95.8242C99.3074 96.5318 99.9045 96.4319 98.9897 97.6927C100.324 98.0848 100.295 99.3289 100.792 100.241C102.483 97.7198 102.7 100.549 103.174 101.116V101.116ZM97.6763 96.1528C95.9766 95.7687 96.9474 93.5201 95.663 93.474C95.9725 94.5066 94.6476 96.5546 95.3315 97.3542C96.4914 94.5205 95.9915 97.6213 97.6763 96.1528V96.1528ZM150.426 130.652C150.731 135.526 155.163 136.47 157.606 138.762C157.222 138.321 158.012 137.206 158.717 136.755C156.033 134.209 153.592 131.344 150.426 130.652ZM111.919 106.15C112.356 106.282 111.918 108.671 112.41 107.158C112.305 107.047 112.218 106.927 112.535 106.553C113.384 106.812 113.556 107.491 113.848 108.095C115.09 106.433 112.602 105.743 111.919 106.15V106.15ZM117.883 96.401C118.198 94.8869 116.699 96.412 116.116 95.9281C116.299 95.6694 116.322 95.2907 115.912 95.7936C115.646 97.4803 116.623 96.9265 117.883 96.401ZM138.78 211.082C137.298 212.055 138.148 211.52 136.849 212.55C132.173 207.689 129.033 205.754 124.412 201.687C124.719 201.332 124.946 201.357 125.275 200.887C124.529 200.792 122.171 201.77 123.143 198.805C122.71 199.023 122.233 199.454 121.744 199.942C121.556 199.708 122.172 198.974 122.526 198.405C122.298 198.385 121.992 198.74 121.788 198.603C120.875 198.694 122.128 199.47 120.8 200.005C119.624 198.681 121.241 196.885 118.541 198.53C117.754 197.589 118.171 195.466 116.408 196.453C116.165 195.911 116.486 195.438 117.19 194.913C115.083 195.951 115.062 194.006 113.577 193.233C114.152 192.696 114.628 192.65 115.056 192.836C116.022 191.12 113.797 192.433 114.606 190.494C115.562 190.44 116.55 189.419 116.699 190.5C117.312 187.146 113.053 185.614 111.53 185.069C112.409 184.861 112.896 182.492 111.652 184.469C111.589 183.808 112.524 182.526 112.148 182.062C113.009 180.871 113.574 182.019 113.874 180.461C113.27 179.88 112.493 182.475 111.531 181.661C111.343 182.563 111.951 182.972 110.71 184.532C110.481 184.131 110.064 184.644 109.638 185.201C109.522 183.706 111.811 183.838 111.081 182.727C109.745 183.875 107.745 183.246 106.89 182.719C107.889 185.61 110.855 184.791 111.65 187.878C109.533 190.523 109.254 188.244 109.269 187.004C108.661 186.771 108.984 187.992 107.953 188.874C107.929 188.43 106.542 187.762 106.312 187.8C106.354 186.225 107.815 187.168 108.449 186.467C108.09 186.073 107.256 183.417 104.669 186.724C105.043 185.618 105.786 184.281 105.288 183.717C105.086 184.193 104.878 184.672 105.04 184.922C103.767 185.349 105.865 182.37 107.014 182.117C105.541 179.122 100.355 176.425 96.5074 173.196C94.6325 171.627 92.1741 170.24 91.0062 168.236C90.2781 166.983 86.3312 164.851 84.0274 163.672C83.8509 163.346 84.6822 162.389 85.137 161.669C81.9256 163.451 81.7939 159.348 78.3218 158.574C78.1366 158.342 78.7493 157.609 79.1038 157.04C78.8645 156.564 77.2083 157.901 78.6119 156.035C74.6189 157.586 73.296 153.548 71.1801 152.541C70.8839 152.396 70.0628 153.162 70.1128 153.206C69.7157 152.855 70.2272 151.048 69.4566 150.731C68.5524 150.357 68.3636 149.961 67.7336 148.919C67.1642 147.981 65.88 146.252 65.5174 146.106C65.2328 145.991 64.575 147.096 64.2435 146.639C63.9789 146.268 64.6618 145.404 64.6083 144.938C64.4245 145.126 62.6946 144.172 61.7004 144.29C63.2103 142.567 58.5117 142.17 57.4316 140.135C58.216 139.259 58.6923 139.623 58.9512 138.399C57.3059 138.329 55.6198 140.711 56.1609 137.256C53.8622 138.572 54.0538 137.128 52.4251 136.176C53.0797 135.251 53.4016 135.95 54.1497 134.575C52.6321 136.149 53.3329 133.508 51.7288 135.037C51.601 134.831 51.888 134.381 52.1366 134.187C49.7529 135.164 48.1728 132.587 47.1294 131.349C48.2607 130.231 48.1825 129.593 48.8562 129.746C48.7083 128.756 47.6267 127.362 49.3916 126.006C48.7063 126.348 48.4929 126.21 48.5719 125.467C48.1064 126.012 48.0783 126.288 48.1802 126.481C46.3964 124.078 43.5383 121.119 42.7026 118.899C41.7723 120.038 42.3171 119.043 41.0194 119.163C41.4699 118.852 41.982 118.252 42.5406 117.428C41.9532 117.259 40.8611 119.562 40.4044 118.758C42.5261 115.391 38.046 117.78 39.1335 115.881C38.8388 115.799 38.3594 116.621 37.9417 117.148C37.6301 115.804 37.0976 115.93 35.4775 115.538C38.5401 114.622 35.8838 114.309 34.7791 114.4C35.3944 113.291 35.6402 113.991 36.1776 113.266C36.4505 112.196 35.9125 111.129 34.616 112.928C35.2479 110.027 34.0446 109.298 33.5544 106.771C35.8178 105.512 37.6974 106.318 40.1249 107.659C40.5743 107.652 40.4635 107.008 41.1112 106.256C44.798 107.101 46.718 110.454 50.8427 109.89C48.0355 103.776 41.0067 102.234 37.2998 97.617C39.547 97.2449 40.3607 97.3555 42.5144 98.2987C43.2732 96.8649 41.6427 96.9197 41.8589 95.8239C42.7002 95.1313 43.1876 96.1564 43.9532 95.8284C42.234 92.4083 38.8517 91.4618 35.4979 88.2517C36.4955 86.4205 36.6505 88.6897 37.7596 86.3174C43.7595 91.2739 52.1181 89.8149 53.6044 95.3174C52.7103 96.2709 52.3259 94.7455 51.6357 94.7087C51.9138 97.8769 54.7055 98.9045 56.8053 100.14C62.6774 103.591 68.6162 106.91 74.2951 110.211C74.6079 109.753 74.3 109.682 74.2118 109.475C81.4116 111.293 90.505 117.144 94.9445 123.031C95.4872 122.658 95.8038 123.382 96.5452 122.033C96.6038 125.474 99.5641 125.074 101.758 126.127C107.372 128.814 111.239 135.431 116.702 137.262C114.506 139.164 117.201 137.839 118.138 138.201C121.881 139.657 125.831 144.77 129.795 147.19C130.362 143.446 124.8 143.725 124.379 139.553C125.125 138.188 125.11 140.521 125.857 139.155C125.079 133.587 118.979 135.57 118.186 130.042C117.573 130.324 117.731 130.868 116.787 131.176C110.702 128.662 103.695 121.712 97.66 116.619C96.9455 116.014 95.3938 116.981 94.4126 116.545C86.1677 112.879 83.0933 103.778 75.327 100.65C79.8835 101.608 81.7042 104.825 87.0697 106.965C87.3644 107.047 87.8432 106.224 88.2617 105.694C90.8662 107.452 90.7541 109.477 92.8175 110.722C102.778 116.746 113.314 125.445 125.947 129.661C126.978 129.792 127.109 128.035 128.003 127.591C128.608 131.072 132.777 129.811 132.187 134.423C133.037 134.366 132.547 133.011 132.558 132.618C135.529 132.43 134.425 139.019 138.221 139.05C139.038 137.405 137.813 137.033 138.223 135.64C138.408 135.21 139.619 136.319 139.331 137.047C141.517 135.023 144.044 138.752 145.407 140.339C147.323 138.286 148.906 143.345 151.443 141.556C146.672 136.824 138.513 134.008 134.493 127.738C133.856 128.486 134.031 128.728 134.244 128.942C133.185 129.26 132.645 128.595 133.466 127.068C132.71 126.457 133.026 127.828 132.07 128.201C131.778 127.366 131.796 127.007 131.7 126.596C128.927 126.724 128.095 123.683 126.816 122.036C123.629 118.939 127.634 123.4 129.569 121.107C126.355 117.039 119.797 115.068 117.213 110.98C118.772 108.534 117.947 111.446 119.143 109.514C118.188 107.636 116.176 107.529 115.164 106.225C114.36 107.952 116.375 107.92 114.831 110.107C113.03 109.346 111.66 107.371 110.318 107.151C112.737 103.792 109.395 103.126 107.647 105.408C106.397 105.574 108.157 103.864 107.28 103.801C106.941 103.746 106.418 104.593 106.621 104.736C103.496 103.47 96.5218 99.5497 94.1012 96.5474C94.0418 96.0597 94.4233 95.296 95.0071 94.4076C94.1257 94.4125 94.0691 95.9944 93.3614 96.7444C92.271 94.5794 89.8111 95.2942 89.9135 93.1272C91.002 91.2411 91.3029 93.1665 92.0096 93.1303C92.3134 91.9361 91.3449 92.5025 92.9148 90.9929C87.7668 88.2798 86.5663 87.4328 82.4466 84.1464C87.2509 82.8858 88.5633 88.2697 92.7115 87.4476C93.6269 89.9326 96.0492 89.308 97.31 91.1353C97.9173 91.3705 97.5947 90.147 98.626 89.2654C99.6389 89.167 99.12 89.528 99.8571 90.0727C100.883 88.9087 100.068 88.891 100.228 88.2673C101.254 87.1683 100.496 89.7565 101.788 88.6048C102.077 85.9827 98.1778 89.3078 97.5598 86.523C98.0273 85.5397 97.1753 85.7971 98.3403 84.9876C97.2574 84.4385 97.3672 83.1436 96.0015 82.7729C95.0982 82.1971 96.5338 81.9444 96.7427 82.574C98.8724 83.5058 102.409 83.3799 102.282 86.1994C104.196 85.2582 103.13 87.3798 104.459 86.9398C104.16 87.8154 103.291 89.0117 102.403 89.0091C104.537 93.28 109.51 94.3421 113.159 96.7236C113.959 92.9207 109.076 94.6139 109.262 90.7618C111.446 90.7546 112.561 92.2932 114.106 93.2489C112.647 94.5627 114.574 95.5276 115.501 95.5262C115.948 95.5236 115.842 94.8738 116.487 94.1232C117.279 95.7851 118.969 95.269 120.592 96.8079C120.361 97.5649 119.564 98.6753 119.892 99.0827C121.653 95.6895 120.058 100.628 121.863 99.6876C118.093 102.446 120.344 96.463 117.635 97.6035C118.626 100.998 119.699 103.964 123.091 103.904C123.923 102.687 122.56 102.836 124.123 101.163C125.656 102.172 125.953 103.325 127.817 103.58C127.307 104.173 127.029 103.632 126.665 103.512C126.601 107.39 129.723 109.319 132.287 111.281C133.246 110.708 133.253 109.799 133.191 109.143C134.136 107.954 134.536 109.405 135.41 108.546C135.976 115.838 145.096 114.362 145.259 121.811C145.819 120.887 146.484 121.437 147.723 120.012C149.394 120.92 149.847 123.181 152.691 121.897C152.67 125.068 158.279 123.625 156.012 129.529C160.461 127.112 161.945 128.832 164.637 131.753C164.116 132.397 163.907 131.518 163.361 132.288C163.777 133.689 165.299 134.4 166.193 135.505C166.892 133.932 165.352 133.756 164.593 133.093C166.43 130.766 165.891 133.362 167.304 133.498C165.461 138.774 170.307 138.788 172.761 139.799C173.117 138.792 171.949 138.732 171.981 137.926C175.147 137.271 175.355 141.238 177.854 141.082C177.414 141.707 176.977 142.329 176.538 142.952C179.747 146.653 183.26 147.569 187.868 148.997C188.518 149.038 188.133 148.106 189.062 147.729C193.822 150.533 198.291 154.963 204.21 155.589C204.309 155.024 201.915 154.863 203.679 152.512C203.981 153.759 206.071 154.89 205.728 157.266C210.972 159.866 217.509 162.029 222.973 165.132C227.493 167.695 232.758 169.124 237.219 171.718C246.02 176.833 252.156 182.935 259.426 188.288C261.543 189.846 263.171 191.74 263.281 195.587C259.766 199.501 258.621 197.352 255.681 197.442C255.636 198.608 254.897 200.205 255.679 200.855C255.417 201.102 253.903 202.317 254.363 202.725C250.596 206.663 249.057 203.401 246.107 205.511C245.859 208.406 249.244 207.046 250.909 209.336C251.562 207.618 250.87 206.737 249.965 205.989C252.922 205.382 255.196 208.563 255.959 211.955C253.693 213.517 254.364 210.776 251.894 211.343C250.823 213.83 249.26 213.702 248.192 215.75C248.185 216.804 249.037 217.323 249.587 218.027C248.665 218.361 247.403 220.35 246.588 220.16C245.393 221.78 245.656 222.489 245.435 223.502C245.679 223.99 247.604 221.792 247.285 221.3C249.063 219.658 248.304 224.114 249.996 221.705C249.006 223.972 247.598 223.038 246.585 223.572C246.093 225.103 246.791 225.89 246.787 227.117C245.403 228.048 245.135 226.064 244.529 225.64C244.081 225.644 244.188 226.292 243.543 227.043C244.261 228.768 246.267 230.973 247.277 231.532C245.853 233.62 246.853 230.93 245.796 231.931C245.714 234.475 243.133 238.252 240.326 242.686C238.582 242.783 237.893 243.259 236.796 241.74C236.269 242.01 236.072 242.794 235.069 243.342C234.044 245.634 235.829 247.004 236.833 247.224C234.857 248.927 235.081 251.201 235.308 252.371C234.291 253.931 233.72 253.303 232.842 254.171C229.829 260.013 226.256 259.132 223.185 261.504C218.528 259.941 216.047 254.627 211.404 253.118C209.938 252.64 207.805 253.12 206.394 252.571C203.18 251.326 200.541 249.046 197.444 247.402C188.055 242.411 180.214 235.985 169.979 231.487C166.74 230.063 162.535 228.666 159.14 226.445C153.475 222.742 146.735 220.19 143.583 214.905C143.056 215.175 142.837 216.067 141.979 215.907C142.181 212.994 136.847 216.052 138.78 211.082" fill="#FFE6F9"/>
<path fill-rule="evenodd" clip-rule="evenodd" d="M305.396 232.672C304.307 233.625 305.384 231.423 304.248 232.587C304.448 234.029 303.271 236.306 304.149 237.336C304.348 235.993 304.872 236.074 305.614 234.881C304.344 236.445 304.179 233.653 305.396 232.672V232.672ZM278.033 223.266C277.571 223.119 277.597 224.107 277.16 224.055C274.132 222.129 271.788 218.2 267.251 218.103C265.842 214.795 262.327 214.041 259.844 212.449C258.047 211.298 256.892 208.565 253.544 210.29C256.805 212.98 260.952 214.655 263.193 217.445C267.368 218.682 271.321 222.385 276.361 225.584C276.437 226.059 275.105 227.389 275.432 227.712C276.247 226.829 276.962 226.393 277.582 226.404C284.064 231.617 289.811 235.441 294.025 238.803C294.091 239.309 292.611 242.06 294.041 240.876C293.958 240.62 294.055 239.023 294.637 239.213C296.598 241.978 305.488 245.418 306.949 250.218C306.791 249.966 307.003 249.489 307.21 249.015C310.479 251.72 314.793 252.208 316.247 255.76C314.363 251.672 312.454 246.736 307.603 247.215C307.936 246.751 308.271 246.287 308.604 245.826C306.058 247.4 306.632 242.542 305.607 242.438C300.478 245.199 302.081 239.375 298.883 237.933C296.539 240.163 294.977 237.189 294.679 235.801C289.497 232.701 283.06 228.67 278.033 223.266V223.266ZM319.068 253.525C319.469 254.598 318.249 254.776 317.528 255.243C317.258 256.607 318.503 257.005 319.768 256.746C318.068 256.813 320.654 253.716 319.752 254.672C319.41 254.454 318.71 255.881 318.341 255.791C318.908 254.972 319.426 254.38 319.883 254.072C318.959 254.398 319.978 252.364 319.068 253.525V253.525ZM321.569 253.828C319.515 258.783 324.677 258.136 325.21 261.772C326.011 260.95 326.645 260.898 327.23 261.063C327.962 261.919 329.32 264.585 331.232 263.057C330.47 262.652 331.179 261.353 330.808 260.712C329.603 261.92 327.646 261.002 327.698 259.998C329.082 258.21 328.079 260.764 329.179 259.619C327.573 258.826 322.814 258.28 321.569 253.828V253.828ZM331.306 263.796C332.66 264.059 332.564 267.227 334.695 265.379C333.365 265.502 332.69 262.557 331.306 263.796ZM312.376 253.166C311.804 252.832 310.632 253.571 310.428 254.612C310.864 255.111 311.559 254.419 312.376 253.166ZM317.41 257.92C316.878 258.587 316.249 259.68 315.87 259.638C315.282 258.693 313.472 257.184 312.278 257.913C318.161 263.876 325.433 268.54 328.94 272.524C328.709 272.52 328.529 272.267 328.198 272.715C328.604 273.712 329.561 272.178 330.22 272.006C331.49 275.018 335.28 276.047 336.503 278.399C336.298 278.853 336.61 278.99 336.828 279.185C336.763 278.899 336.633 278.65 336.503 278.399C336.57 278.255 336.688 278.076 336.886 277.849C338.678 279.765 340.148 278.408 339.884 281.236C341.118 279.488 341.411 282.083 342.645 280.338C336.349 273.877 324.736 267.418 318.112 261.139C318.647 259.647 319.656 260.844 319.319 259.882C318.255 260.863 319.232 258.419 317.965 259.664C317.68 262.576 317.061 259.669 317.41 257.92V257.92ZM367.484 294.923C368.478 293.286 367.132 293.551 366.261 294.103C366.827 294.716 366.196 296.052 367.425 296.261C368.081 295.516 367.98 294.869 368.428 294.87C369.376 294.989 367.329 296.926 368.444 296.943C369.018 296.094 369.429 295.993 369.726 296.423C371.46 293.782 369.369 292.87 367.484 294.923V294.923ZM374.411 299.566C374.423 297.954 372.569 296.448 371.208 296.045C370.037 300.924 375.054 298.083 374.295 302.239C374.799 301.714 375.242 301.468 375.574 301.724C377.423 299.086 375.611 299.114 374.411 299.566V299.566ZM364.532 297.761C365.558 297.657 364.503 298.821 364.68 299.231C365.346 298.314 365.66 299.016 366.423 297.65C365.83 296.897 365.918 296.444 364.532 297.761V297.761ZM346.665 284.405C351.283 287.611 354.318 292.245 359.905 293.279C356.048 290.317 352.502 286.659 346.665 284.405ZM342.483 276.789C342.589 276.898 342.675 277.021 342.353 277.39C342.022 277.127 341.575 277.396 341.074 277.906C341.571 278.837 342.515 277.721 343.298 277.336C342.6 277.524 343.618 275.492 342.483 276.789ZM344.366 284.239C345.427 282.935 345.827 284.671 346.794 283.803C346.478 283.388 346.921 282.512 346.983 281.866C344.144 283.199 345.447 279.761 342.517 280.935C342.282 283.01 346.556 282.253 344.366 284.239V284.239ZM319.063 270.714C319.274 271.138 318.591 271.283 318.061 272.106C319.707 271.419 317.428 273.963 318.949 273.388C318.712 272.845 319.039 272.376 319.749 271.861C319.558 271.593 319.721 269.847 319.063 270.714ZM355.518 302.719C354.869 303.198 354.082 304.313 353.571 304.163C355.14 301.837 352.46 301.572 351.809 303.672C353.206 302.41 354.002 306.982 357.106 307.222C358.28 303.76 356.397 304.252 355.518 302.719ZM365.662 312.959C366.462 313.141 366.481 316.072 367.698 314.324C367.725 313.638 367.236 310.994 365.662 312.959ZM370.421 316.836C370.179 317.849 371.166 317.963 371.977 317.193C371.704 316.527 371.469 316.174 370.421 316.836ZM371.848 317.79C371.582 319.089 372.967 320.745 374.364 320.168C373.42 319.089 373.344 317.271 371.848 317.79ZM250.67 240.683C251.511 242.351 252.344 243.478 253.929 242.868C253.865 241.684 251.844 240.327 250.67 240.683ZM254.541 243.277C254.848 243.635 255.027 245.379 256.169 244.37C256.31 243.741 255.406 242.435 254.541 243.277ZM236.89 232.135C236.11 230.642 234.03 230.482 232.684 230.001C233.631 231.09 234.51 232.148 236.89 232.135ZM244.224 237.05C246.208 238.217 248.122 240.503 250.596 239.947C247.627 238.705 247.115 236.538 244.224 237.05ZM336.123 293.157C335.827 292.793 335.367 290.418 333.957 292.388C335.205 292.6 334.642 294.464 336.123 293.157ZM351.068 303.862C352.183 302.479 351.447 301.317 350.384 302.716C350.074 304.016 351.336 302.75 351.068 303.862ZM366.127 311.892C363.199 311.852 362.78 307.564 359.144 308.588C361.67 309.757 362.132 313.297 366.127 311.892ZM345.087 299.164C347.193 299.927 347.805 303.762 350.85 301.65C348.557 301.275 348.274 296.521 345.087 299.164ZM294.426 273.456C294.63 274.807 296.177 275.344 295.737 277.085C294.536 275.53 291.771 272.677 289.903 273.862C293.216 277.098 297.293 278.258 299.697 282.49C299.484 282.88 299.044 283.408 299.234 283.554C299.678 282.937 300.125 282.317 300.57 281.698C300.68 282.815 302.4 284.335 303.754 283.148C303.276 279.946 300.531 278.012 298.574 276.923C298.479 277.217 299.07 278.272 298.313 278.125C297.594 276.388 296.101 273.744 294.426 273.456V273.456ZM308.295 284.816C307.145 285.364 307.968 283.546 306.738 284.458C306.951 284.793 306.159 287.027 307.09 286.067C307.002 285.861 307.131 285.522 307.552 285.006C307.813 285.233 308.406 285.425 308.295 284.816V284.816ZM308.702 285.088C308.257 285.706 307.811 286.324 307.365 286.942C310.395 290.83 313.266 291.463 317.084 294.836C316.289 288.413 310.531 290.534 308.702 285.088ZM317.9 295.381C318.186 296.757 322.665 296.977 320.696 298.628C320.487 299.255 323.446 298.307 323.329 298.331C322.019 297.052 319.751 293.971 317.9 295.381ZM324.55 299.152C324.099 299.793 323.721 300.103 323.344 300.406C323.527 300.986 323.062 302.588 324.363 301.087C324.047 300.673 324.489 299.795 324.55 299.152V299.152ZM287.97 277.38C288.511 279.049 290.897 279.595 289.967 282.156C289.634 281.894 289.186 282.165 288.689 282.672C290.635 281.597 287.75 284.96 289.371 283.819C290.444 282.467 292.675 285.855 293.836 284.751C293.515 281.064 291.454 277.396 287.97 277.38ZM279.576 275.192C279.6 279.538 281.634 275.067 283.724 278.66C284.343 276.267 280.52 275.66 283.752 273.174C280.952 275.105 280.004 268.547 277.306 269.541C277.072 270.724 278.183 271.089 277.059 272.814C277.23 272.133 276.242 272.018 275.502 272.461C277.18 273.088 277.505 276.197 279.576 275.192ZM275.633 271.86C275.012 271.852 274.709 270.389 273.872 271.368C274.437 272.083 274.343 273.018 275.633 271.86V271.86ZM190.909 226.757C187.671 225.538 188.176 224.01 184.945 224.132C185.759 225.626 188.153 228.953 190.909 226.757ZM174.498 218.504C175.099 219.094 176.409 219.251 176.202 220.333C176.925 218.33 175.961 217.473 174.498 218.504ZM267.54 282.25C269.749 283.219 269.502 286.33 271.744 284.382C270.413 284.955 269.443 280.479 267.54 282.25ZM285.628 297.814C285.293 298.278 284.958 298.743 284.625 299.205C284.635 299.992 286.391 300.097 285.658 301.964C287.943 299.206 288.097 303.751 290.199 303.628C290.664 300.025 286.843 300.399 285.628 297.814V297.814ZM291.68 303.25C291.075 307.4 295.712 305.804 294.841 310.183C291.256 308.241 289.443 304.206 284.583 302.617C284.634 303.281 285.485 303.458 285.137 304.363C282.723 304.322 282.94 302.358 283.011 300.187C282.251 301.529 281.943 300.801 281.397 301.169C281.593 299.718 281.734 297.477 279.824 298.738C283.849 308.433 297.595 317.326 304.114 321.211C300.881 316.9 296.905 316.697 295.062 312.391C297.908 311.134 296.956 316.926 300.822 314.878C299.325 314.602 298.595 311.938 297.419 311.218C296.596 312.641 295.493 309.533 297.867 308.083C295.917 306.764 292.975 304.975 291.68 303.25V303.25ZM302.526 316.708C304.021 319.406 305.718 319.489 307.821 320.26C306.098 317.972 305.189 315.438 302.526 316.708ZM319.988 329.791C320.575 329.952 321.208 329.902 322.008 329.083C321.427 328.554 320.98 326.599 319.564 327.443C319.426 328.62 320.894 328.821 320.526 329.461C320.385 329.405 320.236 329.37 319.988 329.791ZM323.567 329.436C321.741 331.792 322.524 329.139 321.878 329.682C322.109 330.016 321.287 330.793 320.875 331.073C323.18 330.933 322.319 333.309 325.472 331.402C325.5 332.689 327.466 332.795 326.377 334.761C327.381 334.064 326.783 334.157 327.712 332.907C326.382 332.5 326.425 331.256 325.938 330.338C324.219 332.84 324.034 330.009 323.567 329.436V329.436ZM329.007 334.462C330.703 334.865 329.706 337.103 330.99 337.163C330.692 336.127 332.041 334.095 331.366 333.287C330.174 336.108 330.709 333.013 329.007 334.462V334.462ZM276.654 299.365C276.405 294.488 271.984 293.493 269.567 291.173C269.946 291.618 269.143 292.725 268.433 293.167C271.088 295.744 273.496 298.636 276.654 299.365ZM314.879 324.303C314.444 324.167 314.909 321.782 314.399 323.29C314.504 323.402 314.589 323.523 314.268 323.893C313.422 323.625 313.258 322.944 312.973 322.336C311.712 323.984 314.192 324.703 314.879 324.303V324.303ZM308.805 333.984C308.473 335.494 309.989 333.986 310.566 334.477C310.38 334.733 310.353 335.112 310.769 334.614C311.054 332.93 310.07 333.473 308.805 333.984ZM289.215 219.072C290.708 218.117 289.852 218.641 291.163 217.626C295.782 222.54 298.9 224.511 303.474 228.631C303.164 228.982 302.937 228.955 302.602 229.421C303.348 229.524 305.716 228.572 304.711 231.527C305.146 231.314 305.628 230.888 306.123 230.406C306.308 230.641 305.684 231.368 305.324 231.934C305.552 231.956 305.861 231.605 306.063 231.744C306.977 231.663 305.734 230.873 307.067 230.353C308.228 231.691 306.591 233.468 309.309 231.854C310.085 232.804 309.644 234.922 311.419 233.955C311.655 234.5 311.329 234.97 310.619 235.486C312.738 234.472 312.737 236.417 314.213 237.207C313.632 237.738 313.155 237.778 312.73 237.587C311.744 239.293 313.984 238.004 313.153 239.935C312.196 239.978 311.196 240.987 311.06 239.904C310.409 243.251 314.65 244.832 316.167 245.394C315.285 245.592 314.771 247.956 316.038 245.993C316.093 246.654 315.144 247.925 315.514 248.394C314.64 249.575 314.088 248.421 313.771 249.975C314.368 250.563 315.174 247.976 316.127 248.801C316.326 247.902 315.722 247.486 316.981 245.94C317.205 246.344 317.628 245.835 318.06 245.284C318.159 246.779 315.871 246.621 316.589 247.741C317.938 246.609 319.931 247.26 320.78 247.796C319.814 244.895 316.839 245.679 316.079 242.583C318.225 239.963 318.479 242.245 318.45 243.485C319.055 243.724 318.745 242.5 319.787 241.63C319.805 242.075 321.186 242.758 321.416 242.723C321.356 244.297 319.905 243.338 319.264 244.031C319.618 244.429 320.422 247.094 323.046 243.817C322.66 244.919 321.902 246.247 322.393 246.816C322.6 246.343 322.813 245.867 322.655 245.615C323.933 245.202 321.801 248.157 320.649 248.397C322.087 251.409 327.243 254.164 331.053 257.437C332.91 259.028 335.353 260.442 336.498 262.459C337.211 263.72 341.134 265.897 343.424 267.103C343.597 267.43 342.755 268.378 342.292 269.093C345.523 267.347 345.608 271.452 349.071 272.265C349.254 272.499 348.633 273.225 348.272 273.79C348.506 274.268 350.177 272.951 348.752 274.801C352.763 273.295 354.039 277.348 356.144 278.379C356.438 278.527 357.268 277.771 357.219 277.726C357.612 278.082 357.08 279.883 357.847 280.209C358.746 280.593 358.931 280.991 359.549 282.04C360.107 282.984 361.372 284.728 361.733 284.878C362.016 284.997 362.687 283.899 363.013 284.36C363.273 284.733 362.58 285.59 362.629 286.056C362.815 285.871 364.533 286.844 365.529 286.738C364 288.443 368.693 288.894 369.75 290.94C368.956 291.808 368.484 291.439 368.211 292.659C369.855 292.748 371.568 290.386 370.988 293.834C373.302 292.544 373.094 293.986 374.711 294.956C374.046 295.874 373.732 295.172 372.969 296.537C374.504 294.981 373.773 297.614 375.395 296.103C375.52 296.31 375.228 296.758 374.977 296.949C377.372 295.999 378.923 298.593 379.952 299.844C378.808 300.948 378.879 301.588 378.207 301.426C378.343 302.418 379.409 303.825 377.629 305.16C378.318 304.826 378.53 304.967 378.442 305.709C378.914 305.169 378.945 304.893 378.846 304.699C380.602 307.123 383.426 310.113 384.236 312.343C385.18 311.215 384.624 312.204 385.923 312.099C385.469 312.404 384.95 312.998 384.382 313.816C384.967 313.991 386.085 311.701 386.533 312.51C384.373 315.853 388.88 313.515 387.771 315.401C388.065 315.487 388.553 314.67 388.977 314.148C389.273 315.496 389.807 315.376 391.423 315.786C388.35 316.667 391.003 317.01 392.108 316.932C391.48 318.033 391.243 317.331 390.697 318.05C390.412 319.117 390.938 320.19 392.255 318.406C391.59 321.299 392.785 322.042 393.246 324.574C390.969 325.808 389.098 324.981 386.686 323.612C386.237 323.613 386.34 324.259 385.684 325.004C382.007 324.117 380.125 320.742 375.994 321.259C378.732 327.404 385.743 329.027 389.397 333.685C387.145 334.032 386.333 333.912 384.19 332.944C383.415 334.369 385.046 334.333 384.817 335.426C383.968 336.109 383.493 335.079 382.723 335.398C384.404 338.837 387.775 339.822 391.092 343.07C390.074 344.89 389.944 342.619 388.808 344.979C382.865 339.954 374.491 341.318 373.067 335.799C373.972 334.856 374.339 336.385 375.029 336.43C374.787 333.259 372.007 332.2 369.921 330.94C364.089 327.423 358.188 324.036 352.547 320.671C352.229 321.126 352.536 321.2 352.622 321.408C345.443 319.508 336.417 313.554 332.045 307.616C331.498 307.983 331.19 307.255 330.433 308.597C330.414 305.154 327.449 305.522 325.268 304.443C319.684 301.693 315.892 295.032 310.451 293.139C312.668 291.262 309.958 292.557 309.026 292.184C305.3 290.685 301.408 285.527 297.471 283.063C296.862 286.8 302.427 286.584 302.8 290.761C302.039 292.117 302.08 289.784 301.318 291.142C302.033 296.718 308.155 294.805 308.885 300.341C309.501 300.066 309.349 299.521 310.297 299.223C316.353 301.806 323.28 308.836 329.257 313.997C329.964 314.61 331.527 313.662 332.503 314.108C340.706 317.868 343.676 327.003 351.406 330.219C346.861 329.21 345.077 325.972 339.736 323.771C339.443 323.686 338.955 324.504 338.53 325.028C335.946 323.241 336.081 321.217 334.032 319.949C324.14 313.812 313.704 304.994 301.12 300.634C300.091 300.491 299.939 302.247 299.041 302.68C298.476 299.193 294.292 300.406 294.935 295.802C294.084 295.849 294.559 297.209 294.543 297.602C291.57 297.757 292.749 291.18 288.953 291.106C288.118 292.741 289.338 293.127 288.913 294.516C288.723 294.944 287.524 293.821 287.821 293.096C285.612 295.095 283.128 291.338 281.783 289.735C279.843 291.766 278.318 286.689 275.761 288.45C280.478 293.235 288.604 296.144 292.553 302.459C293.198 301.719 293.026 301.475 292.816 301.258C293.878 300.953 294.41 301.624 293.572 303.141C294.321 303.761 294.02 302.386 294.981 302.024C295.263 302.863 295.241 303.221 295.333 303.634C298.106 303.537 298.904 306.587 300.164 308.249C303.316 311.381 299.362 306.876 297.4 309.147C300.568 313.251 307.104 315.296 309.64 319.414C308.054 321.841 308.913 318.939 307.694 320.857C308.628 322.746 310.639 322.876 311.636 324.191C312.459 322.474 310.444 322.482 312.013 320.313C313.805 321.094 315.152 323.085 316.492 323.32C314.035 326.652 317.369 327.355 319.143 325.094C320.394 324.942 318.615 326.632 319.491 326.705C319.83 326.763 320.362 325.922 320.161 325.778C323.271 327.079 330.201 331.078 332.587 334.108C332.641 334.596 332.251 335.356 331.657 336.237C332.538 336.243 332.613 334.661 333.329 333.92C334.394 336.097 336.862 335.41 336.735 337.576C335.625 339.449 335.346 337.521 334.639 337.549C334.322 338.739 335.297 338.184 333.71 339.676C338.827 342.447 340.018 343.308 344.099 346.641C339.281 347.847 338.03 342.448 333.873 343.223C332.986 340.728 330.557 341.325 329.317 339.483C328.712 339.241 329.021 340.468 327.979 341.338C326.965 341.425 327.488 341.07 326.758 340.517C325.719 341.669 326.533 341.696 326.367 342.318C325.328 343.405 326.115 340.826 324.81 341.963C324.491 344.581 328.428 341.301 329.014 344.092C328.536 345.07 329.391 344.823 328.216 345.619C329.293 346.18 329.169 347.474 330.53 347.86C331.427 348.446 329.988 348.682 329.786 348.051C327.667 347.094 324.129 347.18 324.289 344.362C322.364 345.282 323.455 343.172 322.12 343.597C322.429 342.725 323.312 341.539 324.2 341.551C322.114 337.256 317.154 336.138 313.532 333.715C312.689 337.509 317.591 335.871 317.361 339.721C315.177 339.703 314.079 338.152 312.545 337.179C314.019 335.882 312.104 334.895 311.177 334.886C310.73 334.883 310.829 335.534 310.175 336.277C309.401 334.607 307.706 335.103 306.1 333.546C306.34 332.792 307.15 331.69 306.827 331.279C305.027 334.652 306.678 329.733 304.862 330.652C308.664 327.936 306.345 333.894 309.066 332.784C308.114 329.379 307.075 326.4 303.683 326.422C302.837 327.63 304.201 327.496 302.62 329.151C301.098 328.125 300.814 326.969 298.954 326.692C299.47 326.105 299.742 326.649 300.105 326.774C300.213 322.896 297.112 320.932 294.571 318.941C293.606 319.503 293.588 320.411 293.643 321.068C292.685 322.247 292.301 320.791 291.417 321.64C290.934 314.342 281.798 315.714 281.72 308.264C281.15 309.181 280.49 308.624 279.235 310.034C277.575 309.107 277.147 306.842 274.289 308.093C274.346 304.923 268.721 306.302 271.055 300.424C266.579 302.79 265.115 301.053 262.457 298.101C262.985 297.464 263.184 298.345 263.738 297.582C263.339 296.176 261.824 295.447 260.943 294.332C260.226 295.897 261.764 296.091 262.515 296.763C260.653 299.068 261.221 296.478 259.809 296.327C261.712 291.072 256.866 291.003 254.424 289.964C254.057 290.967 255.224 291.04 255.183 291.845C252.01 292.464 251.847 288.495 249.346 288.623C249.794 288.003 250.238 287.387 250.683 286.768C247.516 283.031 244.015 282.075 239.423 280.594C238.774 280.546 239.148 281.482 238.214 281.849C233.487 278.991 229.068 274.511 223.157 273.817C223.051 274.381 225.444 274.569 223.653 276.9C223.365 275.65 221.289 274.495 221.659 272.123C216.444 269.463 209.932 267.226 204.504 264.061C200.013 261.446 194.765 259.958 190.334 257.314C181.592 252.098 175.526 245.927 168.317 240.491C166.218 238.91 164.611 236.997 164.545 233.149C168.105 229.276 169.225 231.437 172.166 231.38C172.224 230.216 172.981 228.627 172.207 227.968C172.471 227.724 174 226.526 173.544 226.113C177.356 222.218 178.858 225.497 181.831 223.421C182.112 220.53 178.712 221.851 177.073 219.542C176.401 221.252 177.082 222.141 177.979 222.899C175.015 223.473 172.778 220.266 172.053 216.866C174.337 215.329 173.634 218.062 176.111 217.524C177.211 215.049 178.772 215.195 179.862 213.159C179.882 212.105 179.036 211.577 178.494 210.866C179.419 210.543 180.705 208.568 181.517 208.768C182.731 207.162 182.475 206.449 182.708 205.439C182.469 204.948 180.52 207.125 180.833 207.62C179.036 209.241 179.846 204.795 178.127 207.184C179.143 204.929 180.54 205.879 181.559 205.356C182.069 203.83 181.379 203.036 181.397 201.809C182.792 200.894 183.037 202.881 183.638 203.312C184.086 203.313 183.986 202.664 184.64 201.92C183.942 200.187 181.961 197.959 180.958 197.389C182.405 195.317 181.375 197.996 182.443 197.007C182.554 194.463 185.178 190.716 188.035 186.315C189.78 186.237 190.475 185.769 191.554 187.301C192.084 187.037 192.29 186.255 193.299 185.719C194.35 183.439 192.581 182.048 191.58 181.816C193.574 180.136 193.376 177.859 193.162 176.687C194.198 175.139 194.761 175.774 195.649 174.915C198.728 169.108 202.291 170.029 205.389 167.693C210.028 169.309 212.448 174.651 217.073 176.212C218.534 176.707 220.672 176.251 222.077 176.817C225.277 178.098 227.889 180.407 230.968 182.087C240.3 187.185 248.067 193.699 258.25 198.314C261.473 199.774 265.662 201.219 269.031 203.478C274.653 207.246 281.364 209.875 284.455 215.195C284.985 214.931 285.214 214.042 286.07 214.211C285.836 217.122 291.204 214.125 289.215 219.072" fill="#FFE6F9"/>
<path fill-rule="evenodd" clip-rule="evenodd" d="M273.594 128.62C272.506 129.573 273.583 127.371 272.447 128.535C272.646 129.977 271.469 132.254 272.347 133.284C272.546 131.941 273.071 132.022 273.813 130.829C272.542 132.393 272.378 129.601 273.594 128.62V128.62ZM246.231 119.214C245.77 119.067 245.796 120.055 245.359 120.003C242.331 118.077 239.987 114.148 235.45 114.051C234.041 110.743 230.526 109.989 228.043 108.397C226.246 107.246 225.091 104.513 221.742 106.238C225.004 108.928 229.151 110.603 231.391 113.393C235.566 114.63 239.52 118.333 244.559 121.531C244.636 122.007 243.304 123.337 243.631 123.66C244.445 122.777 245.161 122.341 245.78 122.352C252.263 127.565 258.01 131.389 262.224 134.751C262.289 135.257 260.81 138.008 262.24 136.824C262.157 136.568 262.253 134.97 262.836 135.161C264.797 137.926 273.686 141.366 275.148 146.166C274.989 145.914 275.202 145.437 275.409 144.963C278.678 147.668 282.992 148.156 284.446 151.708C282.562 147.62 280.653 142.684 275.801 143.163C276.135 142.699 276.469 142.235 276.803 141.774C274.257 143.348 274.831 138.49 273.806 138.386C268.677 141.147 270.279 135.323 267.082 133.881C264.738 136.111 263.176 133.136 262.878 131.749C257.696 128.649 251.259 124.618 246.231 119.214V119.214ZM287.266 149.473C287.667 150.546 286.447 150.724 285.726 151.191C285.457 152.555 286.702 152.953 287.967 152.693C286.267 152.761 288.853 149.664 287.95 150.62C287.608 150.402 286.908 151.829 286.54 151.739C287.106 150.92 287.624 150.328 288.082 150.02C287.157 150.346 288.177 148.312 287.266 149.473V149.473ZM289.768 149.776C287.714 154.731 292.876 154.084 293.409 157.72C294.21 156.898 294.844 156.846 295.428 157.011C296.161 157.867 297.519 160.533 299.431 159.005C298.669 158.6 299.378 157.301 299.007 156.66C297.802 157.868 295.845 156.95 295.896 155.946C297.28 154.158 296.278 156.712 297.378 155.567C295.772 154.774 291.012 154.228 289.768 149.776V149.776ZM299.504 159.744C300.859 160.007 300.762 163.175 302.894 161.327C301.563 161.45 300.889 158.505 299.504 159.744ZM280.575 149.114C280.003 148.78 278.831 149.519 278.627 150.56C279.063 151.059 279.758 150.367 280.575 149.114ZM285.609 153.868C285.077 154.535 284.448 155.628 284.068 155.586C283.481 154.641 281.67 153.132 280.477 153.861C286.359 159.824 293.632 164.488 297.139 168.472C296.907 168.468 296.728 168.215 296.397 168.663C296.803 169.66 297.759 168.126 298.419 167.954C299.689 170.966 303.479 171.995 304.702 174.347C304.496 174.801 304.809 174.938 305.026 175.133C304.962 174.847 304.832 174.598 304.702 174.347C304.768 174.203 304.886 174.024 305.085 173.797C306.877 175.713 308.346 174.356 308.083 177.184C309.317 175.436 309.61 178.031 310.843 176.286C304.547 169.825 292.934 163.366 286.31 157.087C286.846 155.595 287.855 156.792 287.517 155.83C286.454 156.811 287.431 154.367 286.164 155.612C285.878 158.524 285.26 155.617 285.609 153.868V153.868ZM335.683 190.871C336.677 189.234 335.33 189.499 334.46 190.051C335.026 190.664 334.395 192 335.624 192.209C336.28 191.464 336.178 190.817 336.626 190.818C337.574 190.937 335.528 192.874 336.643 192.891C337.217 192.042 337.628 191.941 337.924 192.371C339.659 189.73 337.568 188.818 335.683 190.871V190.871ZM342.609 195.514C342.622 193.902 340.768 192.396 339.407 191.993C338.236 196.872 343.253 194.031 342.494 198.187C342.997 197.662 343.44 197.416 343.773 197.672C345.622 195.034 343.81 195.062 342.609 195.514V195.514ZM332.73 193.709C333.757 193.605 332.701 194.768 332.879 195.179C333.545 194.262 333.858 194.964 334.622 193.598C334.029 192.845 334.116 192.392 332.73 193.709V193.709ZM314.863 180.353C319.481 183.559 322.517 188.193 328.104 189.227C324.247 186.265 320.7 182.607 314.863 180.353ZM310.682 172.737C310.787 172.846 310.874 172.969 310.552 173.338C310.221 173.075 309.774 173.344 309.273 173.854C309.77 174.785 310.713 173.669 311.497 173.284C310.798 173.472 311.817 171.44 310.682 172.737ZM312.565 180.187C313.626 178.883 314.025 180.619 314.993 179.751C314.676 179.336 315.12 178.46 315.182 177.814C312.342 179.147 313.646 175.709 310.715 176.883C310.48 178.958 314.755 178.201 312.565 180.187V180.187ZM287.262 166.662C287.473 167.086 286.79 167.231 286.26 168.054C287.906 167.367 285.627 169.911 287.148 169.336C286.911 168.793 287.238 168.324 287.948 167.808C287.756 167.541 287.919 165.795 287.262 166.662ZM323.716 198.667C323.068 199.146 322.281 200.261 321.77 200.111C323.338 197.785 320.659 197.52 320.008 199.62C321.404 198.358 322.2 202.93 325.304 203.17C326.478 199.708 324.596 200.2 323.716 198.667ZM333.86 208.907C334.661 209.089 334.679 212.02 335.897 210.272C335.923 209.586 335.434 206.942 333.86 208.907ZM338.62 212.784C338.378 213.797 339.365 213.911 340.175 213.141C339.902 212.475 339.667 212.122 338.62 212.784ZM340.047 213.738C339.78 215.037 341.166 216.693 342.563 216.116C341.619 215.037 341.542 213.219 340.047 213.738ZM218.868 136.631C219.709 138.299 220.543 139.426 222.128 138.816C222.064 137.632 220.043 136.275 218.868 136.631ZM222.739 139.225C223.047 139.583 223.226 141.327 224.368 140.318C224.509 139.689 223.605 138.383 222.739 139.225ZM205.088 128.083C204.308 126.59 202.228 126.43 200.883 125.949C201.83 127.038 202.709 128.096 205.088 128.083ZM212.422 132.998C214.406 134.165 216.32 136.45 218.794 135.895C215.826 134.653 215.314 132.486 212.422 132.998ZM304.322 189.105C304.025 188.74 303.566 186.366 302.156 188.336C303.403 188.547 302.841 190.412 304.322 189.105ZM319.267 199.81C320.381 198.427 319.646 197.265 318.582 198.664C318.273 199.964 319.534 198.698 319.267 199.81ZM334.326 207.84C331.397 207.8 330.978 203.512 327.342 204.536C329.868 205.705 330.331 209.244 334.326 207.84ZM313.286 195.112C315.391 195.875 316.004 199.71 319.049 197.598C316.756 197.223 316.473 192.469 313.286 195.112ZM262.624 169.404C262.829 170.755 264.375 171.292 263.936 173.033C262.735 171.478 259.97 168.625 258.102 169.81C261.414 173.046 265.491 174.206 267.895 178.438C267.682 178.828 267.242 179.356 267.432 179.502C267.877 178.885 268.323 178.265 268.769 177.646C268.878 178.763 270.598 180.283 271.953 179.096C271.475 175.894 268.73 173.959 266.772 172.871C266.678 173.164 267.268 174.22 266.511 174.073C265.792 172.336 264.3 169.692 262.624 169.404V169.404ZM276.494 180.764C275.343 181.311 276.167 179.494 274.937 180.406C275.15 180.741 274.357 182.975 275.288 182.015C275.2 181.809 275.33 181.47 275.751 180.954C276.012 181.181 276.605 181.373 276.494 180.764V180.764ZM276.901 181.035C276.455 181.654 276.01 182.272 275.564 182.89C278.593 186.778 281.465 187.411 285.283 190.784C284.487 184.361 278.73 186.482 276.901 181.035ZM286.099 191.329C286.384 192.705 290.864 192.925 288.895 194.576C288.686 195.203 291.644 194.255 291.528 194.279C290.218 193 287.95 189.919 286.099 191.329ZM292.749 195.1C292.298 195.741 291.919 196.051 291.542 196.354C291.726 196.934 291.261 198.536 292.561 197.035C292.245 196.621 292.688 195.743 292.749 195.1V195.1ZM256.169 173.328C256.71 174.997 259.095 175.543 258.166 178.104C257.833 177.842 257.385 178.113 256.888 178.62C258.834 177.545 255.949 180.908 257.57 179.767C258.643 178.415 260.874 181.803 262.035 180.699C261.714 177.012 259.653 173.344 256.169 173.328ZM247.774 171.14C247.798 175.486 249.833 171.015 251.923 174.608C252.542 172.215 248.719 171.608 251.951 169.122C249.15 171.053 248.203 164.495 245.505 165.489C245.27 166.672 246.382 167.037 245.258 168.762C245.429 168.081 244.441 167.965 243.701 168.409C245.379 169.036 245.704 172.145 247.774 171.14ZM243.831 167.808C243.211 167.8 242.908 166.337 242.071 167.316C242.636 168.031 242.542 168.966 243.831 167.808V167.808ZM159.108 122.705C155.869 121.486 156.375 119.958 153.144 120.08C153.958 121.574 156.352 124.901 159.108 122.705ZM142.697 114.452C143.297 115.042 144.607 115.199 144.401 116.281C145.124 114.278 144.16 113.421 142.697 114.452ZM235.738 178.198C237.948 179.167 237.701 182.278 239.942 180.33C238.612 180.902 237.642 176.427 235.738 178.198ZM253.826 193.762C253.492 194.226 253.156 194.691 252.824 195.153C252.834 195.94 254.589 196.045 253.856 197.912C256.142 195.154 256.296 199.699 258.397 199.576C258.863 195.973 255.042 196.347 253.826 193.762V193.762ZM259.879 199.197C259.273 203.348 263.91 201.752 263.04 206.131C259.454 204.189 257.642 200.154 252.781 198.565C252.833 199.229 253.684 199.406 253.335 200.311C250.922 200.27 251.139 198.306 251.209 196.135C250.45 197.477 250.142 196.749 249.596 197.117C249.792 195.666 249.932 193.425 248.023 194.686C252.048 204.381 265.794 213.274 272.313 217.159C269.08 212.848 265.104 212.645 263.26 208.339C266.107 207.082 265.154 212.874 269.021 210.826C267.524 210.55 266.794 207.886 265.617 207.166C264.794 208.589 263.692 205.481 266.066 204.031C264.116 202.712 261.174 200.923 259.879 199.197V199.197ZM270.725 212.656C272.22 215.354 273.916 215.437 276.02 216.208C274.297 213.92 273.388 211.386 270.725 212.656ZM288.187 225.739C288.774 225.9 289.407 225.85 290.207 225.031C289.626 224.502 289.178 222.547 287.763 223.391C287.625 224.568 289.092 224.769 288.725 225.409C288.583 225.353 288.434 225.318 288.187 225.739ZM291.765 225.384C289.939 227.74 290.722 225.087 290.077 225.63C290.308 225.964 289.486 226.741 289.074 227.021C291.379 226.881 290.518 229.257 293.671 227.35C293.698 228.637 295.664 228.743 294.575 230.709C295.579 230.012 294.981 230.105 295.91 228.855C294.581 228.448 294.624 227.204 294.137 226.286C292.418 228.788 292.233 225.957 291.765 225.384V225.384ZM297.206 230.41C298.901 230.813 297.905 233.051 299.189 233.111C298.891 232.075 300.239 230.043 299.564 229.235C298.372 232.056 298.908 228.961 297.206 230.41V230.41ZM244.852 195.313C244.603 190.436 240.182 189.441 237.766 187.121C238.144 187.566 237.341 188.673 236.631 189.115C239.286 191.692 241.694 194.584 244.852 195.313ZM283.078 220.251C282.642 220.115 283.108 217.73 282.598 219.238C282.703 219.35 282.788 219.471 282.467 219.841C281.621 219.573 281.456 218.892 281.172 218.284C279.91 219.932 282.391 220.651 283.078 220.251V220.251ZM277.004 229.932C276.672 231.442 278.188 229.934 278.765 230.425C278.579 230.681 278.552 231.06 278.968 230.562C279.253 228.878 278.269 229.421 277.004 229.932ZM257.413 115.02C258.906 114.065 258.051 114.589 259.361 113.574C263.981 118.488 267.099 120.459 271.673 124.579C271.363 124.93 271.136 124.903 270.801 125.369C271.547 125.472 273.915 124.52 272.91 127.475C273.345 127.262 273.827 126.836 274.322 126.354C274.506 126.589 273.882 127.316 273.522 127.882C273.75 127.904 274.06 127.553 274.262 127.692C275.176 127.611 273.932 126.821 275.266 126.301C276.426 127.639 274.79 129.416 277.508 127.802C278.284 128.752 277.843 130.87 279.618 129.903C279.854 130.448 279.527 130.918 278.818 131.434C280.936 130.42 280.935 132.365 282.412 133.155C281.831 133.686 281.354 133.726 280.928 133.535C279.943 135.241 282.182 133.952 281.351 135.883C280.395 135.926 279.395 136.935 279.258 135.852C278.608 139.199 282.849 140.779 284.366 141.342C283.484 141.54 282.97 143.904 284.236 141.941C284.292 142.602 283.343 143.873 283.713 144.342C282.839 145.523 282.287 144.369 281.97 145.923C282.567 146.511 283.373 143.924 284.326 144.749C284.524 143.85 283.921 143.434 285.18 141.888C285.404 142.292 285.827 141.783 286.259 141.232C286.358 142.727 284.07 142.569 284.788 143.689C286.136 142.557 288.13 143.208 288.978 143.744C288.012 140.843 285.037 141.627 284.277 138.531C286.424 135.911 286.678 138.193 286.648 139.433C287.254 139.672 286.944 138.448 287.986 137.578C288.004 138.022 289.384 138.706 289.614 138.671C289.555 140.245 288.104 139.286 287.462 139.979C287.817 140.377 288.621 143.042 291.244 139.765C290.858 140.867 290.1 142.195 290.591 142.764C290.799 142.291 291.012 141.815 290.853 141.563C292.131 141.15 290 144.105 288.848 144.345C290.286 147.357 295.442 150.112 299.252 153.385C301.109 154.976 303.551 156.39 304.696 158.407C305.41 159.668 309.332 161.845 311.623 163.051C311.796 163.378 310.953 164.326 310.49 165.041C313.722 163.295 313.807 167.4 317.27 168.213C317.452 168.447 316.831 169.173 316.471 169.738C316.704 170.216 318.376 168.899 316.951 170.748C320.961 169.243 322.238 173.296 324.342 174.327C324.637 174.475 325.467 173.719 325.417 173.674C325.81 174.03 325.278 175.831 326.045 176.157C326.945 176.541 327.129 176.939 327.748 177.988C328.306 178.932 329.571 180.676 329.932 180.826C330.215 180.944 330.885 179.847 331.211 180.308C331.472 180.681 330.779 181.538 330.827 182.004C331.013 181.819 332.732 182.792 333.728 182.686C332.198 184.391 336.892 184.842 337.949 186.888C337.155 187.756 336.682 187.387 336.41 188.607C338.054 188.696 339.767 186.334 339.187 189.782C341.5 188.492 341.292 189.934 342.91 190.904C342.245 191.822 341.931 191.12 341.167 192.485C342.703 190.929 341.972 193.562 343.593 192.051C343.719 192.258 343.427 192.706 343.176 192.897C345.57 191.947 347.121 194.541 348.15 195.792C347.006 196.896 347.077 197.536 346.405 197.374C346.542 198.366 347.608 199.773 345.828 201.108C346.517 200.774 346.729 200.915 346.641 201.657C347.113 201.117 347.144 200.841 347.044 200.647C348.801 203.071 351.625 206.061 352.435 208.29C353.378 207.163 352.822 208.152 354.121 208.046C353.667 208.352 353.148 208.946 352.58 209.764C353.166 209.939 354.284 207.649 354.732 208.458C352.572 211.801 357.079 209.463 355.97 211.349C356.263 211.435 356.752 210.618 357.176 210.096C357.472 211.443 358.006 211.324 359.622 211.734C356.549 212.615 359.201 212.958 360.307 212.88C359.679 213.981 359.441 213.279 358.896 213.998C358.611 215.065 359.136 216.138 360.453 214.354C359.788 217.247 360.983 217.99 361.445 220.522C359.167 221.756 357.297 220.929 354.885 219.56C354.435 219.561 354.539 220.207 353.883 220.952C350.206 220.065 348.324 216.69 344.193 217.207C346.931 223.352 353.941 224.975 357.595 229.633C355.344 229.98 354.532 229.86 352.389 228.892C351.614 230.317 353.245 230.281 353.016 231.374C352.167 232.057 351.691 231.027 350.922 231.346C352.602 234.785 355.974 235.77 359.291 239.018C358.272 240.838 358.143 238.567 357.007 240.927C351.064 235.902 342.689 237.266 341.266 231.747C342.171 230.804 342.538 232.333 343.227 232.378C342.985 229.207 340.205 228.148 338.12 226.888C332.287 223.371 326.387 219.984 320.746 216.619C320.428 217.074 320.735 217.148 320.821 217.356C313.642 215.456 304.616 209.502 300.244 203.564C299.697 203.931 299.388 203.203 298.632 204.545C298.612 201.102 295.648 201.47 293.466 200.391C287.882 197.64 284.091 190.98 278.65 189.087C280.867 187.21 278.157 188.504 277.225 188.131C273.498 186.633 269.606 181.475 265.67 179.01C265.061 182.748 270.626 182.532 270.999 186.709C270.238 188.065 270.279 185.732 269.516 187.09C270.232 192.666 276.353 190.753 277.083 196.289C277.7 196.014 277.547 195.469 278.495 195.171C284.552 197.754 291.479 204.784 297.455 209.945C298.163 210.558 299.726 209.61 300.702 210.056C308.904 213.816 311.875 222.951 319.605 226.167C315.06 225.158 313.276 221.92 307.935 219.719C307.641 219.634 307.153 220.452 306.729 220.976C304.144 219.189 304.28 217.165 302.231 215.897C292.339 209.76 281.903 200.942 269.318 196.582C268.289 196.439 268.138 198.195 267.239 198.628C266.674 195.141 262.491 196.354 263.133 191.75C262.283 191.797 262.757 193.157 262.742 193.55C259.769 193.705 260.948 187.128 257.152 187.054C256.317 188.689 257.537 189.075 257.111 190.464C256.922 190.892 255.723 189.769 256.02 189.044C253.81 191.043 251.327 187.286 249.981 185.683C248.042 187.714 246.517 182.637 243.959 184.398C248.677 189.183 256.803 192.092 260.751 198.407C261.397 197.667 261.225 197.423 261.014 197.206C262.076 196.901 262.609 197.572 261.77 199.089C262.519 199.709 262.219 198.334 263.179 197.972C263.462 198.811 263.439 199.169 263.531 199.582C266.305 199.485 267.103 202.535 268.363 204.197C271.514 207.329 267.561 202.823 265.599 205.095C268.767 209.199 275.303 211.244 277.839 215.361C276.253 217.789 277.111 214.887 275.893 216.805C276.827 218.694 278.837 218.824 279.834 220.139C280.658 218.422 278.643 218.43 280.211 216.261C282.003 217.042 283.351 219.033 284.691 219.268C282.234 222.6 285.568 223.303 287.341 221.042C288.593 220.89 286.814 222.58 287.69 222.653C288.028 222.711 288.561 221.87 288.359 221.726C291.47 223.027 298.399 227.026 300.786 230.056C300.839 230.544 300.449 231.304 299.855 232.185C300.737 232.191 300.811 230.609 301.528 229.867C302.593 232.045 305.061 231.358 304.934 233.524C303.824 235.397 303.545 233.469 302.838 233.497C302.521 234.687 303.496 234.132 301.909 235.624C307.025 238.395 308.216 239.256 312.298 242.589C307.48 243.795 306.229 238.396 302.072 239.171C301.184 236.676 298.755 237.273 297.515 235.431C296.911 235.189 297.219 236.416 296.178 237.286C295.164 237.373 295.687 237.018 294.956 236.465C293.918 237.617 294.732 237.644 294.565 238.266C293.527 239.353 294.314 236.774 293.009 237.911C292.69 240.529 296.627 237.249 297.213 240.04C296.734 241.018 297.589 240.771 296.415 241.567C297.492 242.128 297.367 243.422 298.729 243.808C299.625 244.394 298.187 244.63 297.985 243.998C295.866 243.042 292.328 243.128 292.488 240.31C290.563 241.23 291.653 239.12 290.319 239.545C290.628 238.673 291.511 237.487 292.399 237.499C290.313 233.204 285.352 232.086 281.731 229.663C280.888 233.456 285.79 231.819 285.56 235.669C283.376 235.651 282.278 234.1 280.744 233.127C282.218 231.83 280.303 230.843 279.376 230.834C278.929 230.831 279.027 231.482 278.373 232.225C277.6 230.555 275.905 231.051 274.299 229.494C274.539 228.74 275.349 227.638 275.026 227.227C273.226 230.6 274.877 225.681 273.061 226.6C276.862 223.884 274.544 229.842 277.265 228.732C276.313 225.327 275.274 222.348 271.881 222.37C271.035 223.578 272.4 223.444 270.818 225.099C269.297 224.073 269.013 222.917 267.152 222.64C267.669 222.053 267.94 222.597 268.303 222.722C268.412 218.844 265.311 216.88 262.77 214.889C261.804 215.451 261.787 216.359 261.841 217.016C260.883 218.195 260.5 216.739 259.616 217.588C259.133 210.29 249.996 211.662 249.918 204.212C249.348 205.129 248.689 204.572 247.434 205.982C245.774 205.055 245.346 202.79 242.488 204.041C242.545 200.871 236.92 202.25 239.254 196.372C234.778 198.738 233.314 197.001 230.655 194.049C231.183 193.412 231.383 194.293 231.937 193.53C231.537 192.124 230.023 191.395 229.142 190.28C228.425 191.845 229.963 192.039 230.714 192.711C228.851 195.016 229.419 192.426 228.008 192.275C229.91 187.02 225.065 186.951 222.623 185.912C222.256 186.915 223.423 186.988 223.381 187.793C220.208 188.412 220.046 184.443 217.545 184.571C217.992 183.951 218.436 183.335 218.882 182.716C215.715 178.979 212.214 178.023 207.622 176.542C206.972 176.494 207.347 177.43 206.413 177.797C201.686 174.939 197.267 170.459 191.355 169.765C191.25 170.328 193.643 170.517 191.852 172.848C191.564 171.598 189.487 170.443 189.857 168.071C184.643 165.411 178.131 163.174 172.703 160.009C168.212 157.394 162.964 155.906 158.533 153.262C149.79 148.046 143.725 141.875 136.515 136.439C134.417 134.858 132.81 132.945 132.744 129.097C136.303 125.224 137.424 127.385 140.365 127.328C140.423 126.164 141.18 124.574 140.406 123.916C140.67 123.672 142.198 122.474 141.743 122.061C145.555 118.166 147.056 121.445 150.03 119.369C150.311 116.478 146.911 117.799 145.271 115.49C144.599 117.2 145.281 118.089 146.178 118.847C143.213 119.421 140.977 116.214 140.252 112.814C142.536 111.277 141.833 114.01 144.31 113.472C145.409 110.997 146.971 111.143 148.061 109.107C148.081 108.053 147.235 107.524 146.693 106.814C147.618 106.491 148.903 104.516 149.716 104.716C150.929 103.11 150.674 102.397 150.907 101.387C150.668 100.896 148.718 103.073 149.032 103.568C147.235 105.189 148.045 100.743 146.325 103.132C147.341 100.877 148.738 101.827 149.758 101.304C150.267 99.7785 149.578 98.9839 149.596 97.757C150.99 96.842 151.236 98.8287 151.836 99.2599C152.285 99.2605 152.185 98.612 152.839 97.8683C152.141 96.1347 150.16 93.9068 149.156 93.3372C150.603 91.2645 149.573 93.9437 150.641 92.9546C150.753 90.4114 153.376 86.6645 156.234 82.2626C157.978 82.1854 158.673 81.7173 159.752 83.249C160.283 82.9849 160.489 82.2027 161.498 81.6668C162.549 79.3865 160.78 77.9959 159.778 77.7644C161.773 76.0841 161.575 73.8074 161.361 72.6349C162.396 71.0873 162.96 71.7217 163.847 70.8632C166.927 65.0559 170.49 65.9773 173.587 63.6408C178.227 65.2566 180.647 70.5991 185.272 72.1602C186.733 72.6549 188.871 72.1989 190.276 72.7645C193.476 74.0461 196.088 76.3554 199.167 78.0352C208.498 83.1329 216.265 89.6472 226.448 94.2615C229.671 95.7223 233.86 97.1674 237.23 99.4262C242.852 103.194 249.563 105.823 252.654 111.143C253.184 110.879 253.413 109.99 254.269 110.159C254.034 113.07 259.402 110.073 257.413 115.02" fill="#FFE6F9"/>
<path fill-rule="evenodd" clip-rule="evenodd" d="M133.872 269.681C134.951 268.718 133.894 270.93 135.02 269.756C134.807 268.315 135.963 266.028 135.076 265.006C134.889 266.35 134.364 266.275 133.633 267.474C134.889 265.898 135.079 268.689 133.872 269.681V269.681ZM161.318 278.84C161.781 278.982 161.746 277.995 162.184 278.043C165.229 279.941 167.608 283.849 172.146 283.905C173.585 287.201 177.106 287.922 179.604 289.492C181.411 290.627 182.59 293.349 185.923 291.594C182.638 288.933 178.476 287.296 176.21 284.527C172.024 283.327 168.037 279.66 162.969 276.507C162.889 276.033 164.208 274.69 163.878 274.371C163.072 275.261 162.361 275.703 161.741 275.697C155.212 270.543 149.43 266.771 145.186 263.447C145.116 262.943 146.571 260.178 145.151 261.375C145.237 261.63 145.155 263.228 144.57 263.043C142.585 260.295 133.665 256.937 132.16 252.15C132.32 252.4 132.113 252.879 131.91 253.355C128.616 250.679 124.298 250.23 122.812 246.692C124.733 250.762 126.687 255.681 131.533 255.158C131.204 255.625 130.874 256.092 130.544 256.556C133.076 254.959 132.546 259.822 133.572 259.918C138.676 257.11 137.126 262.948 140.336 264.361C142.66 262.11 144.249 265.071 144.559 266.455C149.769 269.508 156.242 273.481 161.318 278.84V278.84ZM120.012 248.952C119.601 247.883 120.819 247.694 121.536 247.221C121.794 245.854 120.545 245.467 119.282 245.738C120.982 245.655 118.423 248.776 119.318 247.811C119.662 248.026 120.349 246.593 120.718 246.679C120.159 247.503 119.646 248.1 119.192 248.413C120.113 248.078 119.112 250.121 120.012 248.952V248.952ZM117.508 248.672C119.517 243.698 114.361 244.391 113.795 240.761C113.002 241.59 112.368 241.648 111.782 241.487C111.042 240.639 109.66 237.985 107.762 239.53C108.528 239.928 107.83 241.234 108.207 241.871C109.401 240.653 111.366 241.552 111.324 242.557C109.956 244.358 110.936 241.794 109.846 242.95C111.459 243.728 116.223 244.231 117.508 248.672V248.672ZM107.682 238.792C106.325 238.541 106.393 235.372 104.278 237.24C105.607 237.104 106.309 240.043 107.682 238.792ZM126.706 249.251C127.281 249.579 128.447 248.83 128.642 247.788C128.201 247.292 127.512 247.99 126.706 249.251ZM121.63 244.542C122.156 243.87 122.775 242.772 123.155 242.811C123.751 243.75 125.575 245.243 126.761 244.503C120.825 238.593 113.511 233.995 109.968 230.043C110.2 230.045 110.382 230.296 110.709 229.845C110.294 228.852 109.351 230.394 108.693 230.573C107.396 227.572 103.597 226.578 102.352 224.237C102.554 223.78 102.241 223.646 102.021 223.453C102.088 223.739 102.221 223.986 102.352 224.237C102.288 224.381 102.171 224.561 101.975 224.789C100.165 222.89 98.7082 224.26 98.946 221.43C97.7282 223.189 97.4118 220.597 96.1939 222.353C102.548 228.757 114.219 235.111 120.899 241.33C120.377 242.826 119.358 241.639 119.703 242.597C120.758 241.607 119.804 244.06 121.059 242.803C121.318 239.889 121.963 242.79 121.63 244.542V244.542ZM71.2238 207.993C70.2447 209.638 71.589 209.361 72.4544 208.801C71.8831 208.194 72.5014 206.852 71.2706 206.654C70.6218 207.404 70.7291 208.051 70.2809 208.054C69.3319 207.944 71.3606 205.988 70.2455 205.981C69.6797 206.836 69.2694 206.94 68.969 206.513C67.2585 209.17 69.3573 210.062 71.2238 207.993V207.993ZM64.2558 203.412C64.2581 205.024 66.1256 206.513 67.4898 206.904C68.6167 202.015 63.6258 204.901 64.3472 200.738C63.8484 201.268 63.4078 201.517 63.0727 201.265C61.2479 203.919 63.0592 203.875 64.2558 203.412V203.412ZM74.1508 205.128C73.1252 205.241 74.1703 204.068 73.9887 203.659C73.3312 204.583 73.0115 203.883 72.2602 205.256C72.8598 206.004 72.7765 206.457 74.1508 205.128V205.128ZM92.1375 218.322C87.4908 215.158 84.4133 210.552 78.8173 209.568C82.7013 212.495 86.2804 216.121 92.1375 218.322ZM96.3874 225.9C96.2811 225.792 96.1936 225.67 96.5121 225.298C96.8452 225.558 97.2904 225.285 97.7865 224.771C97.2809 223.844 96.3476 224.968 95.5678 225.361C96.2644 225.167 95.2642 227.208 96.3874 225.9ZM94.4377 218.468C93.3879 219.781 92.973 218.048 92.0136 218.925C92.3336 219.337 91.8979 220.218 91.8422 220.864C94.6693 219.506 93.3966 222.955 96.3165 221.754C96.5329 219.678 92.2656 220.473 94.4377 218.468V218.468ZM119.861 231.763C119.646 231.342 120.328 231.19 120.851 230.363C119.211 231.065 121.467 228.5 119.951 229.088C120.193 229.629 119.87 230.101 119.165 230.623C119.359 230.889 119.212 232.637 119.861 231.763ZM83.1198 200.089C83.7637 199.604 84.5404 198.482 85.0529 198.627C83.5055 200.967 86.1872 201.208 86.8197 199.102C85.4343 200.377 84.5972 195.812 81.491 195.6C80.3485 199.073 82.2265 198.563 83.1198 200.089ZM72.8838 189.941C72.0814 189.766 72.0368 186.835 70.835 188.594C70.8145 189.28 71.3276 191.92 72.8838 189.941ZM68.0892 186.107C68.3222 185.092 67.3344 184.986 66.5307 185.764C66.8098 186.428 67.0479 186.778 68.0892 186.107ZM66.654 185.166C66.9086 183.865 65.5081 182.221 64.1163 182.811C65.0704 183.881 65.163 185.699 66.654 185.166ZM188.523 261.176C187.667 259.517 186.823 258.397 185.244 259.021C185.319 260.205 187.352 261.543 188.523 261.176ZM184.629 258.617C184.318 258.262 184.123 256.52 182.99 257.539C182.855 258.17 183.771 259.467 184.629 258.617ZM202.379 269.6C203.173 271.086 205.254 271.227 206.604 271.695C205.648 270.615 204.759 269.565 202.379 269.6ZM195.001 264.751C193.007 263.602 191.072 261.334 188.604 261.912C191.583 263.127 192.114 265.289 195.001 264.751ZM102.6 209.475C102.899 209.837 103.381 212.207 104.772 210.225C103.523 210.025 104.069 208.155 102.6 209.475ZM87.5586 198.906C86.4567 200.299 87.2026 201.454 88.2535 200.045C88.5512 198.742 87.3013 200.02 87.5586 198.906ZM72.4276 191.012C75.3565 191.026 75.8144 195.309 79.4409 194.252C76.9045 193.107 76.4097 189.571 72.4276 191.012ZM93.5815 203.55C91.4695 202.806 90.8227 198.976 87.7967 201.116C90.0928 201.47 90.4188 206.222 93.5815 203.55ZM144.473 228.8C144.256 227.45 142.705 226.928 143.129 225.182C144.344 226.727 147.135 229.555 148.992 228.352C145.65 225.146 141.563 224.024 139.121 219.813C139.33 219.421 139.766 218.889 139.574 218.746C139.136 219.366 138.694 219.991 138.254 220.613C138.135 219.498 136.401 217.993 135.057 219.192C135.565 222.39 138.327 224.299 140.294 225.37C140.386 225.076 139.786 224.025 140.544 224.166C141.279 225.896 142.795 228.527 144.473 228.8V228.8ZM130.502 217.565C131.647 217.007 130.84 218.832 132.062 217.909C131.846 217.576 132.618 215.335 131.696 216.303C131.786 216.508 131.66 216.849 131.243 217.368C130.98 217.143 130.386 216.957 130.502 217.565V217.565ZM130.092 217.297C130.532 216.675 130.972 216.053 131.413 215.431C128.348 211.57 125.471 210.963 121.623 207.625C122.476 214.04 128.215 211.867 130.092 217.297ZM120.802 207.087C120.504 205.714 116.023 205.535 117.977 203.865C118.18 203.237 115.23 204.211 115.346 204.186C116.668 205.453 118.964 208.514 120.802 207.087ZM114.118 203.376C114.563 202.731 114.939 202.418 115.313 202.112C115.125 201.533 115.575 199.927 114.288 201.439C114.608 201.851 114.173 202.732 114.118 203.376V203.376ZM150.893 224.818C150.337 223.154 147.947 222.629 148.853 220.06C149.188 220.318 149.634 220.043 150.127 219.532C148.19 220.625 151.045 217.236 149.434 218.392C148.373 219.753 146.112 216.385 144.961 217.499C145.315 221.183 147.409 224.833 150.893 224.818ZM159.307 226.93C159.244 222.584 157.25 227.073 155.127 223.5C154.53 225.898 158.358 226.471 155.149 228.986C157.932 227.029 158.938 233.578 161.627 232.56C161.851 231.375 160.736 231.02 161.844 229.285C161.68 229.967 162.669 230.074 163.405 229.623C161.721 229.012 161.368 225.906 159.307 226.93ZM163.28 230.225C163.9 230.229 164.217 231.688 165.044 230.702C164.473 229.992 164.559 229.057 163.28 230.225V230.225ZM248.407 274.563C251.656 275.752 251.164 277.285 254.394 277.134C253.567 275.648 251.143 272.342 248.407 274.563ZM264.891 282.668C264.286 282.083 262.974 281.938 263.171 280.854C262.466 282.864 263.438 283.711 264.891 282.668ZM171.279 219.763C169.061 218.814 169.28 215.701 167.056 217.669C168.381 217.085 169.391 221.551 171.279 219.763ZM153.051 204.363C153.381 203.896 153.713 203.428 154.041 202.963C154.024 202.176 152.267 202.087 152.984 200.214C150.723 202.992 150.528 198.449 148.428 198.59C147.995 202.198 151.812 201.789 153.051 204.363V204.363ZM146.949 198.982C147.518 194.827 142.896 196.464 143.727 192.078C147.329 193.987 149.178 198.006 154.053 199.551C153.995 198.888 153.143 198.718 153.483 197.81C155.897 197.829 155.697 199.795 155.647 201.967C156.394 200.618 156.708 201.343 157.251 200.97C157.068 202.423 156.948 204.665 158.846 203.387C154.734 193.728 140.908 184.96 134.354 181.134C137.626 185.416 141.604 185.583 143.486 189.872C140.651 191.155 141.551 185.354 137.703 187.437C139.203 187.7 139.957 190.356 141.14 191.066C141.95 189.636 143.08 192.734 140.72 194.205C142.681 195.506 145.639 197.269 146.949 198.982V198.982ZM135.983 185.622C134.464 182.938 132.766 182.87 130.656 182.119C132.4 184.39 133.332 186.917 135.983 185.622ZM118.404 172.698C117.815 172.541 117.182 172.597 116.39 173.424C116.976 173.947 117.441 175.898 118.849 175.042C118.976 173.863 117.507 173.675 117.869 173.032C118.011 173.087 118.16 173.121 118.404 172.698ZM114.828 173.084C116.633 170.712 115.874 173.372 116.514 172.824C116.281 172.492 117.096 171.708 117.505 171.424C115.201 171.584 116.041 169.201 112.905 171.135C112.866 169.849 110.899 169.761 111.971 167.786C110.973 168.491 111.57 168.392 110.652 169.651C111.985 170.046 111.953 171.29 112.449 172.204C114.145 169.686 114.356 172.516 114.828 173.084V173.084ZM109.342 168.108C107.644 167.72 108.62 165.474 107.335 165.424C107.643 166.458 106.313 168.503 106.995 169.304C108.161 166.473 107.654 169.572 109.342 168.108V168.108ZM162.011 202.732C162.304 207.606 166.733 208.561 169.171 210.859C168.788 210.417 169.581 209.303 170.287 208.855C167.609 206.302 165.175 203.431 162.011 202.732ZM123.562 178.139C123.999 178.271 123.555 180.66 124.051 179.148C123.945 179.037 123.859 178.916 124.177 178.543C125.025 178.804 125.195 179.484 125.486 180.089C126.732 178.43 124.245 177.733 123.562 178.139V178.139ZM129.548 168.404C129.867 166.891 128.364 168.412 127.783 167.927C127.966 167.669 127.99 167.29 127.579 167.792C127.309 169.478 128.288 168.926 129.548 168.404ZM150.174 283.134C148.69 284.103 149.541 283.571 148.24 284.598C143.576 279.725 140.441 277.783 135.829 273.705C136.136 273.351 136.363 273.376 136.694 272.907C135.948 272.81 133.588 273.783 134.567 270.82C134.133 271.037 133.655 271.467 133.165 271.954C132.978 271.72 133.595 270.987 133.95 270.418C133.722 270.398 133.415 270.752 133.212 270.615C132.299 270.704 133.55 271.483 132.221 272.015C131.048 270.688 132.669 268.896 129.965 270.534C129.181 269.591 129.603 267.469 127.837 268.452C127.596 267.909 127.918 267.437 128.623 266.914C126.514 267.947 126.497 266.002 125.014 265.226C125.59 264.69 126.067 264.645 126.493 264.832C127.463 263.118 125.236 264.426 126.049 262.488C127.006 262.437 127.996 261.418 128.143 262.5C128.763 259.147 124.508 257.605 122.986 257.057C123.866 256.85 124.359 254.482 123.11 256.457C123.048 255.796 123.986 254.516 123.611 254.051C124.475 252.862 125.037 254.011 125.341 252.454C124.738 251.872 123.955 254.465 122.995 253.649C122.805 254.55 123.412 254.961 122.167 256.518C121.939 256.116 121.521 256.628 121.094 257.184C120.981 255.689 123.27 255.827 122.542 254.714C121.204 255.858 119.205 255.225 118.352 254.696C119.344 257.589 122.312 256.777 123.099 259.866C120.977 262.506 120.702 260.226 120.721 258.986C120.113 258.752 120.434 259.974 119.4 260.853C119.378 260.409 117.991 259.738 117.762 259.775C117.807 258.2 119.266 259.147 119.902 258.447C119.544 258.052 118.716 255.395 116.122 258.696C116.498 257.59 117.244 256.255 116.748 255.69C116.544 256.166 116.335 256.644 116.496 256.894C115.222 257.319 117.327 254.344 118.477 254.094C117.011 251.096 111.831 248.387 107.992 245.148C106.12 243.574 103.665 242.182 102.502 240.175C101.777 238.921 97.8351 236.779 95.5341 235.595C95.3583 235.269 96.1919 234.313 96.6484 233.594C93.4328 235.369 93.3108 231.265 89.8406 230.484C89.6559 230.251 90.2703 229.52 90.6261 228.951C90.388 228.475 88.7286 229.808 90.1366 227.945C86.14 229.487 84.8267 225.445 82.7131 224.433C82.4173 224.288 81.5943 225.051 81.6442 225.096C81.2479 224.744 81.7638 222.938 80.9938 222.619C80.0906 222.243 79.9027 221.847 79.2752 220.803C78.708 219.864 77.4278 218.132 77.0656 217.986C76.7813 217.869 76.1209 218.973 75.7905 218.515C75.5267 218.144 76.2117 217.281 76.1593 216.815C75.975 217.002 74.2474 216.045 73.2529 216.16C74.7669 214.441 70.0693 214.033 68.9939 211.995C69.7804 211.12 70.2559 211.486 70.5177 210.263C68.8725 210.189 67.1808 212.566 67.7301 209.113C65.4282 210.423 65.6232 208.98 63.9968 208.025C64.6536 207.1 64.9738 207.8 65.7252 206.428C64.2038 207.997 64.9109 205.358 63.3032 206.884C63.1759 206.678 63.464 206.228 63.713 206.034C61.327 207.006 59.753 204.425 58.7125 203.184C59.8465 202.07 59.7698 201.431 60.4431 201.586C60.2975 200.596 59.2193 199.199 60.9873 197.847C60.3013 198.187 60.0882 198.049 60.1689 197.306C59.7021 197.85 59.6734 198.126 59.7748 198.319C57.9967 195.912 55.1456 192.947 54.3152 190.725C53.3821 191.861 53.9293 190.867 52.6314 190.984C53.0825 190.675 53.596 190.076 54.1566 189.253C53.5697 189.083 52.4721 191.383 52.0173 190.578C54.147 187.216 49.6613 189.594 50.7532 187.698C50.4587 187.615 49.9774 188.436 49.5584 188.962C49.2499 187.617 48.7171 187.742 47.098 187.346C50.1628 186.437 47.5072 186.118 46.4024 186.207C47.0203 185.099 47.2644 185.8 47.8035 185.076C48.0789 184.007 47.5434 182.938 46.2427 184.734C46.8814 181.835 45.6799 181.103 45.1956 178.575C47.462 177.321 49.3397 178.131 51.7641 179.478C52.2135 179.472 52.1042 178.828 52.7536 178.077C56.4385 178.931 58.3505 182.288 62.4765 181.735C59.6838 175.614 52.6587 174.055 48.9627 169.43C51.2107 169.063 52.0241 169.175 54.1756 170.124C54.9378 168.692 53.3072 168.743 53.526 167.647C54.3689 166.957 54.8539 167.983 55.6202 167.657C53.9092 164.233 50.529 163.278 47.1829 160.06C48.1848 158.231 48.3344 160.501 49.4491 158.131C55.4373 163.102 63.7993 161.662 65.2727 167.169C64.3763 168.12 63.9955 166.594 63.3054 166.555C63.576 169.724 66.3653 170.758 68.4622 171.999C74.3261 175.463 80.257 178.797 85.9281 182.111C86.242 181.653 85.9342 181.582 85.8466 181.375C93.042 183.209 102.122 189.082 106.547 194.98C107.091 194.608 107.406 195.333 108.15 193.985C108.201 197.427 111.162 197.033 113.353 198.092C118.961 200.792 122.813 207.418 128.271 209.262C126.07 211.159 128.769 209.84 129.704 210.204C133.444 211.67 137.383 216.792 141.341 219.221C141.917 215.478 136.353 215.744 135.943 211.571C136.691 210.208 136.672 212.541 137.422 211.176C136.656 205.607 130.552 207.575 129.772 202.046C129.159 202.326 129.316 202.87 128.37 203.176C122.291 200.648 115.301 193.681 109.278 188.574C108.565 187.968 107.011 188.93 106.031 188.493C97.7943 184.807 94.7414 175.699 86.9826 172.553C91.5368 173.521 93.3499 176.743 98.7104 178.895C99.0049 178.978 99.4856 178.156 99.9054 177.627C102.506 179.391 102.389 181.416 104.449 182.665C114.396 188.713 124.911 197.437 137.534 201.683C138.565 201.816 138.7 200.06 139.595 199.618C140.191 203.1 144.363 201.849 143.763 206.459C144.612 206.405 144.126 205.049 144.138 204.656C147.109 204.474 145.99 211.061 149.786 211.101C150.607 209.458 149.383 209.083 149.796 207.69C149.982 207.261 151.19 208.373 150.9 209.1C153.092 207.082 155.609 210.816 156.969 212.407C158.89 210.359 160.461 215.421 163.002 213.638C158.241 208.895 150.09 206.06 146.084 199.78C145.445 200.527 145.62 200.769 145.832 200.984C144.773 201.299 144.234 200.633 145.059 199.108C144.305 198.495 144.617 199.867 143.66 200.238C143.37 199.402 143.39 199.043 143.294 198.631C140.521 198.753 139.696 195.71 138.421 194.06C135.241 190.956 139.235 195.426 141.176 193.137C137.972 189.062 131.418 187.075 128.844 182.981C130.409 180.539 129.576 183.449 130.778 181.52C129.827 179.639 127.815 179.528 126.806 178.222C125.998 179.946 128.013 179.92 126.464 182.103C124.665 181.338 123.3 179.359 121.958 179.136C124.385 175.783 121.044 175.109 119.291 177.387C118.041 177.55 119.805 175.844 118.928 175.779C118.589 175.723 118.064 176.569 118.267 176.712C115.145 175.439 108.18 171.502 105.766 168.494C105.708 168.006 106.091 167.244 106.677 166.356C105.796 166.359 105.736 167.941 105.026 168.689C103.941 166.522 101.479 167.231 101.587 165.064C102.68 163.181 102.976 165.107 103.683 165.072C103.99 163.879 103.02 164.443 104.593 162.937C99.4515 160.212 98.253 159.362 94.1412 156.066C98.9484 154.816 100.248 160.203 104.398 159.391C105.308 161.878 107.731 161.259 108.988 163.09C109.595 163.326 109.275 162.102 110.308 161.223C111.322 161.127 110.802 161.487 111.538 162.033C112.566 160.871 111.751 160.852 111.912 160.229C112.941 159.132 112.177 161.718 113.472 160.57C113.767 157.948 109.86 161.264 109.249 158.478C109.718 157.496 108.866 157.751 110.033 156.944C108.951 156.393 109.064 155.098 107.699 154.724C106.797 154.146 108.234 153.897 108.441 154.527C110.568 155.464 114.106 155.346 113.971 158.166C115.888 157.229 114.817 159.348 116.147 158.911C115.846 159.786 114.974 160.98 114.086 160.976C116.21 165.251 121.181 166.325 124.824 168.715C125.632 164.914 120.745 166.596 120.941 162.744C123.125 162.742 124.237 164.284 125.779 165.243C124.317 166.553 126.241 167.523 127.169 167.524C127.615 167.522 127.511 166.872 128.158 166.123C128.946 167.787 130.637 167.274 132.257 168.817C132.024 169.574 131.224 170.682 131.551 171.09C133.32 167.701 131.713 172.636 133.521 171.7C129.744 174.45 132.009 168.472 129.298 169.606C130.281 173.002 131.347 175.971 134.739 175.919C135.574 174.704 134.21 174.85 135.777 173.181C137.308 174.193 137.602 175.347 139.465 175.606C138.954 176.198 138.677 175.656 138.313 175.535C138.24 179.413 141.358 181.35 143.917 183.318C144.878 182.747 144.887 181.839 144.827 181.182C145.774 179.995 146.17 181.447 147.047 180.59C147.595 187.884 156.719 186.429 156.865 193.878C157.426 192.956 158.091 193.507 159.333 192.086C161.001 192.998 161.45 195.259 164.297 193.982C164.268 197.153 169.88 195.723 167.599 201.622C172.054 199.215 173.533 200.939 176.218 203.867C175.696 204.509 175.489 203.63 174.942 204.398C175.354 205.8 176.875 206.515 177.766 207.622C178.469 206.051 176.929 205.871 176.172 205.206C178.014 202.884 177.469 205.479 178.882 205.617C177.027 210.889 181.873 210.914 184.324 211.932C184.682 210.925 183.514 210.863 183.549 210.057C186.716 209.409 186.914 213.377 189.414 213.227C188.972 213.85 188.534 214.471 188.094 215.093C191.294 218.802 194.804 219.726 199.409 221.166C200.059 221.207 199.676 220.275 200.606 219.9C205.359 222.715 209.818 227.155 215.736 227.796C215.836 227.231 213.442 227.065 215.212 224.717C215.511 225.965 217.598 227.101 217.249 229.476C222.488 232.089 229.019 234.268 234.476 237.383C238.99 239.957 244.251 241.398 248.706 244.002C257.495 249.139 263.616 255.255 270.874 260.625C272.987 262.188 274.611 264.086 274.712 267.933C271.187 271.838 270.047 269.687 267.107 269.771C267.06 270.936 266.317 272.532 267.097 273.183C266.835 273.429 265.318 274.641 265.777 275.05C262 278.979 260.469 275.714 257.515 277.817C257.26 280.711 260.647 279.359 262.308 281.653C262.964 279.936 262.275 279.054 261.371 278.304C264.33 277.703 266.596 280.89 267.351 284.284C265.081 285.841 265.759 283.101 263.287 283.662C262.21 286.147 260.648 286.015 259.576 288.06C259.565 289.115 260.416 289.636 260.965 290.341C260.042 290.672 258.775 292.659 257.961 292.467C256.762 294.083 257.023 294.794 256.8 295.806C257.043 296.295 258.973 294.101 258.655 293.608C260.437 291.971 259.667 296.425 261.365 294.019C260.369 296.284 258.964 295.347 257.949 295.879C257.454 297.409 258.151 298.197 258.144 299.424C256.757 300.352 256.494 298.367 255.889 297.941C255.441 297.945 255.546 298.592 254.9 299.342C255.613 301.069 257.614 303.279 258.623 303.84C257.194 305.925 258.2 303.237 257.141 304.236C257.053 306.78 254.463 310.55 251.645 314.978C249.902 315.071 249.211 315.545 248.118 314.023C247.59 314.292 247.391 315.076 246.387 315.621C245.357 317.911 247.138 319.285 248.141 319.508C246.162 321.206 246.381 323.481 246.605 324.651C245.584 326.208 245.015 325.579 244.135 326.445C241.108 332.28 237.537 331.391 234.461 333.755C229.807 332.181 227.339 326.861 222.699 325.342C221.234 324.86 219.1 325.335 217.69 324.782C214.479 323.53 211.846 321.244 208.752 319.592C199.375 314.579 191.55 308.135 181.325 303.613C178.089 302.181 173.887 300.774 170.498 298.545C164.842 294.829 158.108 292.261 154.969 286.968C154.441 287.237 154.22 288.128 153.362 287.966C153.571 285.054 148.23 288.099 150.174 283.134" fill="#FFE6F9"/>
</svg>
