<svg preserveAspectRatio="none" width="32" height="50" viewBox="0 0 32 50" fill="none" xmlns="http://www.w3.org/2000/svg">
<path fill-rule="evenodd" clip-rule="evenodd" d="M21.3832 12.1212C21.3832 15.1641 18.8462 17.6309 15.7167 17.6309C12.5871 17.6309 10.0501 15.1641 10.0501 12.1212C10.0501 9.07832 12.5871 6.61157 15.7167 6.61157C18.8462 6.61157 21.3832 9.07832 21.3832 12.1212ZM18.5499 12.1212C18.5499 13.6427 17.2814 14.876 15.7167 14.876C14.1519 14.876 12.8834 13.6427 12.8834 12.1212C12.8834 10.5998 14.1519 9.36639 15.7167 9.36639C17.2814 9.36639 18.5499 10.5998 18.5499 12.1212Z" fill="url(#paint0_radial_20_252)"/>
<path fill-rule="evenodd" clip-rule="evenodd" d="M8.20851 24.7934C8.20851 22.8916 9.79413 21.3499 11.7501 21.3499H20.2499C22.2058 21.3499 23.7915 22.8916 23.7915 24.7934V30.303C23.7915 32.2048 22.2058 33.7466 20.2499 33.7466H11.7501C9.79413 33.7466 8.20851 32.2048 8.20851 30.303V24.7934ZM11.7501 24.1047H20.2499C20.6411 24.1047 20.9582 24.413 20.9582 24.7934V30.303C20.9582 30.6834 20.6411 30.9917 20.2499 30.9917H11.7501C11.3589 30.9917 11.0418 30.6834 11.0418 30.303V24.7934C11.0418 24.413 11.3589 24.1047 11.7501 24.1047Z" fill="url(#paint1_radial_20_252)"/>
<path fill-rule="evenodd" clip-rule="evenodd" d="M14.5834 40.3581V48.6226C14.5834 49.3833 15.2176 50 16 50C16.7824 50 17.4166 49.3833 17.4166 48.6226V40.3581H22.9254L29.4228 49.3804C29.8716 50.0036 30.7549 50.155 31.3958 49.7187C32.0367 49.2824 32.1924 48.4235 31.7437 47.8003L25.9585 39.767C28.4376 38.695 30.1663 36.2793 30.1663 33.4711V6.88705C30.1663 3.08344 26.9951 0 23.0831 0H8.91683C5.00491 0 1.83367 3.08344 1.83367 6.88705V33.4711C1.83367 36.2793 3.56234 38.695 6.04146 39.767L0.256316 47.8003C-0.192441 48.4235 -0.0366849 49.2823 0.604206 49.7187C1.2451 50.155 2.12843 50.0036 2.57719 49.3804L9.07455 40.3581H14.5834ZM23.0831 2.75482H8.91683C6.56968 2.75482 4.66694 4.60488 4.66694 6.88705V33.4711C4.66694 35.7532 6.56968 37.6033 8.91683 37.6033H23.0831C25.4303 37.6033 27.333 35.7532 27.333 33.4711V6.88705C27.333 4.60488 25.4303 2.75482 23.0831 2.75482Z" fill="url(#paint2_radial_20_252)"/>
<defs>
<radialGradient id="paint0_radial_20_252" cx="0" cy="0" r="1" gradientUnits="userSpaceOnUse" gradientTransform="translate(7.29565 50) rotate(-63.692) scale(55.7771 35.3145)">
<stop stop-color="#FEDA77"/>
<stop offset="0.27502" stop-color="#F58529"/>
<stop offset="0.648537" stop-color="#EF0192"/>
<stop offset="0.88342" stop-color="#8101DC"/>
<stop offset="1" stop-color="#512EE0"/>
</radialGradient>
<radialGradient id="paint1_radial_20_252" cx="0" cy="0" r="1" gradientUnits="userSpaceOnUse" gradientTransform="translate(7.29565 50) rotate(-63.692) scale(55.7771 35.3145)">
<stop stop-color="#FEDA77"/>
<stop offset="0.27502" stop-color="#F58529"/>
<stop offset="0.648537" stop-color="#EF0192"/>
<stop offset="0.88342" stop-color="#8101DC"/>
<stop offset="1" stop-color="#512EE0"/>
</radialGradient>
<radialGradient id="paint2_radial_20_252" cx="0" cy="0" r="1" gradientUnits="userSpaceOnUse" gradientTransform="translate(7.29565 50) rotate(-63.692) scale(55.7771 35.3145)">
<stop stop-color="#FEDA77"/>
<stop offset="0.27502" stop-color="#F58529"/>
<stop offset="0.648537" stop-color="#EF0192"/>
<stop offset="0.88342" stop-color="#8101DC"/>
<stop offset="1" stop-color="#512EE0"/>
</radialGradient>
</defs>
</svg>
