<svg preserveAspectRatio="none" width="425" height="430" viewBox="0 0 425 430" fill="none" xmlns="http://www.w3.org/2000/svg">
<path fill-rule="evenodd" clip-rule="evenodd" d="M121.511 196.851C122.588 195.885 121.537 198.1 122.659 196.923C122.443 195.483 123.594 193.193 122.705 192.173C122.521 193.518 121.995 193.444 121.267 194.644C122.52 193.066 122.716 195.856 121.511 196.851V196.851ZM148.979 205.945C149.442 206.086 149.405 205.099 149.843 205.146C152.892 207.037 155.281 210.939 159.819 210.985C161.265 214.277 164.789 214.99 167.289 216.554C169.099 217.684 170.285 220.404 173.614 218.641C170.322 215.988 166.156 214.361 163.884 211.597C159.695 210.407 155.7 206.75 150.625 203.608C150.543 203.134 151.859 201.789 151.528 201.47C150.724 202.362 150.014 202.806 149.394 202.802C142.853 197.663 137.062 193.905 132.81 190.591C132.739 190.086 134.187 187.318 132.771 188.518C132.857 188.773 132.779 190.372 132.194 190.188C130.202 187.445 121.274 184.107 119.757 179.324C119.919 179.574 119.712 180.053 119.51 180.53C116.21 177.862 111.892 177.423 110.397 173.888C112.327 177.954 114.293 182.868 119.138 182.334C118.81 182.802 118.481 183.269 118.153 183.734C120.681 182.131 120.162 186.996 121.188 187.088C126.285 184.269 124.749 190.11 127.963 191.516C130.282 189.259 131.877 192.216 132.191 193.6C137.408 196.641 143.89 200.598 148.979 205.945V205.945ZM107.602 176.155C107.189 175.087 108.407 174.895 109.122 174.42C109.377 173.053 108.127 172.668 106.865 172.943C108.565 172.855 106.013 175.982 106.905 175.015C107.25 175.23 107.933 173.795 108.303 173.881C107.746 174.706 107.234 175.304 106.781 175.617C107.701 175.28 106.705 177.326 107.602 176.155V176.155ZM105.097 175.88C107.095 170.902 101.941 171.608 101.366 167.979C100.575 168.81 99.9413 168.869 99.3548 168.71C98.613 167.863 97.2247 165.212 95.33 166.762C96.0968 167.158 95.4021 168.465 95.7804 169.102C96.9717 167.881 98.9393 168.776 98.899 169.781C97.5356 171.584 98.5092 169.019 97.4222 170.177C99.0368 170.951 103.802 171.443 105.097 175.88V175.88ZM95.2481 166.024C93.8905 165.776 93.9513 162.607 91.8406 164.48C93.1698 164.341 93.8781 167.278 95.2481 166.024ZM114.297 176.438C114.873 176.765 116.037 176.013 116.229 174.97C115.787 174.475 115.1 175.176 114.297 176.438ZM109.21 171.741C109.734 171.068 110.35 169.969 110.731 170.006C111.329 170.944 113.156 172.432 114.341 171.69C108.391 165.794 101.066 161.214 97.514 157.27C97.7455 157.271 97.9281 157.522 98.2537 157.07C97.8368 156.078 96.8976 157.622 96.2401 157.802C94.9361 154.805 91.1344 153.819 89.8844 151.481C90.0851 151.025 89.7713 150.891 89.5514 150.699C89.6187 150.984 89.7519 151.231 89.8844 151.481C89.82 151.626 89.7038 151.806 89.5078 152.035C87.6942 150.14 86.2402 151.513 86.4713 148.683C85.2577 150.444 84.9352 147.853 83.7215 149.612C90.0908 156.001 101.776 162.328 108.471 168.531C107.953 170.028 106.931 168.843 107.279 169.801C108.331 168.808 107.382 171.263 108.634 170.003C108.887 167.089 109.538 169.988 109.21 171.741V171.741ZM58.7175 135.311C57.7423 136.959 59.0859 136.678 59.95 136.116C59.3773 135.511 59.9924 134.167 58.7611 133.972C58.114 134.724 58.2229 135.37 57.7748 135.375C56.8255 135.267 58.8495 133.306 57.7344 133.302C57.1706 134.158 56.7606 134.263 56.4592 133.836C54.755 136.497 56.8559 137.385 58.7175 135.311V135.311ZM51.7387 130.747C51.7448 132.359 53.6158 133.843 54.9809 134.231C56.0962 129.339 51.1122 132.237 51.8237 128.072C51.3262 128.604 50.8862 128.854 50.5505 128.602C48.7319 131.261 50.5431 131.212 51.7387 130.747V130.747ZM61.6377 132.439C60.6124 132.555 61.6547 131.38 61.4721 130.971C60.8168 131.896 60.4955 131.198 59.7474 132.572C60.3488 133.318 60.2666 133.772 61.6377 132.439V132.439ZM79.6555 145.591C75.0013 142.437 71.913 137.839 66.3146 136.868C70.2056 139.786 73.7932 143.404 79.6555 145.591ZM83.9233 153.159C83.8167 153.051 83.729 152.929 84.0466 152.556C84.3803 152.815 84.8248 152.542 85.3197 152.026C84.8119 151.101 83.8813 152.227 83.1024 152.622C83.7985 152.426 82.8031 154.469 83.9233 153.159ZM81.9561 145.731C80.9094 147.047 80.4903 145.315 79.533 146.194C79.854 146.605 79.4204 147.487 79.3662 148.134C82.1901 146.768 80.9256 150.221 83.8426 149.013C84.0541 146.936 79.7887 147.742 81.9561 145.731V145.731ZM107.411 158.967C107.195 158.546 107.877 158.392 108.397 157.564C106.759 158.269 109.009 155.7 107.494 156.291C107.738 156.832 107.416 157.304 106.712 157.828C106.907 158.094 106.763 159.842 107.411 158.967ZM70.5947 127.379C71.2375 126.893 72.0115 125.768 72.5244 125.913C70.9826 128.257 73.6648 128.491 74.2924 126.384C72.9099 127.661 72.0621 123.099 68.9554 122.894C67.8211 126.37 69.6979 125.856 70.5947 127.379ZM60.3348 117.255C59.532 117.082 59.4804 114.152 58.2829 115.913C58.264 116.599 58.7833 119.238 60.3348 117.255ZM55.5312 113.432C55.7617 112.417 54.7737 112.314 53.9719 113.093C54.2526 113.756 54.4915 114.106 55.5312 113.432ZM54.0937 112.495C54.3453 111.193 52.9409 109.553 51.5505 110.146C52.5072 111.214 52.604 113.031 54.0937 112.495ZM176.142 188.217C175.282 186.56 174.436 185.442 172.858 186.07C172.936 187.253 174.972 188.587 176.142 188.217ZM172.242 185.668C171.93 185.313 171.731 183.572 170.601 184.593C170.467 185.224 171.386 186.519 172.242 185.668ZM190.018 196.609C190.815 198.092 192.897 198.228 194.248 198.694C193.289 197.616 192.398 196.568 190.018 196.609ZM182.629 191.777C180.632 190.632 178.692 188.369 176.224 188.953C179.207 190.161 179.743 192.322 182.629 191.777ZM90.0967 136.719C90.3972 137.081 90.884 139.449 92.2712 137.464C91.0215 137.267 91.5625 135.396 90.0967 136.719ZM75.0308 126.186C73.9322 127.581 74.6808 128.735 75.7284 127.323C76.0229 126.02 74.776 127.301 75.0308 126.186ZM59.8812 118.327C62.81 118.334 63.2781 122.617 66.9021 121.551C64.363 120.412 63.8599 116.877 59.8812 118.327ZM81.0646 130.815C78.9509 130.076 78.295 126.248 75.2741 128.395C77.571 128.744 77.9082 133.494 81.0646 130.815ZM132.016 155.945C131.796 154.596 130.243 154.077 130.663 152.33C131.881 153.872 134.679 156.694 136.533 155.487C133.184 152.289 129.094 151.176 126.642 146.971C126.851 146.578 127.285 146.046 127.093 145.903C126.656 146.524 126.216 147.149 125.778 147.773C125.656 146.658 123.918 145.157 122.577 146.359C123.092 149.556 125.859 151.459 127.829 152.525C127.92 152.231 127.317 151.182 128.076 151.32C128.814 153.049 130.337 155.676 132.016 155.945V155.945ZM118.018 144.743C119.162 144.183 118.359 146.01 119.578 145.084C119.362 144.751 120.129 142.508 119.209 143.478C119.299 143.684 119.174 144.024 118.759 144.545C118.495 144.32 117.9 144.135 118.018 144.743V144.743ZM117.608 144.476C118.046 143.853 118.484 143.23 118.924 142.607C115.85 138.754 112.972 138.153 109.116 134.824C109.984 141.237 115.717 139.051 117.608 144.476ZM108.293 134.288C107.992 132.916 103.51 132.747 105.46 131.073C105.662 130.444 102.715 131.425 102.831 131.4C104.156 132.664 106.458 135.72 108.293 134.288ZM101.601 130.593C102.044 129.947 102.419 129.633 102.793 129.326C102.603 128.748 103.049 127.14 101.766 128.656C102.087 129.067 101.654 129.949 101.601 130.593V130.593ZM138.426 151.948C137.866 150.285 135.475 149.766 136.375 147.195C136.711 147.452 137.156 147.176 137.647 146.664C135.713 147.761 138.56 144.365 136.952 145.525C135.894 146.889 133.625 143.526 132.477 144.643C132.84 148.326 134.942 151.971 138.426 151.948ZM146.845 154.04C146.771 149.694 144.788 154.188 142.657 150.62C142.065 153.019 145.895 153.583 142.692 156.106C145.47 154.143 146.492 160.689 149.179 159.665C149.4 158.479 148.284 158.126 149.388 156.389C149.225 157.072 150.214 157.176 150.949 156.724C149.264 156.116 148.904 153.012 146.845 154.04ZM150.826 157.326C151.446 157.328 151.766 158.787 152.591 157.799C152.019 157.09 152.102 156.154 150.826 157.326V157.326ZM236.057 201.463C239.309 202.644 238.821 204.178 242.05 204.019C241.22 202.535 238.788 199.235 236.057 201.463ZM252.561 209.529C251.954 208.945 250.642 208.803 250.836 207.718C250.136 209.73 251.11 210.575 252.561 209.529ZM158.8 146.845C156.58 145.901 156.791 142.788 154.572 144.761C155.896 144.174 156.917 148.637 158.8 146.845ZM140.536 131.488C140.865 131.021 141.195 130.551 141.523 130.086C141.504 129.299 139.747 129.214 140.459 127.339C138.205 130.122 137.999 125.58 135.899 125.726C135.474 129.335 139.291 128.917 140.536 131.488V131.488ZM134.422 126.122C134.98 121.965 130.362 123.613 131.183 119.225C134.79 121.126 136.648 125.14 141.526 126.674C141.467 126.011 140.614 125.843 140.952 124.934C143.366 124.947 143.172 126.914 143.126 129.086C143.87 127.735 144.186 128.459 144.728 128.085C144.548 129.538 144.433 131.781 146.328 130.498C142.194 120.849 128.347 112.113 121.784 108.303C125.066 112.577 129.044 112.735 130.936 117.02C128.105 118.309 128.991 112.507 125.148 114.598C126.648 114.857 127.409 117.512 128.593 118.219C129.4 116.787 130.538 119.883 128.18 121.359C130.145 122.656 133.107 124.412 134.422 126.122V126.122ZM123.424 112.788C121.898 110.106 120.2 110.043 118.088 109.296C119.838 111.564 120.775 114.088 123.424 112.788ZM105.814 99.9046C105.225 99.7496 104.592 99.8069 103.802 100.635C104.389 101.158 104.859 103.107 106.264 102.247C106.389 101.069 104.919 100.884 105.28 100.24C105.422 100.295 105.571 100.328 105.814 99.9046ZM102.239 100.3C104.039 97.9231 103.286 100.585 103.925 100.035C103.69 99.7034 104.503 98.9176 104.912 98.6328C102.609 98.7983 103.442 96.4133 100.312 98.3554C100.27 97.0692 98.3023 96.9856 99.3691 95.0077C98.3729 95.7154 98.97 95.6155 98.0552 96.8763C99.3894 97.2684 99.3601 98.5124 99.8579 99.4248C101.548 96.9034 101.765 99.7321 102.239 100.3V100.3ZM96.7417 95.3364C95.0421 94.9522 96.0128 92.7036 94.7285 92.6576C95.0379 93.6901 93.713 95.7381 94.397 96.5377C95.5569 93.704 95.0569 96.8048 96.7417 95.3364V95.3364ZM149.492 129.835C149.796 134.709 154.228 135.654 156.671 137.946C156.288 137.505 157.078 136.389 157.783 135.939C155.098 133.392 152.658 130.528 149.492 129.835ZM110.985 105.334C111.422 105.465 110.984 107.855 111.476 106.341C111.37 106.23 111.284 106.11 111.601 105.736C112.449 105.995 112.622 106.675 112.913 107.279C114.156 105.617 111.667 104.926 110.985 105.334V105.334ZM116.948 95.5846C117.263 94.0705 115.764 95.5955 115.182 95.1116C115.364 94.8529 115.388 94.4742 114.977 94.9772C114.711 96.6639 115.689 96.11 116.948 95.5846ZM137.845 210.266C136.363 211.238 137.213 210.704 135.914 211.734C131.239 206.873 128.099 204.937 123.478 200.87C123.784 200.515 124.011 200.54 124.341 200.07C123.594 199.976 121.237 200.954 122.208 197.989C121.776 198.206 121.298 198.638 120.809 199.125C120.622 198.892 121.237 198.158 121.591 197.588C121.363 197.568 121.057 197.923 120.854 197.787C119.941 197.878 121.193 198.653 119.866 199.189C118.69 197.864 120.306 196.069 117.607 197.713C116.82 196.773 117.237 194.649 115.473 195.636C115.231 195.094 115.552 194.621 116.256 194.097C114.149 195.134 114.128 193.189 112.642 192.417C113.217 191.879 113.694 191.834 114.121 192.019C115.087 190.303 112.862 191.617 113.671 189.677C114.628 189.623 115.616 188.602 115.765 189.684C116.377 186.33 112.119 184.798 110.595 184.253C111.475 184.044 111.962 181.675 110.718 183.652C110.655 182.992 111.589 181.71 111.214 181.245C112.074 180.054 112.639 181.202 112.939 179.645C112.335 179.063 111.559 181.659 110.596 180.845C110.408 181.747 111.016 182.155 109.775 183.716C109.546 183.315 109.129 183.828 108.704 184.384C108.588 182.89 110.877 183.022 110.146 181.911C108.811 183.058 106.81 182.429 105.955 181.903C106.955 184.793 109.92 183.975 110.715 187.062C108.599 189.706 108.319 187.427 108.334 186.188C107.727 185.955 108.05 187.176 107.019 188.057C106.995 187.613 105.607 186.945 105.377 186.983C105.419 185.408 106.881 186.351 107.514 185.651C107.155 185.256 106.321 182.601 103.735 185.908C104.108 184.801 104.851 183.465 104.354 182.901C104.151 183.377 103.944 183.855 104.105 184.105C102.832 184.533 104.93 181.553 106.079 181.3C104.607 178.306 99.42 175.609 95.5729 172.38C93.6979 170.81 91.2396 169.424 90.0717 167.42C89.3435 166.167 85.3967 164.035 83.0929 162.855C82.9163 162.53 83.7477 161.573 84.2025 160.852C80.9911 162.634 80.8594 158.531 77.3873 157.758C77.2021 157.526 77.8148 156.793 78.1693 156.224C77.93 155.748 76.2738 157.084 77.6773 155.219C73.6844 156.77 72.3615 152.731 70.2456 151.724C69.9494 151.58 69.1282 152.345 69.1782 152.39C68.7811 152.038 69.2927 150.231 68.522 149.914C67.6179 149.54 67.4291 149.144 66.7991 148.102C66.2297 147.165 64.9454 145.435 64.5829 145.29C64.2983 145.174 63.6404 146.279 63.309 145.823C63.0443 145.452 63.7273 144.587 63.6738 144.121C63.49 144.309 61.7601 143.356 60.7658 143.473C62.2758 141.751 57.5772 141.354 56.4971 139.319C57.2815 138.442 57.7578 138.806 58.0167 137.583C56.3714 137.513 54.6853 139.894 55.2264 136.439C52.9276 137.755 53.1193 136.311 51.4906 135.36C52.1452 134.434 52.467 135.133 53.2152 133.759C51.6975 135.332 52.3983 132.691 50.7942 134.22C50.6665 134.015 50.9535 133.564 51.2021 133.37C48.8184 134.348 47.2382 131.771 46.1948 130.532C47.3262 129.415 47.248 128.776 47.9217 128.93C47.7737 127.94 46.6922 126.545 48.4571 125.19C47.7718 125.531 47.5584 125.393 47.6374 124.65C47.1719 125.196 47.1438 125.472 47.2457 125.665C45.4619 123.261 42.6037 120.303 41.7681 118.083C40.8377 119.221 41.3826 118.226 40.0849 118.346C40.5353 118.036 41.0474 117.436 41.606 116.611C41.0187 116.443 39.9265 118.745 39.4698 117.941C41.5916 114.574 37.1115 116.963 38.199 115.064C37.9043 114.982 37.4249 115.805 37.0071 116.332C36.6955 114.988 36.163 115.113 34.543 114.722C37.6056 113.805 34.9493 113.493 33.8446 113.584C34.4599 112.475 34.7057 113.175 35.243 112.449C35.516 111.38 34.9779 110.312 33.6815 112.111C34.3134 109.21 33.1101 108.481 32.6199 105.955C34.8832 104.695 36.7629 105.501 39.1904 106.842C39.6398 106.836 39.529 106.191 40.1766 105.439C43.8635 106.284 45.7834 109.637 49.9082 109.074C47.101 102.96 40.0722 101.417 36.3653 96.8006C38.6125 96.4284 39.4262 96.5391 41.5799 97.4822C42.3387 96.0484 40.7082 96.1032 40.9244 95.0074C41.7656 94.3149 42.253 95.3399 43.0187 95.012C41.2995 91.5919 37.9171 90.6453 34.5634 87.4353C35.5609 85.6041 35.716 87.8732 36.825 85.501C42.825 90.4575 51.1835 88.9984 52.6699 94.501C51.7758 95.4544 51.3913 93.929 50.7012 93.8922C50.9793 97.0604 53.771 98.0881 55.8708 99.3236C61.7429 102.774 67.6817 106.094 73.3605 109.395C73.6734 108.936 73.3655 108.865 73.2773 108.659C80.477 110.476 89.5705 116.328 94.0099 122.215C94.5526 121.842 94.8693 122.566 95.6107 121.216C95.6693 124.658 98.6295 124.257 100.823 125.311C106.438 127.998 110.305 134.614 115.767 136.445C113.571 138.348 116.267 137.022 117.203 137.385C120.946 138.841 124.897 143.954 128.861 146.373C129.428 142.629 123.865 142.908 123.445 138.736C124.19 137.372 124.176 139.705 124.923 138.338C124.144 132.771 118.045 134.754 117.252 129.226C116.639 129.508 116.797 130.051 115.852 130.36C109.767 127.846 102.761 120.896 96.7255 115.803C96.011 115.198 94.4592 116.164 93.4781 115.729C85.2332 112.063 82.1588 102.961 74.3925 99.8338C78.9489 100.791 80.7697 104.009 86.1352 106.148C86.4299 106.23 86.9087 105.407 87.3272 104.878C89.9316 106.635 89.8196 108.661 91.8829 109.905C101.844 115.929 112.38 124.628 125.013 128.844C126.043 128.976 126.175 127.219 127.068 126.775C127.673 130.256 131.842 128.995 131.252 133.606C132.102 133.549 131.613 132.195 131.624 131.802C134.594 131.613 133.49 138.203 137.287 138.233C138.103 136.589 136.879 136.217 137.289 134.823C137.474 134.393 138.685 135.502 138.397 136.23C140.583 134.207 143.109 137.935 144.473 139.522C146.389 137.47 147.972 142.529 150.509 140.739C145.737 136.008 137.579 133.192 133.559 126.922C132.921 127.67 133.096 127.912 133.309 128.126C132.251 128.443 131.71 127.778 132.532 126.252C131.776 125.641 132.092 127.012 131.135 127.385C130.843 126.549 130.862 126.191 130.765 125.779C127.993 125.907 127.16 122.866 125.881 121.22C122.695 118.123 126.699 122.584 128.635 120.29C125.421 116.222 118.862 114.251 116.279 110.163C117.838 107.718 117.012 110.629 118.209 108.697C117.253 106.819 115.241 106.712 114.229 105.409C113.425 107.135 115.44 107.104 113.897 109.291C112.096 108.53 110.726 106.554 109.383 106.335C111.802 102.976 108.46 102.31 106.713 104.592C105.463 104.758 107.223 103.047 106.345 102.985C106.007 102.93 105.484 103.777 105.687 103.919C102.562 102.653 95.5873 98.7333 93.1667 95.7309C93.1072 95.2433 93.4888 94.4795 94.0726 93.5911C93.1911 93.5961 93.1346 95.1779 92.4269 95.9279C91.3365 93.7629 88.8766 94.4777 88.979 92.3108C90.0675 90.4246 90.3684 92.35 91.0751 92.3138C91.3789 91.1196 90.4103 91.6861 91.9803 90.1765C86.8322 87.4634 85.6317 86.6163 81.5121 83.3299C86.3164 82.0693 87.6288 87.4532 91.777 86.6312C92.6924 89.1161 95.1146 88.4916 96.3755 90.3188C96.9828 90.5541 96.6602 89.3306 97.6915 88.4489C98.7044 88.3505 98.1855 88.7115 98.9225 89.2563C99.948 88.0922 99.1334 88.0746 99.293 87.4508C100.319 86.3518 99.5613 88.9401 100.854 87.7883C101.143 85.1662 97.2432 88.4913 96.6252 85.7066C97.0927 84.7232 96.2408 84.9806 97.4058 84.1712C96.3229 83.622 96.4326 82.3271 95.067 81.9564C94.1637 81.3806 95.5993 81.1279 95.8082 81.7575C97.9379 82.6894 101.475 82.5634 101.347 85.383C103.261 84.4417 102.195 86.5634 103.525 86.1233C103.226 86.9989 102.356 88.1952 101.468 88.1927C103.603 92.4635 108.576 93.5256 112.225 95.9072C113.024 92.1042 108.141 93.7975 108.328 89.9453C110.512 89.9381 111.627 91.4767 113.172 92.4325C111.713 93.7462 113.639 94.7111 114.566 94.7097C115.013 94.7072 114.907 94.0573 115.553 93.3068C116.345 94.9686 118.035 94.4525 119.658 95.9914C119.427 96.7484 118.629 97.8588 118.957 98.2662C120.719 94.873 119.123 99.8111 120.929 98.8711C117.159 101.63 119.409 95.6465 116.701 96.787C117.692 100.181 118.765 103.148 122.156 103.088C122.989 101.87 121.626 102.02 123.188 100.347C124.721 101.356 125.018 102.508 126.882 102.764C126.372 103.356 126.094 102.815 125.73 102.695C125.666 106.573 128.789 108.502 131.352 110.465C132.311 109.892 132.318 108.983 132.257 108.327C133.201 107.137 133.601 108.589 134.475 107.729C135.041 115.022 144.162 113.545 144.325 120.994C144.884 120.071 145.55 120.62 146.789 119.196C148.459 120.104 148.913 122.364 151.757 121.081C151.736 124.252 157.345 122.808 155.078 128.712C159.526 126.295 161.01 128.016 163.702 130.937C163.181 131.581 162.972 130.702 162.427 131.471C162.842 132.872 164.365 133.584 165.258 134.688C165.958 133.116 164.418 132.939 163.659 132.276C165.495 129.95 164.957 132.546 166.37 132.681C164.527 137.958 169.373 137.971 171.827 138.983C172.183 137.975 171.014 137.916 171.047 137.11C174.213 136.455 174.42 140.422 176.92 140.266C176.479 140.891 176.042 141.512 175.604 142.136C178.813 145.837 182.325 146.753 186.934 148.181C187.584 148.221 187.198 147.29 188.128 146.912C192.887 149.716 197.357 154.146 203.276 154.772C203.375 154.208 200.98 154.047 202.744 151.695C203.047 152.942 205.136 154.074 204.793 156.449C210.038 159.05 216.574 161.213 222.038 164.316C226.559 166.879 231.823 168.308 236.284 170.901C245.086 176.017 251.221 182.119 258.492 187.472C260.608 189.029 262.237 190.923 262.347 194.771C258.831 198.684 257.686 196.535 254.747 196.626C254.701 197.791 253.963 199.389 254.744 200.039C254.483 200.285 252.968 201.501 253.428 201.909C249.661 205.847 248.122 202.585 245.173 204.695C244.925 207.589 248.309 206.23 249.975 208.519C250.627 206.801 249.936 205.92 249.03 205.173C251.988 204.565 254.261 207.746 255.024 211.138C252.758 212.701 253.43 209.96 250.959 210.527C249.888 213.014 248.325 212.886 247.258 214.933C247.25 215.988 248.102 216.507 248.652 217.211C247.731 217.544 246.468 219.534 245.653 219.344C244.458 220.963 244.722 221.673 244.5 222.686C244.745 223.174 246.669 220.975 246.35 220.483C248.129 218.842 247.369 223.297 249.061 220.888C248.071 223.155 246.663 222.221 245.65 222.756C245.158 224.287 245.857 225.073 245.853 226.3C244.468 227.231 244.201 225.248 243.595 224.823C243.147 224.828 243.254 225.475 242.609 226.226C243.326 227.952 245.332 230.157 246.342 230.715C244.919 232.804 245.918 230.113 244.862 231.115C244.779 233.659 242.199 237.435 239.391 241.869C237.648 241.967 236.958 242.443 235.862 240.923C235.334 241.193 235.137 241.978 234.134 242.525C233.11 244.817 234.894 246.188 235.898 246.408C233.923 248.111 234.146 250.385 234.374 251.555C233.356 253.114 232.786 252.486 231.908 253.355C228.895 259.197 225.322 258.316 222.251 260.688C217.593 259.125 215.113 253.81 210.47 252.302C209.003 251.824 206.871 252.304 205.46 251.754C202.245 250.509 199.607 248.23 196.509 246.585C187.12 241.594 179.28 235.169 169.045 230.671C165.805 229.247 161.6 227.849 158.205 225.629C152.541 221.926 145.8 219.373 142.649 214.088C142.122 214.359 141.903 215.25 141.045 215.09C141.247 212.177 135.913 215.235 137.845 210.266" fill="#FBCCE9"/>
<path fill-rule="evenodd" clip-rule="evenodd" d="M304.461 231.854C303.373 232.808 304.45 230.606 303.314 231.769C303.514 233.212 302.337 235.488 303.214 236.518C303.414 235.176 303.938 235.256 304.68 234.064C303.41 235.628 303.245 232.835 304.461 231.854V231.854ZM277.099 222.448C276.637 222.302 276.663 223.289 276.226 223.238C273.198 221.312 270.854 217.383 266.317 217.286C264.908 213.977 261.393 213.224 258.91 211.632C257.113 210.481 255.958 207.748 252.609 209.473C255.871 212.163 260.018 213.837 262.258 216.627C266.434 217.865 270.387 221.567 275.426 224.766C275.503 225.241 274.171 226.572 274.498 226.894C275.312 226.011 276.028 225.576 276.647 225.587C283.13 230.8 288.877 234.624 293.091 237.986C293.156 238.491 291.677 241.243 293.107 240.058C293.024 239.803 293.121 238.205 293.703 238.396C295.664 241.161 304.553 244.6 306.015 249.4C305.857 249.148 306.069 248.672 306.276 248.198C309.545 250.903 313.859 251.391 315.313 254.943C313.429 250.855 311.52 245.919 306.668 246.398C307.002 245.934 307.336 245.47 307.67 245.009C305.124 246.583 305.698 241.725 304.673 241.62C299.544 244.382 301.147 238.558 297.949 237.116C295.605 239.346 294.043 236.371 293.745 234.984C288.563 231.884 282.126 227.853 277.099 222.448V222.448ZM318.134 252.707C318.534 253.78 317.315 253.958 316.594 254.425C316.324 255.79 317.569 256.188 318.834 255.928C317.134 255.996 319.72 252.898 318.818 253.855C318.476 253.637 317.775 255.064 317.407 254.974C317.973 254.155 318.492 253.563 318.949 253.255C318.024 253.581 319.044 251.547 318.134 252.707V252.707ZM320.635 253.011C318.581 257.966 323.743 257.319 324.276 260.954C325.077 260.133 325.711 260.081 326.296 260.246C327.028 261.101 328.386 263.768 330.298 262.24C329.536 261.835 330.245 260.536 329.874 259.895C328.669 261.102 326.712 260.185 326.764 259.181C328.147 257.392 327.145 259.947 328.245 258.801C326.639 258.009 321.88 257.462 320.635 253.011V253.011ZM330.371 262.978C331.726 263.242 331.629 266.41 333.761 264.561C332.43 264.685 331.756 261.74 330.371 262.978ZM311.442 252.349C310.87 252.015 309.698 252.754 309.494 253.794C309.93 254.294 310.625 253.602 311.442 252.349ZM316.476 257.103C315.944 257.77 315.315 258.862 314.935 258.82C314.348 257.876 312.538 256.367 311.344 257.096C317.227 263.059 324.499 267.723 328.006 271.706C327.775 271.702 327.595 271.449 327.264 271.898C327.67 272.895 328.626 271.361 329.286 271.188C330.556 274.2 334.346 275.229 335.569 277.581C335.363 278.036 335.676 278.173 335.893 278.368C335.829 278.082 335.699 277.833 335.569 277.581C335.635 277.438 335.754 277.259 335.952 277.032C337.744 278.947 339.214 277.591 338.95 280.418C340.184 278.671 340.477 281.265 341.711 279.521C335.414 273.06 323.802 266.6 317.178 260.321C317.713 258.83 318.722 260.026 318.385 259.065C317.321 260.045 318.298 257.602 317.031 258.847C316.746 261.759 316.127 258.852 316.476 257.103V257.103ZM366.55 294.105C367.544 292.469 366.197 292.734 365.327 293.286C365.893 293.898 365.262 295.235 366.491 295.444C367.147 294.699 367.045 294.052 367.494 294.052C368.442 294.171 366.395 296.109 367.51 296.126C368.084 295.276 368.495 295.176 368.792 295.606C370.526 292.964 368.435 292.053 366.55 294.105V294.105ZM373.477 298.749C373.489 297.137 371.635 295.631 370.274 295.228C369.103 300.107 374.12 297.266 373.361 301.422C373.865 300.896 374.307 300.651 374.64 300.907C376.489 298.269 374.677 298.297 373.477 298.749V298.749ZM363.597 296.944C364.624 296.84 363.568 298.003 363.746 298.414C364.412 297.496 364.725 298.198 365.489 296.833C364.896 296.08 364.984 295.627 363.597 296.944V296.944ZM345.73 283.588C350.348 286.794 353.384 291.428 358.971 292.462C355.114 289.5 351.567 285.842 345.73 283.588ZM341.549 275.971C341.654 276.081 341.741 276.203 341.419 276.573C341.088 276.31 340.641 276.578 340.14 277.088C340.637 278.02 341.581 276.904 342.364 276.518C341.666 276.706 342.684 274.674 341.549 275.971ZM343.432 283.421C344.493 282.118 344.893 283.854 345.86 282.986C345.544 282.571 345.987 281.694 346.049 281.048C343.209 282.382 344.513 278.943 341.583 280.118C341.347 282.192 345.622 281.436 343.432 283.421V283.421ZM318.129 269.897C318.34 270.32 317.657 270.466 317.127 271.289C318.773 270.602 316.494 273.146 318.015 272.571C317.778 272.028 318.105 271.559 318.815 271.043C318.624 270.776 318.787 269.029 318.129 269.897ZM354.583 301.902C353.935 302.381 353.148 303.496 352.637 303.346C354.206 301.02 351.526 300.755 350.875 302.855C352.272 301.593 353.067 306.165 356.172 306.405C357.345 302.942 355.463 303.435 354.583 301.902ZM364.727 312.142C365.528 312.324 365.546 315.255 366.764 313.507C366.791 312.821 366.301 310.177 364.727 312.142ZM369.487 316.019C369.245 317.031 370.232 317.146 371.043 316.376C370.769 315.709 370.535 315.357 369.487 316.019ZM370.914 316.973C370.648 318.271 372.033 319.927 373.43 319.351C372.486 318.272 372.41 316.453 370.914 316.973ZM249.736 239.866C250.576 241.533 251.41 242.661 252.995 242.05C252.931 240.867 250.91 239.51 249.736 239.866ZM253.606 242.46C253.914 242.818 254.093 244.562 255.235 243.553C255.376 242.924 254.472 241.618 253.606 242.46ZM235.956 231.317C235.176 229.825 233.096 229.665 231.75 229.184C232.697 230.273 233.576 231.331 235.956 231.317ZM243.29 236.233C245.273 237.4 247.188 239.685 249.661 239.13C246.693 237.888 246.181 235.721 243.29 236.233ZM335.189 292.34C334.893 291.975 334.433 289.601 333.023 291.571C334.271 291.782 333.708 293.647 335.189 292.34ZM350.134 303.044C351.248 301.661 350.513 300.499 349.449 301.899C349.14 303.199 350.401 301.932 350.134 303.044ZM365.193 311.075C362.265 311.034 361.845 306.747 358.21 307.771C360.735 308.94 361.198 312.479 365.193 311.075ZM344.153 298.347C346.258 299.11 346.871 302.945 349.916 300.833C347.623 300.458 347.34 295.703 344.153 298.347ZM293.492 272.638C293.696 273.99 295.243 274.526 294.803 276.268C293.602 274.712 290.837 271.859 288.969 273.045C292.281 276.281 296.358 277.44 298.763 281.673C298.55 282.063 298.109 282.591 298.3 282.736C298.744 282.12 299.191 281.499 299.636 280.881C299.746 281.997 301.465 283.517 302.82 282.331C302.342 279.128 299.597 277.194 297.639 276.105C297.545 276.399 298.135 277.455 297.379 277.308C296.66 275.571 295.167 272.927 293.492 272.638V272.638ZM307.361 283.999C306.21 284.546 307.034 282.728 305.804 283.64C306.017 283.976 305.224 286.209 306.155 285.25C306.067 285.044 306.197 284.704 306.618 284.189C306.879 284.416 307.472 284.608 307.361 283.999V283.999ZM307.768 284.27C307.323 284.889 306.877 285.507 306.431 286.125C309.46 290.013 312.332 290.646 316.15 294.019C315.355 287.596 309.597 289.717 307.768 284.27ZM316.966 294.564C317.252 295.939 321.731 296.159 319.762 297.811C319.553 298.437 322.511 297.49 322.395 297.514C321.085 296.235 318.817 293.153 316.966 294.564ZM323.616 298.335C323.165 298.976 322.787 299.286 322.41 299.588C322.593 300.169 322.128 301.771 323.429 300.27C323.112 299.855 323.555 298.978 323.616 298.335V298.335ZM287.036 276.563C287.577 278.231 289.963 278.778 289.033 281.339C288.7 281.077 288.252 281.348 287.755 281.855C289.701 280.78 286.816 284.143 288.437 283.001C289.51 281.65 291.741 285.038 292.902 283.934C292.581 280.247 290.52 276.579 287.036 276.563ZM278.642 274.375C278.666 278.721 280.7 274.25 282.79 277.842C283.409 275.45 279.586 274.842 282.818 272.356C280.017 274.287 279.07 267.73 276.372 268.723C276.137 269.907 277.249 270.272 276.125 271.997C276.296 271.316 275.308 271.2 274.568 271.644C276.246 272.271 276.571 275.379 278.642 274.375ZM274.699 271.043C274.078 271.035 273.775 269.572 272.938 270.551C273.503 271.265 273.409 272.2 274.699 271.043V271.043ZM189.975 225.939C186.736 224.721 187.242 223.193 184.011 223.315C184.825 224.808 187.219 228.136 189.975 225.939ZM173.564 217.686C174.164 218.277 175.475 218.433 175.268 219.516C175.991 217.512 175.027 216.656 173.564 217.686ZM266.606 281.433C268.815 282.402 268.568 285.513 270.809 283.565C269.479 284.137 268.509 279.662 266.606 281.433ZM284.694 296.997C284.359 297.46 284.024 297.926 283.691 298.388C283.701 299.175 285.457 299.28 284.724 301.146C287.009 298.389 287.163 302.934 289.264 302.811C289.73 299.208 285.909 299.582 284.694 296.997V296.997ZM290.746 302.432C290.141 306.583 294.777 304.987 293.907 309.365C290.321 307.424 288.509 303.388 283.649 301.8C283.7 302.463 284.551 302.641 284.203 303.546C281.789 303.505 282.006 301.541 282.077 299.369C281.317 300.711 281.009 299.984 280.463 300.352C280.659 298.901 280.8 296.659 278.89 297.921C282.915 307.616 296.661 316.509 303.18 320.394C299.947 316.082 295.971 315.879 294.128 311.573C296.974 310.317 296.021 316.108 299.888 314.061C298.391 313.785 297.661 311.121 296.484 310.401C295.662 311.823 294.559 308.715 296.933 307.266C294.983 305.947 292.041 304.157 290.746 302.432V302.432ZM301.592 315.891C303.087 318.589 304.784 318.672 306.887 319.442C305.164 317.155 304.255 314.62 301.592 315.891ZM319.054 328.973C319.641 329.135 320.274 329.085 321.074 328.266C320.493 327.737 320.045 325.782 318.63 326.626C318.492 327.803 319.959 328.004 319.592 328.644C319.45 328.588 319.301 328.552 319.054 328.973ZM322.632 328.619C320.806 330.975 321.59 328.321 320.944 328.864C321.175 329.199 320.353 329.975 319.941 330.255C322.246 330.116 321.385 332.492 324.538 330.585C324.565 331.872 326.532 331.978 325.442 333.943C326.447 333.247 325.848 333.34 326.778 332.09C325.448 331.683 325.491 330.439 325.004 329.521C323.285 332.023 323.1 329.192 322.632 328.619V328.619ZM328.073 333.645C329.769 334.048 328.772 336.285 330.056 336.346C329.758 335.31 331.106 333.277 330.432 332.47C329.24 335.29 329.775 332.195 328.073 333.645V333.645ZM275.719 298.547C275.471 293.67 271.05 292.675 268.633 290.356C269.011 290.801 268.208 291.908 267.499 292.35C270.154 294.927 272.561 297.819 275.719 298.547ZM313.945 323.486C313.509 323.349 313.975 320.965 313.465 322.473C313.57 322.585 313.655 322.706 313.334 323.076C312.488 322.808 312.324 322.126 312.039 321.519C310.777 323.166 313.258 323.885 313.945 323.486V323.486ZM307.871 333.166C307.539 334.677 309.055 333.169 309.632 333.659C309.446 333.916 309.419 334.294 309.835 333.796C310.12 332.113 309.136 332.655 307.871 333.166ZM288.281 218.255C289.773 217.299 288.918 217.824 290.228 216.809C294.848 221.723 297.966 223.694 302.54 227.813C302.23 228.164 302.003 228.137 301.668 228.603C302.414 228.707 304.782 227.755 303.777 230.709C304.212 230.496 304.694 230.07 305.189 229.588C305.373 229.824 304.75 230.551 304.389 231.117C304.617 231.139 304.927 230.787 305.129 230.927C306.043 230.846 304.799 230.056 306.133 229.536C307.294 230.873 305.657 232.651 308.375 231.037C309.151 231.986 308.71 234.105 310.485 233.138C310.721 233.683 310.394 234.152 309.685 234.669C311.803 233.655 311.802 235.6 313.279 236.389C312.698 236.92 312.221 236.961 311.795 236.77C310.81 238.475 313.05 237.187 312.219 239.117C311.262 239.16 310.262 240.17 310.125 239.087C309.475 242.434 313.716 244.014 315.233 244.576C314.351 244.775 313.837 247.138 315.103 245.175C315.159 245.836 314.21 247.108 314.58 247.577C313.706 248.758 313.154 247.603 312.837 249.157C313.434 249.746 314.24 247.159 315.193 247.984C315.392 247.084 314.788 246.669 316.047 245.123C316.271 245.526 316.694 245.018 317.126 244.467C317.225 245.962 314.937 245.804 315.655 246.923C317.004 245.791 318.997 246.443 319.846 246.979C318.879 244.077 315.904 244.862 315.145 241.766C317.291 239.146 317.545 241.428 317.515 242.667C318.121 242.907 317.811 241.682 318.853 240.813C318.871 241.257 320.251 241.941 320.481 241.906C320.422 243.48 318.971 242.52 318.329 243.214C318.684 243.612 319.488 246.277 322.112 243C321.726 244.102 320.968 245.43 321.458 245.999C321.666 245.525 321.879 245.05 321.721 244.798C322.999 244.385 320.867 247.34 319.715 247.58C321.153 250.591 326.309 253.347 330.119 256.62C331.976 258.21 334.418 259.625 335.563 261.642C336.277 262.903 340.2 265.08 342.49 266.285C342.663 266.613 341.82 267.561 341.358 268.276C344.589 266.53 344.674 270.634 348.137 271.447C348.32 271.681 347.699 272.408 347.338 272.973C347.572 273.451 349.243 272.133 347.818 273.983C351.828 272.478 353.105 276.531 355.21 277.562C355.504 277.71 356.334 276.954 356.284 276.909C356.678 277.265 356.145 279.066 356.912 279.391C357.812 279.776 357.997 280.174 358.615 281.223C359.173 282.167 360.438 283.911 360.799 284.06C361.082 284.179 361.752 283.082 362.079 283.542C362.339 283.916 361.646 284.773 361.694 285.239C361.88 285.054 363.599 286.026 364.595 285.92C363.065 287.625 367.759 288.076 368.816 290.123C368.022 290.991 367.55 290.621 367.277 291.842C368.921 291.93 370.634 289.569 370.054 293.017C372.367 291.727 372.159 293.169 373.777 294.139C373.112 295.057 372.798 294.354 372.034 295.72C373.57 294.164 372.839 296.797 374.46 295.286C374.586 295.493 374.294 295.94 374.043 296.132C376.438 295.181 377.988 297.776 379.018 299.026C377.874 300.131 377.945 300.77 377.273 300.609C377.409 301.601 378.475 303.007 376.695 304.343C377.384 304.009 377.596 304.149 377.508 304.891C377.98 304.351 378.011 304.076 377.911 303.882C379.668 306.305 382.492 309.296 383.302 311.525C384.246 310.397 383.689 311.387 384.988 311.281C384.534 311.586 384.016 312.181 383.448 312.999C384.033 313.174 385.151 310.884 385.599 311.693C383.439 315.036 387.946 312.698 386.837 314.584C387.131 314.669 387.619 313.852 388.043 313.33C388.339 314.678 388.873 314.559 390.489 314.969C387.416 315.85 390.068 316.193 391.174 316.114C390.546 317.216 390.308 316.513 389.763 317.233C389.478 318.299 390.004 319.373 391.32 317.589C390.656 320.482 391.851 321.225 392.312 323.757C390.034 324.99 388.164 324.163 385.752 322.795C385.302 322.796 385.406 323.442 384.75 324.186C381.073 323.299 379.191 319.925 375.06 320.441C377.798 326.587 384.808 328.209 388.463 332.868C386.211 333.214 385.399 333.094 383.256 332.127C382.481 333.552 384.112 333.516 383.883 334.609C383.034 335.292 382.559 334.261 381.789 334.58C383.469 338.02 386.841 339.005 390.158 342.253C389.139 344.073 389.01 341.802 387.874 344.161C381.931 339.137 373.556 340.501 372.133 334.982C373.038 334.038 373.405 335.568 374.094 335.613C373.852 332.442 371.073 331.382 368.987 330.123C363.155 326.606 357.254 323.219 351.613 319.853C351.295 320.308 351.602 320.383 351.688 320.59C344.509 318.691 335.483 312.736 331.111 306.799C330.564 307.166 330.256 306.438 329.499 307.779C329.479 304.337 326.515 304.704 324.334 303.626C318.75 300.875 314.958 294.215 309.517 292.322C311.734 290.444 309.024 291.739 308.092 291.366C304.366 289.867 300.474 284.71 296.537 282.245C295.928 285.982 301.493 285.767 301.866 289.944C301.105 291.299 301.146 288.967 300.384 290.325C301.099 295.901 307.221 293.987 307.95 299.524C308.567 299.249 308.415 298.704 309.362 298.406C315.419 300.989 322.346 308.018 328.323 313.18C329.03 313.793 330.593 312.844 331.569 313.291C339.772 317.051 342.742 326.186 350.472 329.402C345.927 328.393 344.143 325.155 338.802 322.954C338.509 322.869 338.02 323.686 337.596 324.211C335.012 322.424 335.147 320.4 333.098 319.132C323.206 312.995 312.77 304.177 300.186 299.817C299.156 299.674 299.005 301.429 298.106 301.863C297.541 298.376 293.358 299.589 294.001 294.984C293.15 295.032 293.624 296.392 293.609 296.785C290.636 296.939 291.815 290.363 288.019 290.289C287.184 291.924 288.404 292.31 287.978 293.699C287.789 294.127 286.59 293.004 286.887 292.279C284.678 294.277 282.194 290.521 280.849 288.918C278.909 290.949 277.384 285.872 274.826 287.633C279.544 292.418 287.67 295.327 291.618 301.642C292.264 300.902 292.092 300.658 291.881 300.441C292.944 300.136 293.476 300.807 292.637 302.324C293.387 302.943 293.086 301.569 294.047 301.207C294.329 302.045 294.307 302.404 294.398 302.817C297.172 302.72 297.97 305.77 299.23 307.431C302.382 310.564 298.428 306.058 296.466 308.329C299.634 312.433 306.17 314.479 308.706 318.596C307.12 321.024 307.979 318.122 306.76 320.04C307.694 321.929 309.705 322.059 310.702 323.374C311.525 321.656 309.51 321.665 311.079 319.496C312.87 320.277 314.218 322.268 315.558 322.503C313.101 325.834 316.435 326.538 318.208 324.276C319.46 324.125 317.681 325.815 318.557 325.887C318.895 325.946 319.428 325.105 319.227 324.96C322.337 326.262 329.266 330.261 331.653 333.291C331.707 333.779 331.316 334.538 330.722 335.42C331.604 335.425 331.678 333.844 332.395 333.102C333.46 335.279 335.928 334.593 335.801 336.758C334.691 338.632 334.412 336.703 333.705 336.731C333.388 337.922 334.363 337.367 332.776 338.858C337.893 341.63 339.083 342.491 343.165 345.824C338.347 347.029 337.096 341.631 332.939 342.406C332.052 339.911 329.622 340.507 328.382 338.666C327.778 338.424 328.087 339.651 327.045 340.521C326.031 340.608 326.554 340.253 325.823 339.7C324.785 340.852 325.599 340.879 325.433 341.501C324.394 342.588 325.181 340.008 323.876 341.145C323.557 343.764 327.494 340.484 328.08 343.275C327.602 344.253 328.456 344.005 327.282 344.802C328.359 345.363 328.234 346.657 329.596 347.043C330.492 347.629 329.054 347.865 328.852 347.233C326.733 346.277 323.195 346.363 323.355 343.545C321.43 344.464 322.52 342.355 321.186 342.78C321.495 341.908 322.378 340.721 323.266 340.734C321.18 336.439 316.219 335.321 312.598 332.898C311.755 336.691 316.657 335.054 316.427 338.903C314.243 338.886 313.145 337.335 311.611 336.361C313.085 335.064 311.17 334.077 310.243 334.068C309.796 334.066 309.895 334.717 309.24 335.46C308.467 333.789 306.772 334.286 305.166 332.729C305.406 331.974 306.216 330.873 305.893 330.462C304.093 333.835 305.744 328.915 303.928 329.835C307.729 327.119 305.411 333.076 308.132 331.967C307.18 328.562 306.141 325.583 302.748 325.605C301.903 326.812 303.267 326.678 301.685 328.333C300.164 327.307 299.88 326.152 298.019 325.875C298.536 325.288 298.808 325.832 299.171 325.956C299.279 322.079 296.178 320.115 293.637 318.123C292.672 318.685 292.654 319.594 292.709 320.251C291.75 321.43 291.367 319.974 290.483 320.823C290 313.525 280.864 314.897 280.785 307.447C280.216 308.364 279.556 307.807 278.301 309.217C276.641 308.29 276.213 306.025 273.355 307.276C273.412 304.105 267.787 305.485 270.121 299.607C265.645 301.973 264.181 300.236 261.523 297.284C262.051 296.646 262.25 297.528 262.804 296.764C262.404 295.359 260.89 294.63 260.009 293.515C259.292 295.08 260.83 295.274 261.581 295.945C259.719 298.251 260.287 295.661 258.875 295.51C260.778 290.255 255.932 290.186 253.49 289.146C253.123 290.15 254.29 290.223 254.249 291.028C251.076 291.647 250.913 287.678 248.412 287.806C248.859 287.186 249.304 286.569 249.749 285.951C246.582 282.213 243.081 281.257 238.489 279.777C237.839 279.729 238.214 280.665 237.28 281.032C232.553 278.174 228.134 273.693 222.223 273C222.117 273.563 224.51 273.751 222.719 276.083C222.431 274.832 220.355 273.677 220.725 271.306C215.51 268.646 208.998 266.408 203.57 263.243C199.079 260.629 193.831 259.141 189.4 256.496C180.657 251.281 174.592 245.11 167.382 239.674C165.284 238.093 163.677 236.18 163.611 232.332C167.171 228.459 168.291 230.62 171.232 230.563C171.29 229.398 172.047 227.809 171.273 227.151C171.537 226.907 173.066 225.709 172.61 225.296C176.422 221.401 177.924 224.68 180.897 222.604C181.178 219.712 177.778 221.033 176.139 218.725C175.467 220.435 176.148 221.324 177.045 222.082C174.081 222.656 171.844 219.449 171.119 216.048C173.403 214.512 172.7 217.245 175.177 216.706C176.277 214.232 177.838 214.378 178.928 212.342C178.948 211.288 178.102 210.759 177.56 210.049C178.485 209.726 179.77 207.751 180.583 207.95C181.796 206.345 181.541 205.632 181.774 204.622C181.535 204.131 179.585 206.307 179.899 206.803C178.102 208.424 178.912 203.977 177.193 206.367C178.209 204.112 179.606 205.061 180.625 204.539C181.134 203.013 180.445 202.219 180.463 200.992C181.858 200.077 182.103 202.063 182.704 202.495C183.152 202.495 183.052 201.847 183.706 201.103C183.008 199.369 181.027 197.142 180.024 196.572C181.47 194.499 180.44 197.178 181.508 196.189C181.62 193.646 184.243 189.899 187.101 185.497C188.846 185.42 189.54 184.952 190.62 186.484C191.15 186.22 191.356 185.437 192.365 184.902C193.416 182.621 191.647 181.231 190.646 180.999C192.64 179.319 192.442 177.042 192.228 175.87C193.263 174.322 193.827 174.956 194.715 174.098C197.794 168.291 201.357 169.212 204.454 166.875C209.094 168.491 211.514 173.834 216.139 175.395C217.6 175.89 219.738 175.434 221.143 175.999C224.343 177.281 226.955 179.59 230.034 181.27C239.366 186.368 247.132 192.882 257.316 197.496C260.539 198.957 264.728 200.402 268.097 202.661C273.719 206.428 280.43 209.057 283.521 214.378C284.051 214.114 284.28 213.224 285.136 213.394C284.901 216.304 290.269 213.308 288.281 218.255" fill="#FBCCE9"/>
<path fill-rule="evenodd" clip-rule="evenodd" d="M272.66 127.802C271.571 128.755 272.648 126.553 271.512 127.717C271.712 129.159 270.535 131.436 271.413 132.466C271.612 131.123 272.136 131.203 272.879 130.011C271.608 131.575 271.444 128.783 272.66 127.802V127.802ZM245.297 118.395C244.835 118.249 244.861 119.236 244.424 119.185C241.396 117.259 239.052 113.33 234.515 113.233C233.106 109.925 229.591 109.171 227.108 107.579C225.311 106.428 224.156 103.695 220.808 105.42C224.069 108.11 228.216 109.785 230.457 112.575C234.632 113.812 238.585 117.515 243.625 120.713C243.701 121.189 242.369 122.519 242.697 122.841C243.511 121.959 244.226 121.523 244.846 121.534C251.328 126.747 257.076 130.571 261.29 133.933C261.355 134.439 259.875 137.19 261.306 136.006C261.223 135.75 261.319 134.152 261.901 134.343C263.862 137.108 272.752 140.548 274.213 145.348C274.055 145.096 274.267 144.619 274.474 144.145C277.743 146.85 282.057 147.338 283.511 150.89C281.628 146.802 279.718 141.866 274.867 142.345C275.2 141.881 275.535 141.417 275.868 140.956C273.322 142.53 273.896 137.672 272.871 137.568C267.742 140.329 269.345 134.505 266.147 133.063C263.803 135.293 262.241 132.318 261.943 130.931C256.761 127.831 250.324 123.8 245.297 118.395V118.395ZM286.332 148.655C286.733 149.728 285.513 149.906 284.792 150.373C284.522 151.737 285.767 152.135 287.033 151.875C285.332 151.943 287.919 148.846 287.016 149.802C286.674 149.584 285.974 151.011 285.605 150.921C286.172 150.102 286.69 149.51 287.147 149.202C286.223 149.528 287.242 147.494 286.332 148.655V148.655ZM288.833 148.958C286.779 153.913 291.941 153.266 292.474 156.902C293.275 156.08 293.909 156.028 294.494 156.193C295.226 157.049 296.584 159.715 298.496 158.187C297.734 157.782 298.444 156.483 298.072 155.842C296.867 157.05 294.91 156.132 294.962 155.128C296.346 153.34 295.343 155.894 296.443 154.749C294.837 153.956 290.078 153.41 288.833 148.958V148.958ZM298.57 158.926C299.924 159.189 299.828 162.357 301.959 160.509C300.629 160.632 299.954 157.687 298.57 158.926ZM279.64 148.296C279.068 147.962 277.896 148.701 277.692 149.741C278.128 150.241 278.824 149.549 279.64 148.296ZM284.674 153.05C284.142 153.717 283.513 154.81 283.134 154.767C282.546 153.823 280.736 152.314 279.542 153.043C285.425 159.006 292.697 163.67 296.204 167.654C295.973 167.649 295.793 167.397 295.462 167.845C295.868 168.842 296.825 167.308 297.484 167.136C298.754 170.148 302.544 171.177 303.768 173.528C303.562 173.983 303.874 174.12 304.092 174.315C304.028 174.029 303.897 173.78 303.768 173.528C303.834 173.385 303.952 173.206 304.15 172.979C305.942 174.894 307.412 173.538 307.149 176.366C308.382 174.618 308.675 177.213 309.909 175.468C303.613 169.007 292 162.548 285.376 156.268C285.911 154.777 286.92 155.974 286.583 155.012C285.519 155.993 286.496 153.549 285.23 154.794C284.944 157.706 284.326 154.799 284.674 153.05V153.05ZM334.748 190.053C335.742 188.416 334.396 188.681 333.525 189.233C334.091 189.846 333.461 191.182 334.69 191.391C335.345 190.646 335.244 189.999 335.692 190C336.64 190.119 334.594 192.056 335.709 192.073C336.282 191.223 336.693 191.123 336.99 191.553C338.724 188.912 336.633 188 334.748 190.053V190.053ZM341.675 194.696C341.687 193.084 339.833 191.578 338.472 191.175C337.301 196.054 342.318 193.213 341.559 197.369C342.063 196.844 342.506 196.598 342.838 196.854C344.687 194.216 342.876 194.244 341.675 194.696V194.696ZM331.796 192.891C332.822 192.787 331.767 193.95 331.945 194.361C332.61 193.444 332.924 194.146 333.687 192.78C333.095 192.027 333.182 191.574 331.796 192.891V192.891ZM313.929 179.535C318.547 182.741 321.583 187.375 327.169 188.409C323.312 185.447 319.766 181.789 313.929 179.535ZM309.747 171.919C309.853 172.028 309.939 172.151 309.617 172.52C309.286 172.257 308.839 172.526 308.338 173.036C308.835 173.967 309.779 172.851 310.562 172.465C309.864 172.654 310.882 170.622 309.747 171.919ZM311.63 179.369C312.692 178.065 313.091 179.801 314.058 178.933C313.742 178.518 314.185 177.642 314.247 176.996C311.408 178.329 312.711 174.891 309.781 176.065C309.546 178.14 313.82 177.383 311.63 179.369V179.369ZM286.327 165.844C286.539 166.268 285.855 166.413 285.325 167.236C286.971 166.549 284.692 169.093 286.213 168.518C285.976 167.975 286.303 167.506 287.014 166.99C286.822 166.723 286.985 164.977 286.327 165.844ZM322.782 197.849C322.133 198.328 321.347 199.443 320.835 199.293C322.404 196.967 319.724 196.702 319.073 198.802C320.47 197.54 321.266 202.112 324.37 202.352C325.544 198.89 323.661 199.382 322.782 197.849ZM332.926 208.089C333.726 208.271 333.745 211.202 334.962 209.454C334.989 208.768 334.5 206.124 332.926 208.089ZM337.685 211.966C337.443 212.979 338.43 213.093 339.241 212.323C338.968 211.657 338.733 211.304 337.685 211.966ZM339.112 212.92C338.846 214.219 340.231 215.875 341.628 215.298C340.684 214.219 340.608 212.401 339.112 212.92ZM217.934 135.813C218.775 137.48 219.608 138.608 221.193 137.998C221.129 136.814 219.108 135.457 217.934 135.813ZM221.805 138.407C222.112 138.765 222.291 140.509 223.433 139.5C223.574 138.871 222.67 137.565 221.805 138.407ZM204.154 127.264C203.374 125.772 201.294 125.612 199.949 125.131C200.895 126.22 201.774 127.278 204.154 127.264ZM211.488 132.18C213.472 133.347 215.386 135.632 217.86 135.077C214.891 133.835 214.379 131.668 211.488 132.18ZM303.387 188.287C303.091 187.922 302.631 185.548 301.221 187.518C302.469 187.729 301.906 189.594 303.387 188.287ZM318.332 198.992C319.447 197.609 318.711 196.447 317.648 197.846C317.338 199.146 318.6 197.88 318.332 198.992ZM333.391 207.022C330.463 206.981 330.044 202.694 326.408 203.718C328.934 204.887 329.397 208.426 333.391 207.022ZM312.352 194.294C314.457 195.057 315.069 198.892 318.114 196.78C315.821 196.405 315.538 191.651 312.352 194.294ZM261.69 168.586C261.894 169.937 263.441 170.474 263.001 172.215C261.801 170.66 259.035 167.807 257.167 168.992C260.48 172.228 264.557 173.388 266.961 177.62C266.748 178.01 266.308 178.538 266.498 178.684C266.942 178.067 267.389 177.447 267.834 176.828C267.944 177.945 269.664 179.465 271.018 178.278C270.54 175.076 267.795 173.141 265.838 172.053C265.743 172.346 266.334 173.402 265.577 173.255C264.858 171.518 263.365 168.874 261.69 168.586V168.586ZM275.559 179.946C274.409 180.493 275.232 178.676 274.003 179.588C274.215 179.923 273.423 182.157 274.354 181.197C274.266 180.991 274.395 180.652 274.816 180.136C275.078 180.363 275.67 180.555 275.559 179.946V179.946ZM275.966 180.217C275.521 180.836 275.075 181.454 274.629 182.072C277.659 185.96 280.53 186.593 284.348 189.966C283.553 183.543 277.795 185.664 275.966 180.217ZM285.164 190.511C285.45 191.887 289.929 192.107 287.96 193.758C287.751 194.385 290.71 193.437 290.593 193.461C289.283 192.182 287.015 189.101 285.164 190.511ZM291.814 194.282C291.363 194.923 290.985 195.233 290.608 195.536C290.791 196.116 290.326 197.718 291.627 196.217C291.311 195.802 291.753 194.925 291.814 194.282V194.282ZM255.234 172.51C255.775 174.179 258.161 174.725 257.231 177.286C256.899 177.024 256.45 177.295 255.953 177.802C257.899 176.727 255.014 180.09 256.636 178.949C257.708 177.597 259.939 180.985 261.1 179.881C260.779 176.194 258.718 172.526 255.234 172.51ZM246.84 170.322C246.864 174.668 248.898 170.197 250.988 173.79C251.607 171.397 247.784 170.79 251.016 168.304C248.216 170.235 247.268 163.677 244.57 164.671C244.336 165.854 245.447 166.219 244.324 167.944C244.494 167.263 243.506 167.147 242.766 167.591C244.444 168.218 244.769 171.326 246.84 170.322ZM242.897 166.99C242.277 166.982 241.973 165.519 241.137 166.498C241.701 167.213 241.607 168.148 242.897 166.99V166.99ZM158.173 121.886C154.935 120.668 155.441 119.14 152.209 119.262C153.023 120.756 155.417 124.083 158.173 121.886ZM141.762 113.633C142.363 114.224 143.673 114.381 143.466 115.463C144.189 113.46 143.225 112.603 141.762 113.633ZM234.804 177.38C237.013 178.349 236.766 181.46 239.008 179.512C237.677 180.084 236.707 175.609 234.804 177.38ZM252.892 192.944C252.557 193.408 252.222 193.873 251.889 194.335C251.899 195.122 253.655 195.227 252.922 197.094C255.207 194.336 255.361 198.881 257.463 198.758C257.928 195.155 254.107 195.529 252.892 192.944V192.944ZM258.945 198.379C258.339 202.53 262.976 200.934 262.105 205.313C258.52 203.371 256.707 199.336 251.847 197.747C251.898 198.411 252.749 198.588 252.401 199.493C249.987 199.452 250.204 197.488 250.275 195.317C249.515 196.659 249.208 195.931 248.661 196.299C248.858 194.848 248.998 192.607 247.089 193.868C251.113 203.563 264.859 212.456 271.378 216.341C268.145 212.029 264.169 211.827 262.326 207.521C265.172 206.264 264.22 212.056 268.086 210.008C266.589 209.732 265.859 207.068 264.683 206.348C263.86 207.771 262.757 204.663 265.131 203.213C263.181 201.894 260.239 200.105 258.945 198.379V198.379ZM269.79 211.838C271.285 214.536 272.982 214.619 275.086 215.39C273.362 213.102 272.453 210.568 269.79 211.838ZM287.252 224.921C287.84 225.082 288.472 225.032 289.273 224.213C288.691 223.684 288.244 221.729 286.828 222.573C286.69 223.75 288.158 223.951 287.79 224.591C287.649 224.535 287.5 224.5 287.252 224.921ZM290.831 224.566C289.005 226.922 289.788 224.269 289.142 224.812C289.373 225.146 288.551 225.923 288.14 226.203C290.444 226.063 289.584 228.439 292.736 226.532C292.764 227.819 294.73 227.925 293.641 229.891C294.645 229.194 294.047 229.287 294.976 228.037C293.646 227.63 293.69 226.386 293.202 225.468C291.483 227.97 291.298 225.139 290.831 224.566V224.566ZM296.272 229.592C297.967 229.995 296.97 232.233 298.254 232.293C297.957 231.257 299.305 229.225 298.63 228.417C297.438 231.238 297.973 228.143 296.272 229.592V229.592ZM243.918 194.495C243.669 189.618 239.248 188.623 236.831 186.303C237.21 186.748 236.407 187.855 235.697 188.297C238.352 190.874 240.76 193.766 243.918 194.495ZM282.143 219.433C281.708 219.297 282.173 216.912 281.664 218.42C281.768 218.532 281.853 218.653 281.532 219.023C280.686 218.755 280.522 218.073 280.237 217.466C278.976 219.114 281.456 219.833 282.143 219.433V219.433ZM276.069 229.114C275.737 230.624 277.254 229.116 277.83 229.607C277.645 229.863 277.617 230.242 278.033 229.743C278.318 228.06 277.334 228.603 276.069 229.114ZM256.479 114.202C257.972 113.246 257.116 113.771 258.427 112.756C263.047 117.67 266.164 119.641 270.739 123.761C270.428 124.112 270.202 124.084 269.867 124.551C270.612 124.654 272.98 123.702 271.975 126.656C272.41 126.444 272.893 126.018 273.387 125.536C273.572 125.771 272.948 126.498 272.588 127.064C272.816 127.086 273.125 126.735 273.328 126.874C274.241 126.793 272.998 126.003 274.331 125.483C275.492 126.821 273.855 128.598 276.573 126.984C277.349 127.934 276.908 130.052 278.683 129.085C278.919 129.63 278.593 130.1 277.883 130.616C280.002 129.602 280.001 131.547 281.477 132.337C280.896 132.868 280.419 132.908 279.994 132.717C279.008 134.422 281.248 133.134 280.417 135.065C279.46 135.108 278.461 136.117 278.324 135.034C277.673 138.381 281.914 139.961 283.431 140.524C282.549 140.722 282.035 143.085 283.302 141.123C283.357 141.784 282.408 143.055 282.778 143.524C281.904 144.705 281.352 143.551 281.035 145.105C281.632 145.693 282.438 143.106 283.391 143.931C283.59 143.032 282.986 142.616 284.245 141.07C284.47 141.474 284.892 140.965 285.324 140.414C285.423 141.909 283.136 141.751 283.853 142.87C285.202 141.738 287.195 142.39 288.044 142.926C287.078 140.024 284.103 140.809 283.343 137.713C285.489 135.093 285.743 137.375 285.714 138.615C286.319 138.854 286.01 137.63 287.051 136.76C287.069 137.204 288.45 137.888 288.68 137.853C288.62 139.427 287.169 138.468 286.528 139.161C286.882 139.559 287.686 142.224 290.31 138.947C289.924 140.049 289.166 141.377 289.657 141.946C289.865 141.473 290.077 140.997 289.919 140.745C291.197 140.332 289.065 143.287 287.913 143.527C289.352 146.538 294.507 149.294 298.317 152.567C300.174 154.158 302.617 155.572 303.762 157.589C304.476 158.85 308.398 161.027 310.688 162.233C310.861 162.56 310.019 163.508 309.556 164.223C312.787 162.477 312.872 166.582 316.335 167.395C316.518 167.629 315.897 168.355 315.536 168.92C315.77 169.398 317.441 168.081 316.016 169.93C320.027 168.425 321.304 172.478 323.408 173.509C323.702 173.657 324.532 172.901 324.483 172.856C324.876 173.212 324.344 175.013 325.111 175.339C326.011 175.723 326.195 176.121 326.813 177.17C327.372 178.114 328.636 179.858 328.997 180.008C329.28 180.126 329.951 179.029 330.277 179.49C330.537 179.863 329.845 180.72 329.893 181.186C330.079 181.001 331.798 181.974 332.793 181.867C331.264 183.573 335.957 184.023 337.014 186.07C336.22 186.938 335.748 186.569 335.475 187.789C337.119 187.878 338.832 185.516 338.252 188.964C340.566 187.674 340.358 189.116 341.975 190.086C341.31 191.004 340.996 190.302 340.233 191.667C341.768 190.111 341.037 192.744 342.659 191.233C342.784 191.44 342.492 191.888 342.241 192.079C344.636 191.129 346.187 193.723 347.216 194.974C346.072 196.078 346.143 196.718 345.471 196.556C345.608 197.548 346.673 198.955 344.893 200.29C345.582 199.956 345.794 200.097 345.706 200.839C346.178 200.298 346.209 200.023 346.11 199.829C347.866 202.253 350.69 205.243 351.501 207.472C352.444 206.345 351.888 207.334 353.187 207.228C352.733 207.534 352.214 208.128 351.646 208.946C352.231 209.121 353.35 206.831 353.797 207.64C351.637 210.983 356.144 208.645 355.035 210.531C355.329 210.617 355.818 209.8 356.241 209.278C356.538 210.625 357.071 210.506 358.687 210.916C355.614 211.797 358.267 212.14 359.372 212.062C358.744 213.163 358.507 212.461 357.961 213.18C357.676 214.247 358.202 215.32 359.519 213.536C358.854 216.429 360.049 217.172 360.51 219.704C358.233 220.938 356.362 220.111 353.95 218.742C353.501 218.743 353.604 219.389 352.948 220.134C349.271 219.247 347.389 215.872 343.258 216.389C345.996 222.534 353.007 224.157 356.661 228.815C354.41 229.162 353.597 229.042 351.454 228.074C350.679 229.499 352.31 229.463 352.082 230.556C351.232 231.239 350.757 230.209 349.988 230.528C351.668 233.967 355.039 234.952 358.356 238.2C357.338 240.02 357.208 237.749 356.072 240.109C350.129 235.084 341.755 236.448 340.331 230.929C341.236 229.986 341.603 231.515 342.293 231.56C342.051 228.389 339.271 227.329 337.185 226.07C331.353 222.553 325.452 219.166 319.811 215.801C319.493 216.256 319.8 216.33 319.886 216.538C312.708 214.638 303.681 208.684 299.309 202.746C298.762 203.113 298.454 202.385 297.697 203.727C297.678 200.284 294.713 200.652 292.532 199.573C286.948 196.822 283.156 190.162 277.715 188.269C279.933 186.392 277.222 187.686 276.29 187.313C272.564 185.815 268.672 180.657 264.735 178.192C264.126 181.93 269.691 181.714 270.064 185.891C269.304 187.247 269.344 184.914 268.582 186.272C269.297 191.848 275.419 189.935 276.149 195.471C276.765 195.196 276.613 194.651 277.561 194.353C283.617 196.936 290.544 203.966 296.521 209.127C297.228 209.74 298.791 208.792 299.767 209.238C307.97 212.998 310.94 222.133 318.671 225.349C314.125 224.34 312.341 221.102 307.001 218.901C306.707 218.816 306.219 219.634 305.794 220.158C303.21 218.371 303.345 216.347 301.296 215.079C291.404 208.942 280.968 200.124 268.384 195.764C267.355 195.621 267.204 197.377 266.305 197.81C265.74 194.323 261.556 195.536 262.199 190.931C261.349 190.979 261.823 192.339 261.807 192.732C258.834 192.887 260.013 186.31 256.217 186.236C255.382 187.871 256.602 188.257 256.177 189.646C255.987 190.074 254.789 188.951 255.085 188.226C252.876 190.225 250.392 186.468 249.047 184.865C247.107 186.896 245.582 181.819 243.025 183.58C247.742 188.365 255.868 191.274 259.817 197.589C260.462 196.849 260.29 196.605 260.08 196.388C261.142 196.083 261.675 196.754 260.836 198.271C261.585 198.891 261.284 197.516 262.245 197.154C262.527 197.993 262.505 198.351 262.597 198.764C265.371 198.667 266.168 201.717 267.428 203.379C270.58 206.511 266.626 202.005 264.665 204.277C267.832 208.381 274.368 210.426 276.905 214.543C275.318 216.971 276.177 214.069 274.958 215.987C275.892 217.876 277.903 218.006 278.9 219.321C279.723 217.604 277.708 217.612 279.277 215.443C281.069 216.224 282.416 218.215 283.756 218.45C281.299 221.781 284.633 222.485 286.407 220.224C287.658 220.072 285.879 221.762 286.756 221.835C287.094 221.893 287.626 221.052 287.425 220.908C290.535 222.209 297.465 226.208 299.851 229.238C299.905 229.726 299.515 230.486 298.921 231.367C299.802 231.372 299.877 229.791 300.593 229.049C301.659 231.227 304.126 230.54 303.999 232.706C302.89 234.579 302.611 232.651 301.903 232.679C301.586 233.869 302.561 233.314 300.974 234.806C306.091 237.577 307.282 238.438 311.364 241.771C306.545 242.977 305.294 237.578 301.137 238.353C300.25 235.858 297.821 236.455 296.581 234.613C295.976 234.371 296.285 235.598 295.243 236.468C294.23 236.555 294.753 236.2 294.022 235.647C292.983 236.799 293.797 236.826 293.631 237.448C292.592 238.535 293.379 235.956 292.074 237.093C291.755 239.711 295.692 236.431 296.278 239.222C295.8 240.2 296.655 239.953 295.481 240.749C296.557 241.31 296.433 242.604 297.794 242.99C298.691 243.576 297.252 243.812 297.051 243.18C294.932 242.224 291.393 242.31 291.553 239.492C289.628 240.412 290.719 238.302 289.384 238.727C289.693 237.855 290.576 236.669 291.464 236.681C289.378 232.386 284.418 231.268 280.796 228.845C279.953 232.638 284.855 231.001 284.625 234.851C282.441 234.833 281.343 233.282 279.81 232.309C281.283 231.011 279.368 230.025 278.441 230.016C277.994 230.013 278.093 230.664 277.439 231.407C276.666 229.736 274.97 230.233 273.364 228.676C273.604 227.922 274.414 226.82 274.091 226.409C272.291 229.782 273.943 224.863 272.126 225.782C275.928 223.066 273.609 229.024 276.33 227.914C275.378 224.509 274.339 221.53 270.947 221.552C270.101 222.76 271.465 222.626 269.884 224.281C268.362 223.254 268.078 222.099 266.218 221.822C266.735 221.235 267.006 221.779 267.369 221.904C267.477 218.026 264.376 216.062 261.836 214.07C260.87 214.633 260.853 215.541 260.907 216.198C259.949 217.377 259.565 215.921 258.681 216.77C258.199 209.472 249.062 210.844 248.984 203.394C248.414 204.311 247.754 203.754 246.5 205.164C244.839 204.237 244.412 201.972 241.553 203.223C241.61 200.053 235.985 201.432 238.319 195.554C233.843 197.92 232.379 196.183 229.721 193.231C230.249 192.594 230.448 193.475 231.002 192.712C230.603 191.306 229.088 190.577 228.207 189.462C227.49 191.027 229.028 191.221 229.78 191.893C227.917 194.198 228.485 191.608 227.073 191.457C228.976 186.202 224.13 186.133 221.688 185.093C221.321 186.097 222.488 186.17 222.447 186.975C219.274 187.594 219.112 183.625 216.61 183.753C217.058 183.133 217.502 182.517 217.947 181.898C214.781 178.161 211.279 177.205 206.687 175.724C206.038 175.676 206.412 176.612 205.479 176.979C200.751 174.121 196.332 169.641 190.421 168.947C190.315 169.51 192.708 169.699 190.917 172.03C190.629 170.78 188.553 169.624 188.923 167.253C183.708 164.593 177.197 162.356 171.768 159.191C167.277 156.576 162.03 155.088 157.598 152.443C148.856 147.228 142.79 141.057 135.581 135.621C133.482 134.04 131.875 132.127 131.809 128.279C135.369 124.406 136.489 126.567 139.43 126.51C139.488 125.345 140.245 123.756 139.471 123.098C139.735 122.854 141.264 121.656 140.808 121.243C144.62 117.348 146.122 120.627 149.095 118.551C149.376 115.66 145.976 116.981 144.337 114.672C143.665 116.382 144.346 117.271 145.243 118.029C142.279 118.603 140.042 115.396 139.318 111.996C141.601 110.459 140.899 113.192 143.375 112.654C144.475 110.179 146.036 110.325 147.127 108.289C147.146 107.235 146.3 106.706 145.758 105.996C146.683 105.673 147.969 103.698 148.781 103.898C149.995 102.292 149.739 101.579 149.972 100.569C149.734 100.078 147.784 102.255 148.097 102.75C146.3 104.371 147.11 99.9245 145.391 102.314C146.407 100.059 147.804 101.009 148.823 100.486C149.333 98.9604 148.643 98.1659 148.661 96.939C150.056 96.024 150.301 98.0106 150.902 98.4419C151.35 98.4424 151.251 97.7939 151.904 97.0503C151.206 95.3167 149.225 93.0888 148.222 92.5191C149.669 90.4465 148.639 93.1257 149.707 92.1365C149.818 89.5933 152.442 85.8464 155.3 81.4446C157.044 81.3673 157.739 80.8992 158.818 82.431C159.348 82.1669 159.554 81.3847 160.564 80.8488C161.614 78.5684 159.845 77.1779 158.844 76.9464C160.838 75.2661 160.641 72.9893 160.427 71.8169C161.462 70.2692 162.025 70.9037 162.913 70.0451C165.992 64.2379 169.555 65.1593 172.653 62.8227C177.292 64.4386 179.712 69.781 184.337 71.3421C185.799 71.8368 187.937 71.3808 189.341 71.9465C192.541 73.228 195.153 75.5373 198.232 77.2172C207.564 82.3149 215.331 88.8291 225.514 93.4435C228.737 94.9042 232.926 96.3493 236.295 98.6081C241.917 102.376 248.628 105.005 251.719 110.325C252.249 110.061 252.478 109.172 253.335 109.341C253.1 112.252 258.468 109.255 256.479 114.202" fill="#FBCCE9"/>
<path fill-rule="evenodd" clip-rule="evenodd" d="M132.937 268.864C134.017 267.901 132.96 270.113 134.086 268.939C133.873 267.498 135.029 265.211 134.142 264.189C133.955 265.533 133.43 265.458 132.699 266.657C133.955 265.082 134.145 267.872 132.937 268.864V268.864ZM160.384 278.023C160.847 278.166 160.812 277.178 161.25 277.226C164.295 279.124 166.674 283.032 171.212 283.088C172.65 286.384 176.172 287.106 178.669 288.675C180.477 289.81 181.656 292.532 184.989 290.778C181.704 288.117 177.542 286.48 175.276 283.71C171.09 282.511 167.103 278.844 162.035 275.69C161.954 275.216 163.274 273.874 162.944 273.554C162.138 274.444 161.426 274.886 160.807 274.881C154.278 269.727 148.496 265.954 144.252 262.631C144.182 262.126 145.637 259.361 144.217 260.558C144.302 260.813 144.22 262.412 143.636 262.226C141.65 259.479 132.73 256.12 131.225 251.333C131.386 251.584 131.178 252.062 130.975 252.538C127.682 249.862 123.364 249.413 121.878 245.875C123.798 249.945 125.752 254.864 130.599 254.341C130.27 254.809 129.94 255.275 129.61 255.74C132.142 254.142 131.612 259.006 132.638 259.101C137.742 256.293 136.192 262.131 139.402 263.544C141.726 261.293 143.315 264.254 143.625 265.638C148.835 268.692 155.308 272.664 160.384 278.023V278.023ZM119.078 248.136C118.667 247.066 119.885 246.877 120.602 246.404C120.859 245.037 119.611 244.65 118.348 244.921C120.048 244.838 117.489 247.959 118.383 246.994C118.727 247.209 119.415 245.776 119.784 245.863C119.225 246.687 118.712 247.283 118.257 247.596C119.179 247.261 118.178 249.305 119.078 248.136V248.136ZM116.573 247.855C118.583 242.882 113.427 243.575 112.861 239.944C112.068 240.773 111.434 240.831 110.848 240.671C110.108 239.822 108.726 237.168 106.828 238.713C107.594 239.111 106.896 240.417 107.273 241.054C108.467 239.836 110.432 240.736 110.39 241.74C109.022 243.541 110.002 240.978 108.912 242.133C110.525 242.911 115.289 243.414 116.573 247.855V247.855ZM106.748 237.975C105.391 237.724 105.459 234.556 103.344 236.423C104.673 236.288 105.375 239.226 106.748 237.975ZM125.772 248.434C126.347 248.762 127.513 248.013 127.707 246.971C127.267 246.475 126.578 247.174 125.772 248.434ZM120.696 243.725C121.222 243.053 121.84 241.956 122.221 241.994C122.817 242.933 124.641 244.426 125.827 243.686C119.891 237.776 112.577 233.178 109.034 229.226C109.266 229.228 109.448 229.48 109.774 229.028C109.36 228.035 108.417 229.578 107.759 229.756C106.462 226.756 102.663 225.761 101.418 223.42C101.62 222.964 101.307 222.829 101.087 222.636C101.154 222.922 101.286 223.17 101.418 223.42C101.354 223.564 101.237 223.744 101.04 223.973C99.2312 222.074 97.774 223.443 98.0119 220.613C96.794 222.372 96.4777 219.78 95.2598 221.536C101.614 227.94 113.285 234.294 119.965 240.513C119.443 242.01 118.424 240.822 118.769 241.78C119.824 240.791 118.869 243.243 120.124 241.986C120.384 239.072 121.028 241.973 120.696 243.725V243.725ZM70.2897 207.176C69.3105 208.822 70.6548 208.544 71.5202 207.984C70.949 207.377 71.5673 206.035 70.3364 205.837C69.6876 206.588 69.7949 207.234 69.3468 207.237C68.3978 207.127 70.4265 205.171 69.3113 205.164C68.7455 206.019 68.3352 206.123 68.0348 205.696C66.3244 208.353 68.4232 209.246 70.2897 207.176V207.176ZM63.3217 202.595C63.324 204.207 65.1915 205.696 66.5557 206.087C67.6825 201.198 62.6917 204.084 63.413 199.921C62.9142 200.451 62.4736 200.701 62.1385 200.448C60.3137 203.102 62.125 203.058 63.3217 202.595V202.595ZM73.2167 204.311C72.1911 204.425 73.2361 203.251 73.0545 202.842C72.397 203.766 72.0774 203.067 71.326 204.439C71.9256 205.187 71.8424 205.641 73.2167 204.311V204.311ZM91.2034 217.505C86.5566 214.341 83.4791 209.735 77.8831 208.751C81.7672 211.678 85.3463 215.304 91.2034 217.505ZM95.4533 225.084C95.3469 224.975 95.2595 224.853 95.5779 224.481C95.9111 224.741 96.3562 224.469 96.8523 223.954C96.3467 223.027 95.4134 224.151 94.6337 224.544C95.3302 224.35 94.33 226.391 95.4533 225.084ZM93.5036 217.651C92.4537 218.964 92.0388 217.232 91.0794 218.108C91.3994 218.52 90.9637 219.401 90.908 220.047C93.7351 218.689 92.4625 222.139 95.3823 220.938C95.5988 218.861 91.3315 219.657 93.5036 217.651V217.651ZM118.927 230.947C118.712 230.525 119.394 230.373 119.917 229.546C118.277 230.248 120.533 227.683 119.017 228.272C119.259 228.812 118.936 229.284 118.231 229.807C118.425 230.072 118.277 231.82 118.927 230.947ZM82.1856 199.272C82.8296 198.787 83.6062 197.665 84.1188 197.81C82.5714 200.151 85.2531 200.392 85.8856 198.285C84.5001 199.56 83.663 194.995 80.5569 194.783C79.4143 198.256 81.2923 197.747 82.1856 199.272ZM71.9496 189.124C71.1472 188.949 71.1026 186.019 69.9008 187.777C69.8804 188.463 70.3934 191.103 71.9496 189.124ZM67.155 185.29C67.388 184.275 66.4002 184.169 65.5965 184.947C65.8757 185.611 66.1137 185.961 67.155 185.29ZM65.7198 184.349C65.9745 183.048 64.574 181.405 63.1821 181.994C64.1363 183.064 64.2288 184.882 65.7198 184.349ZM187.589 260.359C186.733 258.7 185.889 257.58 184.31 258.204C184.385 259.388 186.418 260.726 187.589 260.359ZM183.695 257.801C183.384 257.445 183.189 255.703 182.056 256.722C181.921 257.353 182.837 258.65 183.695 257.801ZM201.445 268.784C202.239 270.269 204.32 270.41 205.67 270.879C204.713 269.798 203.825 268.749 201.445 268.784ZM194.067 263.934C192.073 262.785 190.138 260.517 187.67 261.095C190.649 262.31 191.18 264.472 194.067 263.934ZM101.665 208.658C101.965 209.021 102.446 211.39 103.838 209.408C102.589 209.208 103.134 207.338 101.665 208.658ZM86.6244 198.089C85.5226 199.482 86.2685 200.638 87.3194 199.228C87.617 197.926 86.3671 199.204 86.6244 198.089ZM71.4935 190.195C74.4223 190.209 74.8802 194.492 78.5067 193.436C75.9703 192.29 75.4756 188.755 71.4935 190.195ZM92.6474 202.733C90.5354 201.989 89.8885 198.159 86.8625 200.299C89.1587 200.653 89.4847 205.405 92.6474 202.733ZM143.539 227.983C143.322 226.634 141.771 226.111 142.195 224.365C143.41 225.91 146.201 228.738 148.058 227.536C144.716 224.33 140.629 223.207 138.187 218.996C138.396 218.604 138.831 218.072 138.64 217.929C138.201 218.549 137.76 219.174 137.32 219.796C137.201 218.681 135.467 217.176 134.123 218.375C134.631 221.573 137.393 223.483 139.36 224.554C139.452 224.259 138.852 223.209 139.61 223.349C140.345 225.08 141.861 227.71 143.539 227.983V227.983ZM129.567 216.749C130.713 216.191 129.906 218.016 131.127 217.093C130.912 216.759 131.684 214.518 130.762 215.486C130.852 215.692 130.725 216.032 130.309 216.551C130.046 216.327 129.451 216.14 129.567 216.749V216.749ZM129.158 216.481C129.598 215.858 130.038 215.236 130.478 214.614C127.414 210.754 124.537 210.146 120.689 206.808C121.542 213.223 127.28 211.051 129.158 216.481ZM119.868 206.27C119.57 204.897 115.088 204.718 117.043 203.049C117.246 202.42 114.296 203.394 114.412 203.369C115.734 204.636 118.029 207.697 119.868 206.27ZM113.184 202.56C113.629 201.915 114.005 201.601 114.379 201.295C114.19 200.717 114.641 199.11 113.354 200.623C113.674 201.035 113.239 201.916 113.184 202.56V202.56ZM149.959 224.001C149.403 222.337 147.012 221.812 147.919 219.243C148.254 219.502 148.7 219.227 149.192 218.715C147.256 219.808 150.111 216.419 148.5 217.575C147.439 218.936 145.177 215.568 144.027 216.683C144.381 220.367 146.475 224.016 149.959 224.001ZM158.373 226.113C158.309 221.767 156.316 226.256 154.193 222.683C153.596 225.081 157.424 225.654 154.214 228.169C156.998 226.213 158.004 232.761 160.693 231.744C160.917 230.558 159.802 230.203 160.91 228.468C160.746 229.15 161.735 229.257 162.471 228.807C160.787 228.195 160.434 225.09 158.373 226.113ZM162.345 229.409C162.966 229.412 163.283 230.871 164.11 229.885C163.539 229.176 163.625 228.24 162.345 229.409V229.409ZM247.472 273.747C250.722 274.936 250.23 276.468 253.46 276.317C252.633 274.831 250.209 271.525 247.472 273.747ZM263.957 281.851C263.352 281.266 262.04 281.121 262.237 280.037C261.532 282.047 262.503 282.895 263.957 281.851ZM170.344 218.947C168.126 217.997 168.346 214.884 166.122 216.852C167.447 216.268 168.457 220.734 170.344 218.947ZM152.117 203.546C152.447 203.08 152.778 202.611 153.107 202.146C153.09 201.36 151.333 201.27 152.049 199.397C149.789 202.175 149.594 197.632 147.494 197.774C147.061 201.381 150.878 200.972 152.117 203.546V203.546ZM146.015 198.166C146.584 194.01 141.961 195.648 142.793 191.261C146.395 193.171 148.244 197.189 153.118 198.734C153.061 198.071 152.209 197.901 152.549 196.993C154.963 197.012 154.763 198.978 154.712 201.15C155.46 199.801 155.774 200.526 156.317 200.154C156.134 201.606 156.014 203.849 157.912 202.57C153.8 192.912 139.974 184.143 133.42 180.317C136.692 184.599 140.67 184.766 142.552 189.055C139.717 190.338 140.617 184.538 136.769 186.62C138.269 186.883 139.023 189.54 140.206 190.249C141.016 188.819 142.146 191.917 139.785 193.388C141.747 194.69 144.705 196.452 146.015 198.166V198.166ZM135.049 184.806C133.53 182.121 131.832 182.053 129.722 181.302C131.466 183.573 132.398 186.1 135.049 184.806ZM117.47 171.881C116.881 171.725 116.248 171.78 115.456 172.607C116.041 173.131 116.507 175.081 117.914 174.225C118.042 173.046 116.573 172.858 116.935 172.215C117.076 172.27 117.226 172.304 117.47 171.881ZM113.894 172.268C115.699 169.895 114.94 172.556 115.58 172.007C115.347 171.675 116.161 170.891 116.57 170.607C114.267 170.767 115.106 168.384 111.971 170.319C111.932 169.032 109.965 168.944 111.036 166.969C110.038 167.674 110.636 167.576 109.718 168.834C111.051 169.23 111.019 170.474 111.515 171.387C113.211 168.87 113.422 171.699 113.894 172.268V172.268ZM108.408 167.291C106.71 166.903 107.686 164.657 106.401 164.608C106.708 165.641 105.379 167.686 106.061 168.487C107.227 165.656 106.72 168.756 108.408 167.291V167.291ZM161.077 201.915C161.369 206.789 165.799 207.745 168.237 210.042C167.854 209.6 168.647 208.487 169.353 208.038C166.675 205.485 164.241 202.615 161.077 201.915ZM122.628 177.323C123.064 177.455 122.621 179.843 123.116 178.331C123.011 178.22 122.925 178.099 123.242 177.726C124.091 177.987 124.261 178.667 124.552 179.272C125.798 177.613 123.311 176.916 122.628 177.323V177.323ZM128.614 167.587C128.933 166.074 127.43 167.595 126.849 167.11C127.032 166.852 127.056 166.473 126.645 166.975C126.374 168.661 127.354 168.11 128.614 167.587ZM149.24 282.318C147.756 283.286 148.607 282.754 147.306 283.781C142.641 278.909 139.506 276.966 134.895 272.888C135.202 272.534 135.429 272.559 135.76 272.09C135.013 271.994 132.654 272.966 133.632 270.003C133.199 270.22 132.721 270.65 132.23 271.137C132.044 270.903 132.661 270.17 133.016 269.601C132.788 269.581 132.481 269.936 132.278 269.798C131.365 269.887 132.616 270.666 131.287 271.198C130.114 269.871 131.735 268.079 129.031 269.717C128.247 268.775 128.669 266.652 126.903 267.635C126.662 267.093 126.984 266.62 127.689 266.097C125.579 267.13 125.563 265.185 124.079 264.409C124.656 263.873 125.132 263.828 125.559 264.015C126.529 262.301 124.301 263.609 125.115 261.672C126.071 261.62 127.062 260.601 127.208 261.684C127.829 258.331 123.574 256.789 122.052 256.24C122.932 256.034 123.424 253.666 122.176 255.64C122.114 254.98 123.051 253.7 122.677 253.234C123.541 252.045 124.103 253.194 124.406 251.638C123.804 251.055 123.021 253.649 122.061 252.832C121.87 253.734 122.478 254.144 121.233 255.701C121.005 255.3 120.587 255.812 120.16 256.367C120.047 254.872 122.336 255.01 121.608 253.897C120.27 255.041 118.271 254.408 117.417 253.879C118.41 256.772 121.378 255.961 122.165 259.05C120.042 261.689 119.768 259.409 119.786 258.17C119.179 257.935 119.499 259.157 118.466 260.036C118.443 259.592 117.057 258.921 116.827 258.958C116.873 257.383 118.332 258.33 118.967 257.631C118.61 257.236 117.781 254.578 115.187 257.879C115.563 256.774 116.31 255.438 115.814 254.874C115.61 255.349 115.401 255.827 115.562 256.077C114.288 256.502 116.393 253.527 117.543 253.277C116.077 250.279 110.897 247.57 107.057 244.332C105.186 242.758 102.731 241.365 101.568 239.359C100.843 238.104 96.9009 235.963 94.5999 234.778C94.4242 234.452 95.2578 233.497 95.7142 232.778C92.4986 234.552 92.3766 230.449 88.9064 229.667C88.7218 229.435 89.3362 228.703 89.692 228.134C89.4538 227.658 87.7945 228.991 89.2024 227.128C85.2058 228.67 83.8925 224.628 81.779 223.616C81.4831 223.471 80.6601 224.235 80.71 224.279C80.3138 223.927 80.8296 222.121 80.0597 221.803C79.1564 221.426 78.9686 221.03 78.341 219.986C77.7739 219.048 76.4937 217.315 76.1314 217.169C75.8472 217.052 75.1867 218.156 74.8563 217.698C74.5925 217.327 75.2775 216.464 75.2251 215.998C75.0409 216.185 73.3133 215.228 72.3187 215.343C73.8327 213.624 69.1351 213.216 68.0598 211.179C68.8462 210.304 69.3217 210.669 69.5835 209.446C67.9383 209.372 66.2466 211.749 66.7959 208.296C64.4941 209.607 64.6891 208.163 63.0627 207.208C63.7194 206.284 64.0396 206.983 64.791 205.611C63.2697 207.181 63.9767 204.541 62.369 206.067C62.2418 205.861 62.5298 205.411 62.7789 205.217C60.3929 206.189 58.8188 203.609 57.7783 202.368C58.9123 201.253 58.8356 200.614 59.509 200.769C59.3633 199.779 58.2851 198.382 60.0532 197.031C59.3671 197.37 59.154 197.232 59.2348 196.489C58.768 197.034 58.7392 197.309 58.8407 197.502C57.0626 195.095 54.2114 192.13 53.381 189.908C52.448 191.044 52.9952 190.05 51.6972 190.167C52.1484 189.858 52.6619 189.259 53.2224 188.436C52.6355 188.266 51.5379 190.566 51.0831 189.761C53.2128 186.399 48.7271 188.777 49.8191 186.881C49.5245 186.798 49.0432 187.62 48.6242 188.146C48.3158 186.801 47.783 186.925 46.1638 186.53C49.2286 185.621 46.573 185.301 45.4682 185.39C46.0861 184.283 46.3302 184.983 46.8693 184.259C47.1448 183.19 46.6092 182.121 45.3085 183.917C45.9473 181.018 44.7457 180.286 44.2615 177.758C46.5278 176.504 48.4056 177.314 50.8299 178.661C51.2793 178.656 51.17 178.011 51.8194 177.26C55.5043 178.114 57.4163 181.472 61.5424 180.918C58.7496 174.798 51.7245 173.238 48.0285 168.613C50.2766 168.246 51.09 168.359 53.2415 169.307C54.0037 167.875 52.3731 167.926 52.5918 166.83C53.4347 166.14 53.9197 167.166 54.6861 166.84C52.975 163.416 49.5949 162.461 46.2487 159.243C47.2506 157.414 47.4003 159.684 48.5149 157.314C54.5032 162.285 62.8651 160.846 64.3385 166.352C63.4421 167.303 63.0613 165.777 62.3712 165.738C62.6418 168.907 65.4311 169.941 67.528 171.182C73.3919 174.646 79.3229 177.98 84.9939 181.294C85.3079 180.837 85.0001 180.765 84.9124 180.558C92.1078 182.393 101.187 188.266 105.613 194.163C106.157 193.791 106.471 194.516 107.216 193.168C107.267 196.61 110.228 196.216 112.419 197.275C118.027 199.975 121.878 206.601 127.336 208.445C125.136 210.342 127.835 209.023 128.77 209.388C132.51 210.853 136.448 215.975 140.407 218.404C140.982 214.662 135.419 214.927 135.009 210.754C135.757 209.392 135.738 211.724 136.488 210.36C135.722 204.79 129.618 206.759 128.838 201.229C128.224 201.509 128.381 202.054 127.436 202.36C121.357 199.831 114.367 192.865 108.344 187.758C107.631 187.151 106.077 188.114 105.096 187.676C96.8602 183.99 93.8073 174.882 86.0484 171.736C90.6026 172.704 92.4158 175.926 97.7762 178.078C98.0707 178.161 98.5514 177.339 98.9712 176.811C101.571 178.574 101.455 180.599 103.515 181.849C113.462 187.896 123.977 196.62 136.6 200.866C137.63 201 137.766 199.243 138.661 198.801C139.257 202.284 143.429 201.032 142.828 205.643C143.678 205.588 143.192 204.232 143.204 203.839C146.175 203.657 145.055 210.244 148.852 210.284C149.672 208.641 148.449 208.266 148.862 206.874C149.048 206.444 150.256 207.556 149.966 208.284C152.157 206.265 154.675 209.999 156.035 211.59C157.956 209.542 159.527 214.605 162.068 212.821C157.307 208.078 149.156 205.243 145.15 198.964C144.511 199.71 144.686 199.952 144.898 200.167C143.839 200.482 143.3 199.816 144.125 198.291C143.37 197.678 143.683 199.05 142.726 199.421C142.436 198.585 142.455 198.226 142.36 197.814C139.587 197.936 138.762 194.893 137.487 193.243C134.307 190.139 138.301 194.609 140.242 192.32C137.038 188.245 130.484 186.259 127.91 182.164C129.475 179.722 128.642 182.632 129.843 180.703C128.893 178.823 126.881 178.711 125.872 177.405C125.064 179.13 127.079 179.103 125.53 181.286C123.731 180.521 122.366 178.542 121.024 178.32C123.451 174.966 120.11 174.293 118.357 176.57C117.107 176.733 118.871 175.027 117.994 174.962C117.655 174.907 117.13 175.752 117.333 175.895C114.211 174.622 107.246 170.685 104.832 167.677C104.774 167.19 105.157 166.427 105.743 165.54C104.862 165.543 104.801 167.124 104.092 167.873C103.007 165.705 100.545 166.414 100.653 164.247C101.746 162.364 102.042 164.29 102.749 164.255C103.055 163.062 102.085 163.626 103.659 162.12C98.5174 159.395 97.3189 158.545 93.207 155.249C98.0143 154 99.314 159.387 103.464 158.574C104.374 161.062 106.797 160.443 108.054 162.273C108.661 162.51 108.341 161.285 109.374 160.406C110.387 160.31 109.868 160.67 110.603 161.216C111.632 160.055 110.817 160.035 110.978 159.412C112.007 158.315 111.243 160.902 112.538 159.753C112.833 157.132 108.926 160.447 108.314 157.661C108.784 156.679 107.932 156.934 109.099 156.128C108.017 155.576 108.13 154.281 106.765 153.907C105.863 153.329 107.299 153.08 107.507 153.71C109.634 154.647 113.172 154.53 113.037 157.349C114.954 156.412 113.882 158.531 115.213 158.094C114.912 158.969 114.039 160.163 113.152 160.159C115.276 164.435 120.247 165.508 123.89 167.899C124.698 164.098 119.811 165.779 120.007 161.928C122.191 161.926 123.302 163.467 124.845 164.426C123.383 165.737 125.307 166.706 126.234 166.707C126.681 166.705 126.577 166.055 127.224 165.306C128.012 166.97 129.703 166.458 131.323 168C131.09 168.757 130.29 169.865 130.617 170.274C132.386 166.885 130.779 171.819 132.587 170.883C128.81 173.633 131.075 167.655 128.364 168.789C129.347 172.186 130.413 175.155 133.805 175.103C134.64 173.887 133.276 174.034 134.843 172.364C136.374 173.377 136.668 174.53 138.531 174.79C138.02 175.381 137.743 174.839 137.379 174.718C137.306 178.597 140.424 180.533 142.983 182.501C143.943 181.931 143.953 181.022 143.892 180.366C144.84 179.178 145.236 180.631 146.113 179.773C146.661 187.067 155.785 185.612 155.931 193.062C156.492 192.14 157.157 192.691 158.399 191.269C160.067 192.181 160.515 194.442 163.362 193.165C163.334 196.336 168.946 194.906 166.665 200.805C171.12 198.399 172.599 200.122 175.284 203.05C174.762 203.692 174.555 202.813 174.008 203.581C174.42 204.983 175.941 205.698 176.832 206.805C177.535 205.234 175.995 205.054 175.238 204.389C177.08 202.067 176.535 204.662 177.948 204.8C176.093 210.073 180.938 210.098 183.39 211.115C183.748 210.108 182.58 210.046 182.614 209.24C185.782 208.593 185.98 212.56 188.48 212.41C188.038 213.034 187.599 213.654 187.16 214.277C190.36 217.985 193.87 218.91 198.475 220.349C199.125 220.391 198.742 219.458 199.672 219.083C204.425 221.898 208.884 226.339 214.802 226.979C214.902 226.415 212.508 226.248 214.277 223.9C214.577 225.148 216.664 226.285 216.315 228.659C221.553 231.272 228.085 233.451 233.541 236.567C238.056 239.14 243.317 240.581 247.772 243.186C256.561 248.322 262.682 254.438 269.94 259.808C272.053 261.371 273.677 263.269 273.778 267.117C270.253 271.022 269.113 268.87 266.173 268.954C266.125 270.119 265.383 271.715 266.163 272.367C265.901 272.612 264.383 273.824 264.842 274.233C261.066 278.163 259.535 274.897 256.58 277C256.326 279.894 259.713 278.542 261.374 280.836C262.03 279.12 261.341 278.237 260.437 277.487C263.396 276.886 265.662 280.073 266.417 283.467C264.147 285.024 264.825 282.285 262.353 282.846C261.276 285.33 259.714 285.198 258.641 287.243C258.631 288.298 259.482 288.819 260.031 289.524C259.108 289.855 257.841 291.842 257.026 291.65C255.827 293.267 256.089 293.977 255.865 294.989C256.109 295.478 258.039 293.284 257.721 292.791C259.503 291.154 258.733 295.608 260.431 293.203C259.435 295.467 258.03 294.53 257.015 295.062C256.52 296.592 257.216 297.38 257.209 298.607C255.823 299.535 255.56 297.55 254.955 297.125C254.507 297.128 254.612 297.776 253.966 298.525C254.679 300.252 256.68 302.462 257.688 303.023C256.26 305.109 257.266 302.42 256.207 303.419C256.119 305.963 253.529 309.733 250.711 314.161C248.967 314.254 248.277 314.728 247.184 313.206C246.656 313.475 246.457 314.259 245.452 314.804C244.423 317.094 246.204 318.468 247.207 318.691C245.228 320.389 245.446 322.664 245.671 323.835C244.65 325.391 244.081 324.762 243.201 325.629C240.174 331.463 236.603 330.574 233.526 332.939C228.872 331.365 226.405 326.044 221.765 324.525C220.3 324.043 218.166 324.519 216.756 323.966C213.545 322.713 210.912 320.427 207.818 318.775C198.441 313.762 190.616 307.318 180.391 302.796C177.155 301.364 172.953 299.957 169.564 297.729C163.908 294.012 157.173 291.444 154.035 286.152C153.507 286.42 153.286 287.312 152.428 287.15C152.637 284.237 147.296 287.282 149.24 282.318" fill="#FBCCE9"/>
</svg>
