<svg preserveAspectRatio="none" width="20" height="16" viewBox="0 0 20 16" fill="none" xmlns="http://www.w3.org/2000/svg">
<mask id="mask0_64_1036" style="mask-type:luminance" maskUnits="userSpaceOnUse" x="0" y="0" width="20" height="16">
<rect width="20" height="16" rx="2" fill="white"/>
</mask>
<g mask="url(#mask0_64_1036)">
<path fill-rule="evenodd" clip-rule="evenodd" d="M0 0H20V16H0V0Z" fill="#F7F7FD"/>
<path fill-rule="evenodd" clip-rule="evenodd" d="M0 9.77772V11.1111H20V9.77772H0Z" fill="#E31D1C"/>
<path fill-rule="evenodd" clip-rule="evenodd" d="M0 12.2223V13.5556H20V12.2223H0Z" fill="#E31D1C"/>
<path fill-rule="evenodd" clip-rule="evenodd" d="M0 4.88882V6.22215H20V4.88882H0Z" fill="#E31D1C"/>
<path fill-rule="evenodd" clip-rule="evenodd" d="M0 14.6665V15.9999H20V14.6665H0Z" fill="#E31D1C"/>
<path fill-rule="evenodd" clip-rule="evenodd" d="M0 7.33346V8.6668H20V7.33346H0Z" fill="#E31D1C"/>
<path fill-rule="evenodd" clip-rule="evenodd" d="M0 0V1.33333H20V0H0Z" fill="#E31D1C"/>
<path fill-rule="evenodd" clip-rule="evenodd" d="M0 2.44465V3.77798H20V2.44465H0Z" fill="#E31D1C"/>
<rect width="12.5" height="8.66667" fill="#2E42A5"/>
<path fill-rule="evenodd" clip-rule="evenodd" d="M1.07623 1.95925L0.622554 2.2985L0.77572 1.69476L0.372772 1.31216H0.899076L1.07559 0.819445L1.28258 1.31216H1.73124L1.37871 1.69476L1.51519 2.2985L1.07623 1.95925ZM3.57622 1.95925L3.12255 2.2985L3.27571 1.69476L2.87277 1.31216H3.39907L3.57559 0.819445L3.78257 1.31216H4.23123L3.87871 1.69476L4.01518 2.2985L3.57622 1.95925ZM5.62255 2.2985L6.07622 1.95925L6.51518 2.2985L6.37871 1.69476L6.73123 1.31216H6.28257L6.07559 0.819445L5.89907 1.31216H5.37276L5.77571 1.69476L5.62255 2.2985ZM8.57624 1.95925L8.12256 2.2985L8.27573 1.69476L7.87278 1.31216H8.39908L8.5756 0.819445L8.78258 1.31216H9.23124L8.87872 1.69476L9.0152 2.2985L8.57624 1.95925ZM0.622554 4.96504L1.07623 4.62578L1.51519 4.96504L1.37871 4.3613L1.73124 3.97869H1.28258L1.07559 3.48598L0.899076 3.97869H0.372772L0.77572 4.3613L0.622554 4.96504ZM3.57622 4.62578L3.12255 4.96504L3.27571 4.3613L2.87277 3.97869H3.39907L3.57559 3.48598L3.78257 3.97869H4.23123L3.87871 4.3613L4.01518 4.96504L3.57622 4.62578ZM5.62255 4.96504L6.07622 4.62578L6.51518 4.96504L6.37871 4.3613L6.73123 3.97869H6.28257L6.07559 3.48598L5.89907 3.97869H5.37276L5.77571 4.3613L5.62255 4.96504ZM8.57624 4.62578L8.12256 4.96504L8.27573 4.3613L7.87278 3.97869H8.39908L8.5756 3.48598L8.78258 3.97869H9.23124L8.87872 4.3613L9.0152 4.96504L8.57624 4.62578ZM0.622554 7.63197L1.07623 7.29271L1.51519 7.63197L1.37871 7.02823L1.73124 6.64562H1.28258L1.07559 6.15291L0.899076 6.64562H0.372772L0.77572 7.02823L0.622554 7.63197ZM3.57622 7.29271L3.12255 7.63197L3.27571 7.02823L2.87277 6.64562H3.39907L3.57559 6.15291L3.78257 6.64562H4.23123L3.87871 7.02823L4.01518 7.63197L3.57622 7.29271ZM5.62255 7.63197L6.07622 7.29271L6.51518 7.63197L6.37871 7.02823L6.73123 6.64562H6.28257L6.07559 6.15291L5.89907 6.64562H5.37276L5.77571 7.02823L5.62255 7.63197ZM8.57624 7.29271L8.12256 7.63197L8.27573 7.02823L7.87278 6.64562H8.39908L8.5756 6.15291L8.78258 6.64562H9.23124L8.87872 7.02823L9.0152 7.63197L8.57624 7.29271ZM10.6226 2.2985L11.0762 1.95925L11.5152 2.2985L11.3787 1.69476L11.7312 1.31216H11.2826L11.0756 0.819445L10.8991 1.31216H10.3728L10.7757 1.69476L10.6226 2.2985ZM11.0762 4.62578L10.6226 4.96504L10.7757 4.3613L10.3728 3.97869H10.8991L11.0756 3.48598L11.2826 3.97869H11.7312L11.3787 4.3613L11.5152 4.96504L11.0762 4.62578ZM10.6226 7.63197L11.0762 7.29271L11.5152 7.63197L11.3787 7.02823L11.7312 6.64562H11.2826L11.0756 6.15291L10.8991 6.64562H10.3728L10.7757 7.02823L10.6226 7.63197ZM2.32624 3.29271L1.87256 3.63197L2.02573 3.02823L1.62278 2.64562H2.14909L2.3256 2.15291L2.53259 2.64562H2.98125L2.62872 3.02823L2.7652 3.63197L2.32624 3.29271ZM4.37256 3.63197L4.82623 3.29271L5.26519 3.63197L5.12872 3.02823L5.48124 2.64562H5.03258L4.8256 2.15291L4.64908 2.64562H4.12278L4.52572 3.02823L4.37256 3.63197ZM7.32623 3.29271L6.87255 3.63197L7.02572 3.02823L6.62277 2.64562H7.14908L7.32559 2.15291L7.53258 2.64562H7.98124L7.62871 3.02823L7.76519 3.63197L7.32623 3.29271ZM1.87256 6.2985L2.32624 5.95925L2.7652 6.2985L2.62872 5.69476L2.98125 5.31216H2.53259L2.3256 4.81945L2.14909 5.31216H1.62278L2.02573 5.69476L1.87256 6.2985ZM4.82623 5.95925L4.37256 6.2985L4.52572 5.69476L4.12278 5.31216H4.64908L4.8256 4.81945L5.03258 5.31216H5.48124L5.12872 5.69476L5.26519 6.2985L4.82623 5.95925ZM6.87255 6.2985L7.32623 5.95925L7.76519 6.2985L7.62871 5.69476L7.98124 5.31216H7.53258L7.32559 4.81945L7.14908 5.31216H6.62277L7.02572 5.69476L6.87255 6.2985ZM9.82623 3.29271L9.37255 3.63197L9.52572 3.02823L9.12277 2.64562H9.64907L9.82559 2.15291L10.0326 2.64562H10.4812L10.1287 3.02823L10.2652 3.63197L9.82623 3.29271ZM9.37255 6.2985L9.82623 5.95925L10.2652 6.2985L10.1287 5.69476L10.4812 5.31216H10.0326L9.82559 4.81945L9.64907 5.31216H9.12277L9.52572 5.69476L9.37255 6.2985Z" fill="#F7F7FD"/>
</g>
</svg>
